ThiruValluvar-BoldItalic.ufo
<glyph name="exclam" format="2">
  <advance width="409"/>
  <unicode hex="0021"/>
  <outline>
    <contour>
      <point x="439" y="1265" type="line"/>
      <point x="403" y="1292" type="line"/>
      <point x="354" y="1277"/>
      <point x="251" y="1221"/>
      <point x="207" y="1194" type="curve"/>
      <point x="148" y="342" type="line"/>
      <point x="170" y="324" type="line"/>
      <point x="199" y="333"/>
      <point x="231" y="347"/>
      <point x="254" y="363" type="curve"/>
    </contour>
    <contour>
      <point x="295" y="145" type="curve"/>
      <point x="295" y="199"/>
      <point x="261" y="239"/>
      <point x="198" y="239" type="curve" smooth="yes"/>
      <point x="105" y="239"/>
      <point x="41" y="144"/>
      <point x="41" y="70" type="curve" smooth="yes"/>
      <point x="41" y="11"/>
      <point x="73" y="-27"/>
      <point x="139" y="-27" type="curve" smooth="yes"/>
      <point x="238" y="-27"/>
      <point x="295" y="67"/>
    </contour>
  </outline>
</glyph>
<glyph name="quotedbl" format="2">
  <advance width="830"/>
  <unicode hex="0022"/>
  <outline>
    <contour>
      <point x="807" y="1259" type="line"/>
      <point x="765" y="1287" type="line"/>
      <point x="738" y="1280"/>
      <point x="568" y="1223"/>
      <point x="540" y="1207" type="curve"/>
      <point x="556" y="745" type="line"/>
      <point x="582" y="745"/>
      <point x="639" y="753"/>
      <point x="658" y="764" type="curve"/>
    </contour>
    <contour>
      <point x="456" y="1259" type="line"/>
      <point x="414" y="1287" type="line"/>
      <point x="387" y="1280"/>
      <point x="217" y="1223"/>
      <point x="189" y="1207" type="curve"/>
      <point x="205" y="745" type="line"/>
      <point x="231" y="745"/>
      <point x="288" y="753"/>
      <point x="307" y="764" type="curve"/>
    </contour>
  </outline>
</glyph>
<glyph name="numbersign" format="2">
  <advance width="871"/>
  <unicode hex="0023"/>
  <outline>
    <contour>
      <point x="925" y="860" type="curve"/>
      <point x="907" y="882" type="line"/>
      <point x="226" y="882" type="line"/>
      <point x="215" y="858"/>
      <point x="176" y="791"/>
      <point x="168" y="765" type="curve"/>
      <point x="186" y="743" type="line"/>
      <point x="866" y="743" type="line"/>
      <point x="878" y="763"/>
      <point x="916" y="834"/>
    </contour>
    <contour>
      <point x="882" y="1143" type="line"/>
      <point x="861" y="1162" type="line"/>
      <point x="835" y="1152"/>
      <point x="774" y="1144"/>
      <point x="748" y="1125" type="curve"/>
      <point x="349" y="132" type="line"/>
      <point x="368" y="114" type="line"/>
      <point x="398" y="125"/>
      <point x="460" y="136"/>
      <point x="483" y="153" type="curve"/>
    </contour>
    <contour>
      <point x="614" y="1143" type="line"/>
      <point x="593" y="1162" type="line"/>
      <point x="567" y="1152"/>
      <point x="508" y="1144"/>
      <point x="481" y="1125" type="curve"/>
      <point x="81" y="132" type="line"/>
      <point x="100" y="114" type="line"/>
      <point x="132" y="125"/>
      <point x="192" y="136"/>
      <point x="215" y="153" type="curve"/>
    </contour>
    <contour>
      <point x="787" y="524" type="curve"/>
      <point x="773" y="549" type="line"/>
      <point x="91" y="549" type="line"/>
      <point x="78" y="524"/>
      <point x="42" y="455"/>
      <point x="33" y="432" type="curve"/>
      <point x="49" y="409" type="line"/>
      <point x="732" y="409" type="line"/>
      <point x="743" y="430"/>
      <point x="780" y="501"/>
    </contour>
  </outline>
</glyph>
<glyph name="dollar" format="2">
  <advance width="773"/>
  <unicode hex="0024"/>
  <outline>
    <contour>
      <point x="527" y="1214" type="line"/>
      <point x="505" y="1236" type="line"/>
      <point x="474" y="1226"/>
      <point x="476" y="1223"/>
      <point x="444" y="1204" type="curve"/>
      <point x="255" y="-132" type="line"/>
      <point x="275" y="-153" type="line"/>
      <point x="304" y="-146"/>
      <point x="318" y="-139"/>
      <point x="339" y="-121" type="curve"/>
    </contour>
    <contour>
      <point x="747" y="1029" type="curve"/>
      <point x="690" y="1070"/>
      <point x="605" y="1107"/>
      <point x="514" y="1107" type="curve" smooth="yes"/>
      <point x="261" y="1107"/>
      <point x="112" y="946"/>
      <point x="112" y="794" type="curve" smooth="yes"/>
      <point x="112" y="697"/>
      <point x="172" y="611"/>
      <point x="324" y="543" type="curve" smooth="yes"/>
      <point x="497" y="464"/>
      <point x="561" y="402"/>
      <point x="561" y="308" type="curve" smooth="yes"/>
      <point x="561" y="180"/>
      <point x="454" y="87"/>
      <point x="315" y="87" type="curve" smooth="yes"/>
      <point x="166" y="87"/>
      <point x="118" y="246"/>
      <point x="89" y="246" type="curve" smooth="yes"/>
      <point x="55" y="246"/>
      <point x="-12" y="135"/>
      <point x="-12" y="103" type="curve" smooth="yes"/>
      <point x="-12" y="42"/>
      <point x="154" y="-27"/>
      <point x="249" y="-27" type="curve" smooth="yes"/>
      <point x="506" y="-27"/>
      <point x="696" y="162"/>
      <point x="696" y="376" type="curve" smooth="yes"/>
      <point x="696" y="511"/>
      <point x="611" y="583"/>
      <point x="426" y="671" type="curve" smooth="yes"/>
      <point x="273" y="744"/>
      <point x="242" y="798"/>
      <point x="242" y="855" type="curve" smooth="yes"/>
      <point x="242" y="930"/>
      <point x="321" y="1012"/>
      <point x="438" y="1012" type="curve" smooth="yes"/>
      <point x="522" y="1012"/>
      <point x="590" y="955"/>
      <point x="623" y="890" type="curve"/>
      <point x="657" y="885" type="line"/>
      <point x="680" y="898"/>
      <point x="761" y="1019"/>
    </contour>
  </outline>
</glyph>
<glyph name="percent" format="2">
  <advance width="1226"/>
  <unicode hex="0025"/>
  <outline>
    <contour>
      <point x="608" y="882" type="curve"/>
      <point x="608" y="1019"/>
      <point x="526" y="1113"/>
      <point x="406" y="1113" type="curve" smooth="yes"/>
      <point x="203" y="1113"/>
      <point x="81" y="907"/>
      <point x="81" y="733" type="curve" smooth="yes"/>
      <point x="81" y="606"/>
      <point x="163" y="500"/>
      <point x="288" y="500" type="curve" smooth="yes"/>
      <point x="490" y="500"/>
      <point x="608" y="708"/>
    </contour>
    <contour>
      <point x="1134" y="1084" type="line"/>
      <point x="1114" y="1112" type="line"/>
      <point x="1085" y="1105"/>
      <point x="1020" y="1090"/>
      <point x="991" y="1075" type="curve"/>
      <point x="94" y="0" type="line"/>
      <point x="111" y="-29" type="line"/>
      <point x="142" y="-20"/>
      <point x="211" y="-6"/>
      <point x="238" y="8" type="curve"/>
    </contour>
    <contour>
      <point x="1147" y="353" type="curve"/>
      <point x="1147" y="490"/>
      <point x="1065" y="584"/>
      <point x="944" y="584" type="curve" smooth="yes"/>
      <point x="742" y="584"/>
      <point x="619" y="378"/>
      <point x="619" y="204" type="curve" smooth="yes"/>
      <point x="619" y="77"/>
      <point x="702" y="-28"/>
      <point x="827" y="-28" type="curve" smooth="yes"/>
      <point x="1028" y="-28"/>
      <point x="1147" y="179"/>
    </contour>
    <contour>
      <point x="454" y="894" type="curve"/>
      <point x="454" y="782"/>
      <point x="417" y="570"/>
      <point x="321" y="570" type="curve" smooth="yes"/>
      <point x="269" y="570"/>
      <point x="239" y="614"/>
      <point x="239" y="711" type="curve" smooth="yes"/>
      <point x="239" y="801"/>
      <point x="265" y="1043"/>
      <point x="373" y="1043" type="curve" smooth="yes"/>
      <point x="419" y="1043"/>
      <point x="454" y="999"/>
    </contour>
    <contour>
      <point x="992" y="365" type="curve"/>
      <point x="992" y="253"/>
      <point x="955" y="41"/>
      <point x="859" y="41" type="curve" smooth="yes"/>
      <point x="806" y="41"/>
      <point x="778" y="85"/>
      <point x="778" y="182" type="curve" smooth="yes"/>
      <point x="778" y="272"/>
      <point x="804" y="514"/>
      <point x="913" y="514" type="curve" smooth="yes"/>
      <point x="957" y="514"/>
      <point x="992" y="471"/>
    </contour>
  </outline>
</glyph>
<glyph name="ampersand" format="2">
  <advance width="1194"/>
  <unicode hex="0026"/>
  <outline>
    <contour>
      <point x="1260" y="673" type="curve"/>
      <point x="1239" y="714" type="line"/>
      <point x="825" y="714" type="line"/>
      <point x="801" y="705"/>
      <point x="750" y="657"/>
      <point x="737" y="641" type="curve"/>
      <point x="759" y="607" type="line"/>
      <point x="824" y="607"/>
      <point x="877" y="552"/>
      <point x="863" y="451" type="curve" smooth="yes"/>
      <point x="842" y="300"/>
      <point x="648" y="111"/>
      <point x="474" y="111" type="curve" smooth="yes"/>
      <point x="382" y="111"/>
      <point x="284" y="167"/>
      <point x="307" y="335" type="curve" smooth="yes"/>
      <point x="326" y="475"/>
      <point x="387" y="584"/>
      <point x="608" y="721" type="curve" smooth="yes"/>
      <point x="752" y="810"/>
      <point x="917" y="958"/>
      <point x="934" y="1083" type="curve" smooth="yes"/>
      <point x="950" y="1199"/>
      <point x="885" y="1305"/>
      <point x="707" y="1305" type="curve" smooth="yes"/>
      <point x="515" y="1305"/>
      <point x="341" y="1159"/>
      <point x="314" y="965" type="curve"/>
      <point x="255" y="532"/>
      <point x="747" y="-27"/>
      <point x="859" y="-27" type="curve" smooth="yes"/>
      <point x="883" y="-27"/>
      <point x="1035" y="12"/>
      <point x="1137" y="58" type="curve"/>
      <point x="1132" y="133" type="line"/>
      <point x="1077" y="119"/>
      <point x="1007" y="129"/>
      <point x="954" y="185" type="curve"/>
      <point x="774" y="369"/>
      <point x="499" y="747"/>
      <point x="536" y="1017" type="curve" smooth="yes"/>
      <point x="549" y="1111"/>
      <point x="582" y="1181"/>
      <point x="637" y="1181" type="curve" smooth="yes"/>
      <point x="679" y="1181"/>
      <point x="716" y="1137"/>
      <point x="704" y="1053" type="curve" smooth="yes"/>
      <point x="693" y="974"/>
      <point x="647" y="875"/>
      <point x="535" y="814" type="curve" smooth="yes"/>
      <point x="223" y="642"/>
      <point x="82" y="478"/>
      <point x="61" y="316" type="curve"/>
      <point x="29" y="91"/>
      <point x="153" y="-27"/>
      <point x="396" y="-27" type="curve" smooth="yes"/>
      <point x="713" y="-27"/>
      <point x="1008" y="279"/>
      <point x="1036" y="488" type="curve" smooth="yes"/>
      <point x="1041" y="524"/>
      <point x="1042" y="562"/>
      <point x="1023" y="594" type="curve"/>
      <point x="1061" y="592"/>
      <point x="1106" y="568"/>
      <point x="1144" y="548" type="curve"/>
      <point x="1174" y="568"/>
      <point x="1228" y="636"/>
    </contour>
  </outline>
</glyph>
<glyph name="quotesingle" format="2">
  <advance width="389"/>
  <unicode hex="0027"/>
  <outline>
    <contour>
      <point x="397" y="1265" type="line"/>
      <point x="362" y="1287" type="line"/>
      <point x="335" y="1280"/>
      <point x="253" y="1250"/>
      <point x="225" y="1234" type="curve"/>
      <point x="207" y="765" type="line"/>
      <point x="233" y="765"/>
      <point x="263" y="770"/>
      <point x="282" y="780" type="curve"/>
    </contour>
  </outline>
</glyph>
<glyph name="parenleft" format="2">
  <advance width="576"/>
  <unicode hex="0028"/>
  <outline>
    <contour>
      <point x="685" y="1367" type="curve"/>
      <point x="647" y="1443" type="line"/>
      <point x="360" y="1298"/>
      <point x="147" y="980"/>
      <point x="91" y="585" type="curve" smooth="yes"/>
      <point x="36" y="204"/>
      <point x="161" y="-131"/>
      <point x="404" y="-283" type="curve"/>
      <point x="464" y="-207" type="line"/>
      <point x="317" y="-18"/>
      <point x="294" y="263"/>
      <point x="343" y="613" type="curve" smooth="yes"/>
      <point x="397" y="999"/>
      <point x="526" y="1230"/>
    </contour>
  </outline>
</glyph>
<glyph name="parenright" format="2">
  <advance width="576"/>
  <unicode hex="0029"/>
  <outline>
    <contour>
      <point x="503" y="574" type="curve" smooth="yes"/>
      <point x="558" y="955"/>
      <point x="433" y="1291"/>
      <point x="190" y="1443" type="curve"/>
      <point x="130" y="1367" type="line"/>
      <point x="277" y="1178"/>
      <point x="300" y="896"/>
      <point x="251" y="546" type="curve" smooth="yes"/>
      <point x="197" y="161"/>
      <point x="68" y="-70"/>
      <point x="-90" y="-207" type="curve"/>
      <point x="-52" y="-283" type="line"/>
      <point x="234" y="-138"/>
      <point x="447" y="180"/>
    </contour>
  </outline>
</glyph>
<glyph name="asterisk" format="2">
  <advance width="671"/>
  <unicode hex="002A"/>
  <outline>
    <contour>
      <point x="243" y="636" type="line"/>
      <point x="269" y="642"/>
      <point x="375" y="684"/>
      <point x="401" y="697" type="curve"/>
      <point x="387" y="934" type="line"/>
      <point x="549" y="760" type="line"/>
      <point x="600" y="777" type="line"/>
      <point x="611" y="803"/>
      <point x="642" y="917"/>
      <point x="648" y="945" type="curve"/>
      <point x="444" y="1022" type="line"/>
      <point x="689" y="1107" type="line"/>
      <point x="706" y="1161" type="line"/>
      <point x="693" y="1181"/>
      <point x="619" y="1253"/>
      <point x="599" y="1269" type="curve"/>
      <point x="407" y="1107" type="line"/>
      <point x="492" y="1368" type="line"/>
      <point x="458" y="1404" type="line"/>
      <point x="432" y="1398"/>
      <point x="327" y="1357"/>
      <point x="301" y="1343" type="curve"/>
      <point x="314" y="1106" type="line"/>
      <point x="153" y="1280" type="line"/>
      <point x="102" y="1263" type="line"/>
      <point x="91" y="1237"/>
      <point x="60" y="1124"/>
      <point x="54" y="1095" type="curve"/>
      <point x="259" y="1018" type="line"/>
      <point x="13" y="933" type="line"/>
      <point x="-5" y="879" type="line"/>
      <point x="9" y="859"/>
      <point x="82" y="787"/>
      <point x="103" y="772" type="curve"/>
      <point x="294" y="933" type="line"/>
      <point x="210" y="673" type="line"/>
    </contour>
  </outline>
</glyph>
<glyph name="plus" format="2">
  <advance width="751"/>
  <unicode hex="002B"/>
  <outline>
    <contour>
      <point x="495" y="811" type="line"/>
      <point x="469" y="841" type="line"/>
      <point x="442" y="835"/>
      <point x="378" y="813"/>
      <point x="354" y="806" type="curve"/>
      <point x="269" y="199" type="line"/>
      <point x="295" y="171" type="line"/>
      <point x="323" y="176"/>
      <point x="385" y="196"/>
      <point x="410" y="207" type="curve"/>
    </contour>
    <contour>
      <point x="706" y="545" type="curve"/>
      <point x="681" y="576" type="line"/>
      <point x="105" y="576" type="line"/>
      <point x="92" y="552"/>
      <point x="58" y="493"/>
      <point x="49" y="467" type="curve"/>
      <point x="72" y="436" type="line"/>
      <point x="649" y="436" type="line"/>
      <point x="660" y="456"/>
      <point x="696" y="519"/>
    </contour>
  </outline>
</glyph>
<glyph name="comma" format="2">
  <advance width="450"/>
  <unicode hex="002C"/>
  <outline>
    <contour>
      <point x="359" y="109" type="curve" smooth="yes"/>
      <point x="359" y="183"/>
      <point x="335" y="218"/>
      <point x="293" y="242" type="curve"/>
      <point x="235" y="241"/>
      <point x="68" y="180"/>
      <point x="24" y="143" type="curve"/>
      <point x="27" y="63" type="line"/>
      <point x="96" y="70"/>
      <point x="128" y="17"/>
      <point x="128" y="-27" type="curve" smooth="yes"/>
      <point x="128" y="-100"/>
      <point x="82" y="-208"/>
      <point x="-9" y="-306" type="curve"/>
      <point x="48" y="-355" type="line"/>
      <point x="174" y="-279"/>
      <point x="359" y="-55"/>
    </contour>
  </outline>
</glyph>
<glyph name="hyphen" format="2">
  <advance width="621"/>
  <unicode hex="002D"/>
  <outline>
    <contour>
      <point x="585" y="495" type="curve"/>
      <point x="558" y="526" type="line"/>
      <point x="77" y="526" type="line"/>
      <point x="63" y="503"/>
      <point x="29" y="448"/>
      <point x="20" y="422" type="curve"/>
      <point x="45" y="391" type="line"/>
      <point x="530" y="391" type="line"/>
      <point x="540" y="411"/>
      <point x="575" y="469"/>
    </contour>
  </outline>
</glyph>
<glyph name="period" format="2">
  <advance width="450"/>
  <unicode hex="002E"/>
  <outline>
    <contour>
      <point x="335" y="154" type="curve" smooth="yes"/>
      <point x="335" y="213"/>
      <point x="297" y="257"/>
      <point x="216" y="257" type="curve" smooth="yes"/>
      <point x="105" y="257"/>
      <point x="36" y="157"/>
      <point x="36" y="79" type="curve" smooth="yes"/>
      <point x="36" y="16"/>
      <point x="73" y="-27"/>
      <point x="157" y="-27" type="curve" smooth="yes"/>
      <point x="274" y="-27"/>
      <point x="335" y="72"/>
    </contour>
  </outline>
</glyph>
<glyph name="slash" format="2">
  <advance width="563"/>
  <unicode hex="002F"/>
  <outline>
    <contour>
      <point x="835" y="1258" type="line"/>
      <point x="724" y="1258" type="line"/>
      <point x="-86" y="-193" type="line"/>
      <point x="27" y="-193" type="line"/>
    </contour>
  </outline>
</glyph>
<glyph name="zero" format="2">
  <advance width="871"/>
  <unicode hex="0030"/>
  <outline>
    <contour>
      <point x="863" y="705" type="curve" smooth="yes"/>
      <point x="863" y="957"/>
      <point x="720" y="1111"/>
      <point x="552" y="1111" type="curve" smooth="yes"/>
      <point x="382" y="1111"/>
      <point x="245" y="1002"/>
      <point x="170" y="864" type="curve"/>
      <point x="85" y="705"/>
      <point x="52" y="583"/>
      <point x="52" y="379" type="curve" smooth="yes"/>
      <point x="52" y="165"/>
      <point x="179" y="-27"/>
      <point x="364" y="-27" type="curve" smooth="yes"/>
      <point x="531" y="-27"/>
      <point x="660" y="79"/>
      <point x="739" y="212" type="curve" smooth="yes"/>
      <point x="831" y="367"/>
      <point x="863" y="514"/>
    </contour>
    <contour>
      <point x="621" y="734" type="curve" smooth="yes"/>
      <point x="621" y="482"/>
      <point x="567" y="95"/>
      <point x="413" y="95" type="curve" smooth="yes"/>
      <point x="327" y="95"/>
      <point x="292" y="168"/>
      <point x="292" y="342" type="curve" smooth="yes"/>
      <point x="292" y="510"/>
      <point x="322" y="990"/>
      <point x="506" y="990" type="curve" smooth="yes"/>
      <point x="573" y="990"/>
      <point x="621" y="923"/>
    </contour>
  </outline>
</glyph>
<glyph name="one" format="2">
  <advance width="871"/>
  <unicode hex="0031"/>
  <outline>
    <contour>
      <point x="736" y="83" type="line"/>
      <point x="571" y="106"/>
      <point x="535" y="141"/>
      <point x="539" y="164" type="curve" smooth="yes"/>
      <point x="664" y="1080" type="line"/>
      <point x="630" y="1120" type="line"/>
      <point x="541" y="1083"/>
      <point x="270" y="987"/>
      <point x="171" y="967" type="curve"/>
      <point x="184" y="885" type="line"/>
      <point x="336" y="918"/>
      <point x="387" y="913"/>
      <point x="397" y="898" type="curve" smooth="yes"/>
      <point x="409" y="882"/>
      <point x="407" y="857"/>
      <point x="401" y="810" type="curve" smooth="yes"/>
      <point x="313" y="164" type="line" smooth="yes"/>
      <point x="309" y="139"/>
      <point x="253" y="106"/>
      <point x="74" y="83" type="curve"/>
      <point x="63" y="0" type="line"/>
      <point x="725" y="0" type="line"/>
    </contour>
  </outline>
</glyph>
<glyph name="two" format="2">
  <advance width="871"/>
  <unicode hex="0032"/>
  <outline>
    <contour>
      <point x="828" y="923" type="curve" smooth="yes"/>
      <point x="828" y="1066"/>
      <point x="698" y="1111"/>
      <point x="560" y="1111" type="curve" smooth="yes"/>
      <point x="340" y="1111"/>
      <point x="151" y="956"/>
      <point x="134" y="832" type="curve"/>
      <point x="157" y="760" type="line"/>
      <point x="207" y="765"/>
      <point x="333" y="800"/>
      <point x="371" y="822" type="curve"/>
      <point x="366" y="908"/>
      <point x="396" y="999"/>
      <point x="485" y="999" type="curve" smooth="yes"/>
      <point x="549" y="999"/>
      <point x="583" y="965"/>
      <point x="583" y="879" type="curve" smooth="yes"/>
      <point x="583" y="728"/>
      <point x="418" y="501"/>
      <point x="-9" y="66" type="curve"/>
      <point x="5" y="0" type="line"/>
      <point x="702" y="0" type="line"/>
      <point x="763" y="339" type="line"/>
      <point x="687" y="359" type="line"/>
      <point x="687" y="359"/>
      <point x="657" y="171"/>
      <point x="576" y="171" type="curve" smooth="yes"/>
      <point x="257" y="171" type="line"/>
      <point x="726" y="627"/>
      <point x="828" y="774"/>
    </contour>
  </outline>
</glyph>
<glyph name="three" format="2">
  <advance width="871"/>
  <unicode hex="0033"/>
  <outline>
    <contour>
      <point x="785" y="900" type="curve" smooth="yes"/>
      <point x="785" y="1009"/>
      <point x="726" y="1111"/>
      <point x="518" y="1111" type="curve" smooth="yes"/>
      <point x="311" y="1111"/>
      <point x="145" y="951"/>
      <point x="130" y="850" type="curve"/>
      <point x="153" y="786" type="line"/>
      <point x="210" y="788"/>
      <point x="321" y="828"/>
      <point x="370" y="857" type="curve"/>
      <point x="364" y="947"/>
      <point x="410" y="999"/>
      <point x="468" y="999" type="curve" smooth="yes"/>
      <point x="519" y="999"/>
      <point x="544" y="966"/>
      <point x="544" y="891" type="curve" smooth="yes"/>
      <point x="544" y="750"/>
      <point x="459" y="657"/>
      <point x="294" y="617" type="curve"/>
      <point x="299" y="527" type="line"/>
      <point x="333" y="533"/>
      <point x="342" y="533"/>
      <point x="370" y="533" type="curve" smooth="yes"/>
      <point x="458" y="533"/>
      <point x="518" y="481"/>
      <point x="518" y="360" type="curve" smooth="yes"/>
      <point x="518" y="206"/>
      <point x="425" y="109"/>
      <point x="318" y="109" type="curve" smooth="yes"/>
      <point x="235" y="109"/>
      <point x="147" y="139"/>
      <point x="60" y="221" type="curve"/>
      <point x="7" y="125" type="line"/>
      <point x="88" y="30"/>
      <point x="230" y="-27"/>
      <point x="315" y="-27" type="curve" smooth="yes"/>
      <point x="557" y="-27"/>
      <point x="764" y="160"/>
      <point x="764" y="385" type="curve" smooth="yes"/>
      <point x="764" y="504"/>
      <point x="706" y="613"/>
      <point x="579" y="628" type="curve"/>
      <point x="695" y="676"/>
      <point x="785" y="770"/>
    </contour>
  </outline>
</glyph>
<glyph name="four" format="2">
  <advance width="871"/>
  <unicode hex="0034"/>
  <outline>
    <contour>
      <point x="819" y="405" type="curve"/>
      <point x="801" y="432" type="line"/>
      <point x="681" y="432" type="line"/>
      <point x="770" y="1080" type="line"/>
      <point x="737" y="1120" type="line"/>
      <point x="680" y="1099"/>
      <point x="577" y="1067"/>
      <point x="520" y="1047" type="curve"/>
      <point x="24" y="335" type="line"/>
      <point x="54" y="297" type="line"/>
      <point x="446" y="297" type="line"/>
      <point x="424" y="139" type="line" smooth="yes"/>
      <point x="422" y="118"/>
      <point x="388" y="100"/>
      <point x="239" y="74" type="curve"/>
      <point x="229" y="0" type="line"/>
      <point x="739" y="0" type="line"/>
      <point x="749" y="74" type="line"/>
      <point x="659" y="97"/>
      <point x="637" y="111"/>
      <point x="639" y="129" type="curve" smooth="yes"/>
      <point x="663" y="297" type="line"/>
      <point x="714" y="297" type="line"/>
      <point x="742" y="317"/>
      <point x="791" y="366"/>
    </contour>
    <contour>
      <point x="523" y="864" type="line"/>
      <point x="464" y="432" type="line"/>
      <point x="229" y="432" type="line"/>
    </contour>
  </outline>
</glyph>
<glyph name="five" format="2">
  <advance width="871"/>
  <unicode hex="0035"/>
  <outline>
    <contour>
      <point x="853" y="1065" type="curve"/>
      <point x="823" y="1100" type="line"/>
      <point x="823" y="1100"/>
      <point x="784" y="1083"/>
      <point x="724" y="1083" type="curve" smooth="yes"/>
      <point x="257" y="1083" type="line"/>
      <point x="234" y="956"/>
      <point x="156" y="655"/>
      <point x="110" y="524" type="curve"/>
      <point x="148" y="495" type="line"/>
      <point x="212" y="542"/>
      <point x="279" y="576"/>
      <point x="377" y="576" type="curve" smooth="yes"/>
      <point x="478" y="576"/>
      <point x="543" y="499"/>
      <point x="543" y="381" type="curve" smooth="yes"/>
      <point x="543" y="223"/>
      <point x="443" y="100"/>
      <point x="327" y="100" type="curve" smooth="yes"/>
      <point x="251" y="100"/>
      <point x="172" y="123"/>
      <point x="63" y="207" type="curve"/>
      <point x="9" y="120" type="line"/>
      <point x="93" y="26"/>
      <point x="217" y="-27"/>
      <point x="325" y="-27" type="curve" smooth="yes"/>
      <point x="626" y="-27"/>
      <point x="775" y="214"/>
      <point x="775" y="429" type="curve" smooth="yes"/>
      <point x="775" y="571"/>
      <point x="681" y="720"/>
      <point x="470" y="720" type="curve" smooth="yes"/>
      <point x="397" y="720"/>
      <point x="324" y="702"/>
      <point x="279" y="678" type="curve"/>
      <point x="296" y="731"/>
      <point x="324" y="833"/>
      <point x="338" y="903" type="curve"/>
      <point x="710" y="903" type="line"/>
      <point x="738" y="924"/>
      <point x="826" y="1023"/>
    </contour>
  </outline>
</glyph>
<glyph name="six" format="2">
  <advance width="871"/>
  <unicode hex="0036"/>
  <outline>
    <contour>
      <point x="810" y="1035" type="curve"/>
      <point x="797" y="1124" type="line"/>
      <point x="306" y="1069"/>
      <point x="47" y="711"/>
      <point x="47" y="324" type="curve" smooth="yes"/>
      <point x="47" y="114"/>
      <point x="200" y="-27"/>
      <point x="382" y="-27" type="curve" smooth="yes"/>
      <point x="648" y="-27"/>
      <point x="807" y="239"/>
      <point x="807" y="434" type="curve" smooth="yes"/>
      <point x="807" y="595"/>
      <point x="701" y="711"/>
      <point x="539" y="711" type="curve" smooth="yes"/>
      <point x="443" y="711"/>
      <point x="321" y="638"/>
      <point x="218" y="511" type="curve"/>
      <point x="220" y="388" type="line"/>
      <point x="302" y="498"/>
      <point x="393" y="575"/>
      <point x="455" y="575" type="curve" smooth="yes"/>
      <point x="508" y="575"/>
      <point x="567" y="546"/>
      <point x="567" y="406" type="curve" smooth="yes"/>
      <point x="567" y="290"/>
      <point x="529" y="95"/>
      <point x="420" y="95" type="curve" smooth="yes"/>
      <point x="347" y="95"/>
      <point x="291" y="156"/>
      <point x="291" y="335" type="curve" smooth="yes"/>
      <point x="291" y="666"/>
      <point x="405" y="961"/>
    </contour>
  </outline>
</glyph>
<glyph name="seven" format="2">
  <advance width="871"/>
  <unicode hex="0037"/>
  <outline>
    <contour>
      <point x="904" y="1050" type="curve"/>
      <point x="881" y="1083" type="line"/>
      <point x="189" y="1083" type="line"/>
      <point x="169" y="1030"/>
      <point x="117" y="837"/>
      <point x="103" y="781" type="curve"/>
      <point x="164" y="756" type="line"/>
      <point x="231" y="895"/>
      <point x="276" y="904"/>
      <point x="309" y="904" type="curve" smooth="yes"/>
      <point x="690" y="904" type="line"/>
      <point x="526" y="598"/>
      <point x="407" y="378"/>
      <point x="162" y="11" type="curve"/>
      <point x="200" y="-27" type="line"/>
      <point x="258" y="-11"/>
      <point x="369" y="18"/>
      <point x="414" y="48" type="curve"/>
      <point x="498" y="240"/>
      <point x="696" y="663"/>
    </contour>
  </outline>
</glyph>
<glyph name="eight" format="2">
  <advance width="871"/>
  <unicode hex="0038"/>
  <outline>
    <contour>
      <point x="839" y="900" type="curve" smooth="yes"/>
      <point x="839" y="1023"/>
      <point x="755" y="1111"/>
      <point x="553" y="1111" type="curve" smooth="yes"/>
      <point x="337" y="1111"/>
      <point x="152" y="976"/>
      <point x="152" y="800" type="curve" smooth="yes"/>
      <point x="152" y="489"/>
      <point x="559" y="585"/>
      <point x="559" y="307" type="curve" smooth="yes"/>
      <point x="559" y="200"/>
      <point x="495" y="90"/>
      <point x="399" y="90" type="curve" smooth="yes"/>
      <point x="337" y="90"/>
      <point x="277" y="144"/>
      <point x="277" y="246" type="curve" smooth="yes"/>
      <point x="277" y="376"/>
      <point x="353" y="471"/>
      <point x="446" y="552" type="curve"/>
      <point x="348" y="585" type="line"/>
      <point x="195" y="513"/>
      <point x="29" y="392"/>
      <point x="29" y="225" type="curve" smooth="yes"/>
      <point x="29" y="91"/>
      <point x="132" y="-27"/>
      <point x="369" y="-27" type="curve" smooth="yes"/>
      <point x="593" y="-27"/>
      <point x="806" y="153"/>
      <point x="806" y="357" type="curve" smooth="yes"/>
      <point x="806" y="697"/>
      <point x="375" y="632"/>
      <point x="375" y="846" type="curve" smooth="yes"/>
      <point x="375" y="919"/>
      <point x="432" y="999"/>
      <point x="500" y="999" type="curve" smooth="yes"/>
      <point x="567" y="999"/>
      <point x="605" y="956"/>
      <point x="605" y="877" type="curve" smooth="yes"/>
      <point x="605" y="763"/>
      <point x="532" y="693"/>
      <point x="468" y="638" type="curve"/>
      <point x="564" y="599" type="line"/>
      <point x="675" y="666"/>
      <point x="839" y="756"/>
    </contour>
  </outline>
</glyph>
<glyph name="nine" format="2">
  <advance width="711"/>
  <unicode hex="0039"/>
  <outline>
    <contour>
      <point x="538" y="922" type="curve" smooth="yes"/>
      <point x="296" y="922"/>
      <point x="159" y="680"/>
      <point x="159" y="525" type="curve" smooth="yes"/>
      <point x="159" y="481"/>
      <point x="170" y="439"/>
      <point x="191" y="400" type="curve" smooth="yes"/>
      <point x="222" y="343"/>
      <point x="281" y="314"/>
      <point x="368" y="314" type="curve" smooth="yes"/>
      <point x="457" y="314"/>
      <point x="528" y="345"/>
      <point x="558" y="365" type="curve"/>
      <point x="521" y="303"/>
      <point x="470" y="239"/>
      <point x="406" y="172" type="curve" smooth="yes"/>
      <point x="332" y="96"/>
      <point x="224" y="47"/>
      <point x="81" y="25" type="curve"/>
      <point x="75" y="-31" type="line"/>
      <point x="421" y="-31"/>
      <point x="782" y="293"/>
      <point x="782" y="642" type="curve" smooth="yes"/>
      <point x="782" y="786"/>
      <point x="707" y="922"/>
    </contour>
    <contour>
      <point x="322" y="546" type="curve" smooth="yes"/>
      <point x="322" y="575"/>
      <point x="340" y="854"/>
      <point x="508" y="854" type="curve" smooth="yes"/>
      <point x="610" y="854"/>
      <point x="627" y="760"/>
      <point x="627" y="698" type="curve" smooth="yes"/>
      <point x="627" y="646"/>
      <point x="608" y="517"/>
      <point x="595" y="482" type="curve" smooth="yes"/>
      <point x="564" y="401"/>
      <point x="442" y="398"/>
      <point x="440" y="398" type="curve" smooth="yes"/>
      <point x="369" y="398"/>
      <point x="322" y="429"/>
    </contour>
  </outline>
</glyph>
<glyph name="colon" format="2">
  <advance width="450"/>
  <unicode hex="003A"/>
  <outline>
    <contour>
      <point x="238" y="584" type="curve" smooth="yes"/>
      <point x="355" y="584"/>
      <point x="416" y="684"/>
      <point x="416" y="766" type="curve" smooth="yes"/>
      <point x="416" y="825"/>
      <point x="378" y="869"/>
      <point x="297" y="869" type="curve" smooth="yes"/>
      <point x="186" y="869"/>
      <point x="117" y="769"/>
      <point x="117" y="691" type="curve" smooth="yes"/>
      <point x="117" y="628"/>
      <point x="154" y="584"/>
    </contour>
    <contour>
      <point x="157" y="-27" type="curve" smooth="yes"/>
      <point x="274" y="-27"/>
      <point x="335" y="72"/>
      <point x="335" y="154" type="curve" smooth="yes"/>
      <point x="335" y="213"/>
      <point x="297" y="257"/>
      <point x="216" y="257" type="curve" smooth="yes"/>
      <point x="105" y="257"/>
      <point x="36" y="157"/>
      <point x="36" y="79" type="curve" smooth="yes"/>
      <point x="36" y="16"/>
      <point x="73" y="-27"/>
    </contour>
  </outline>
</glyph>
<glyph name="semicolon" format="2">
  <advance width="409"/>
  <unicode hex="003B"/>
  <outline>
    <contour>
      <point x="31" y="-315" type="line"/>
      <point x="157" y="-239"/>
      <point x="315" y="-27"/>
      <point x="315" y="100" type="curve"/>
      <point x="315" y="174"/>
      <point x="296" y="200"/>
      <point x="253" y="224" type="curve"/>
      <point x="205" y="224"/>
      <point x="55" y="162"/>
      <point x="20" y="129" type="curve"/>
      <point x="25" y="69" type="line"/>
      <point x="97" y="78"/>
      <point x="125" y="30"/>
      <point x="125" y="-13" type="curve" smooth="yes"/>
      <point x="125" y="-82"/>
      <point x="79" y="-177"/>
      <point x="-12" y="-274" type="curve"/>
    </contour>
    <contour>
      <point x="226" y="599" type="curve" smooth="yes"/>
      <point x="325" y="599"/>
      <point x="382" y="694"/>
      <point x="382" y="772" type="curve"/>
      <point x="382" y="827"/>
      <point x="347" y="866"/>
      <point x="285" y="866" type="curve" smooth="yes"/>
      <point x="192" y="866"/>
      <point x="128" y="770"/>
      <point x="128" y="697" type="curve" smooth="yes"/>
      <point x="128" y="639"/>
      <point x="160" y="599"/>
    </contour>
  </outline>
</glyph>
<glyph name="less" format="2">
  <advance width="810"/>
  <unicode hex="003C"/>
  <outline>
    <contour>
      <point x="606" y="212" type="line"/>
      <point x="642" y="234"/>
      <point x="684" y="278"/>
      <point x="711" y="302" type="curve"/>
      <point x="695" y="343" type="line"/>
      <point x="288" y="512" type="line"/>
      <point x="731" y="678" type="line"/>
      <point x="740" y="701"/>
      <point x="771" y="777"/>
      <point x="780" y="802" type="curve"/>
      <point x="755" y="834" type="line"/>
      <point x="103" y="588" type="line"/>
      <point x="89" y="558"/>
      <point x="65" y="504"/>
      <point x="54" y="472" type="curve"/>
      <point x="76" y="432" type="line"/>
    </contour>
  </outline>
</glyph>
<glyph name="equal" format="2">
  <advance width="810"/>
  <unicode hex="003D"/>
  <outline>
    <contour>
      <point x="728" y="410" type="curve"/>
      <point x="703" y="441" type="line"/>
      <point x="92" y="441" type="line"/>
      <point x="79" y="417"/>
      <point x="45" y="358"/>
      <point x="36" y="332" type="curve"/>
      <point x="59" y="301" type="line"/>
      <point x="671" y="301" type="line"/>
      <point x="682" y="321"/>
      <point x="718" y="384"/>
    </contour>
    <contour>
      <point x="765" y="680" type="curve"/>
      <point x="740" y="711" type="line"/>
      <point x="129" y="711" type="line"/>
      <point x="116" y="687"/>
      <point x="81" y="628"/>
      <point x="72" y="602" type="curve"/>
      <point x="96" y="571" type="line"/>
      <point x="708" y="571" type="line"/>
      <point x="719" y="591"/>
      <point x="755" y="654"/>
    </contour>
  </outline>
</glyph>
<glyph name="greater" format="2">
  <advance width="810"/>
  <unicode hex="003E"/>
  <outline>
    <contour>
      <point x="724" y="614" type="line"/>
      <point x="195" y="834" type="line"/>
      <point x="159" y="811"/>
      <point x="117" y="768"/>
      <point x="90" y="744" type="curve"/>
      <point x="106" y="702" type="line"/>
      <point x="513" y="534" type="line"/>
      <point x="71" y="368" type="line"/>
      <point x="61" y="345"/>
      <point x="30" y="269"/>
      <point x="22" y="243" type="curve"/>
      <point x="45" y="212" type="line"/>
      <point x="698" y="458" type="line"/>
      <point x="713" y="487"/>
      <point x="735" y="540"/>
      <point x="747" y="574" type="curve"/>
    </contour>
  </outline>
</glyph>
<glyph name="question" format="2">
  <advance width="770"/>
  <unicode hex="003F"/>
  <outline>
    <contour>
      <point x="777" y="1067" type="curve"/>
      <point x="777" y="1188"/>
      <point x="693" y="1287"/>
      <point x="531" y="1287" type="curve" smooth="yes"/>
      <point x="294" y="1287"/>
      <point x="136" y="1120"/>
      <point x="136" y="967" type="curve"/>
      <point x="159" y="935" type="line"/>
      <point x="211" y="940"/>
      <point x="288" y="959"/>
      <point x="340" y="983" type="curve"/>
      <point x="336" y="1003"/>
      <point x="334" y="1022"/>
      <point x="334" y="1040" type="curve" smooth="yes"/>
      <point x="334" y="1127"/>
      <point x="378" y="1192"/>
      <point x="450" y="1192" type="curve" smooth="yes"/>
      <point x="535" y="1192"/>
      <point x="579" y="1120"/>
      <point x="579" y="1015" type="curve" smooth="yes"/>
      <point x="579" y="800"/>
      <point x="310" y="682"/>
      <point x="300" y="450" type="curve" smooth="yes"/>
      <point x="296" y="341" type="line"/>
      <point x="316" y="322" type="line"/>
      <point x="346" y="331"/>
      <point x="380" y="347"/>
      <point x="401" y="363" type="curve"/>
      <point x="412" y="445" type="line" smooth="yes"/>
      <point x="442" y="685"/>
      <point x="777" y="759"/>
    </contour>
    <contour>
      <point x="443" y="145" type="curve"/>
      <point x="443" y="199"/>
      <point x="409" y="239"/>
      <point x="346" y="239" type="curve" smooth="yes"/>
      <point x="252" y="239"/>
      <point x="189" y="144"/>
      <point x="189" y="70" type="curve" smooth="yes"/>
      <point x="189" y="11"/>
      <point x="222" y="-27"/>
      <point x="287" y="-27" type="curve" smooth="yes"/>
      <point x="386" y="-27"/>
      <point x="443" y="67"/>
    </contour>
  </outline>
</glyph>
<glyph name="at" format="2">
  <advance width="1556"/>
  <unicode hex="0040"/>
  <outline>
    <contour>
      <point x="1493" y="494" type="curve"/>
      <point x="1557" y="944"/>
      <point x="1280" y="1199"/>
      <point x="935" y="1199" type="curve" smooth="yes"/>
      <point x="477" y="1199"/>
      <point x="110" y="823"/>
      <point x="54" y="418" type="curve" smooth="yes"/>
      <point x="-10" y="-42"/>
      <point x="312" y="-337"/>
      <point x="728" y="-337" type="curve" smooth="yes"/>
      <point x="1004" y="-337"/>
      <point x="1220" y="-187"/>
      <point x="1312" y="-96" type="curve"/>
      <point x="1279" y="-1" type="line"/>
      <point x="1204" y="-63"/>
      <point x="1001" y="-185"/>
      <point x="803" y="-185" type="curve" smooth="yes"/>
      <point x="523" y="-185"/>
      <point x="234" y="18"/>
      <point x="294" y="453" type="curve"/>
      <point x="341" y="777"/>
      <point x="571" y="1056"/>
      <point x="859" y="1056" type="curve" smooth="yes"/>
      <point x="1125" y="1056"/>
      <point x="1339" y="864"/>
      <point x="1278" y="459" type="curve" smooth="yes"/>
      <point x="1247" y="254"/>
      <point x="1200" y="165"/>
      <point x="1139" y="165" type="curve" smooth="yes"/>
      <point x="1110" y="165"/>
      <point x="1089" y="204"/>
      <point x="1089" y="278" type="curve" smooth="yes"/>
      <point x="1089" y="331"/>
      <point x="1107" y="476"/>
      <point x="1143" y="648" type="curve"/>
      <point x="1160" y="729"/>
      <point x="1174" y="741"/>
      <point x="1215" y="774" type="curve"/>
      <point x="1183" y="842" type="line"/>
      <point x="1102" y="803"/>
      <point x="928" y="747"/>
      <point x="917" y="693" type="curve"/>
      <point x="904" y="622"/>
      <point x="849" y="322"/>
      <point x="849" y="252" type="curve" smooth="yes"/>
      <point x="849" y="12"/>
      <point x="942" y="-36"/>
      <point x="984" y="-36" type="curve" smooth="yes"/>
      <point x="1126" y="-36"/>
      <point x="1450" y="182"/>
    </contour>
    <contour>
      <point x="1133" y="762" type="curve"/>
      <point x="1090" y="767"/>
      <point x="1008" y="842"/>
      <point x="927" y="842" type="curve" smooth="yes"/>
      <point x="851" y="842"/>
      <point x="730" y="801"/>
      <point x="666" y="757" type="curve" smooth="yes"/>
      <point x="496" y="641"/>
      <point x="397" y="464"/>
      <point x="397" y="274" type="curve" smooth="yes"/>
      <point x="397" y="49"/>
      <point x="526" y="-36"/>
      <point x="607" y="-36" type="curve" smooth="yes"/>
      <point x="693" y="-36"/>
      <point x="811" y="61"/>
      <point x="871" y="170" type="curve"/>
      <point x="885" y="348" type="line"/>
      <point x="791" y="202"/>
      <point x="727" y="158"/>
      <point x="691" y="158" type="curve" smooth="yes"/>
      <point x="666" y="158"/>
      <point x="629" y="213"/>
      <point x="629" y="341" type="curve" smooth="yes"/>
      <point x="629" y="483"/>
      <point x="689" y="702"/>
      <point x="826" y="702" type="curve" smooth="yes"/>
      <point x="905" y="702"/>
      <point x="997" y="549"/>
      <point x="1030" y="549" type="curve" smooth="yes"/>
      <point x="1060" y="549"/>
      <point x="1081" y="727"/>
    </contour>
  </outline>
</glyph>
<glyph name="A" format="2">
  <advance width="1089"/>
  <unicode hex="0041"/>
  <outline>
    <contour>
      <point x="386" y="499" type="line"/>
      <point x="560" y="902" type="line"/>
      <point x="640" y="499" type="line"/>
    </contour>
    <contour>
      <point x="663" y="381" type="line"/>
      <point x="711" y="135" type="line" smooth="yes"/>
      <point x="718" y="96"/>
      <point x="688" y="80"/>
      <point x="601" y="74" type="curve"/>
      <point x="591" y="0" type="line"/>
      <point x="1028" y="0" type="line"/>
      <point x="1038" y="74" type="line"/>
      <point x="967" y="83"/>
      <point x="951" y="102"/>
      <point x="945" y="135" type="curve" smooth="yes"/>
      <point x="738" y="1185" type="line"/>
      <point x="667" y="1166"/>
      <point x="576" y="1132"/>
      <point x="507" y="1077" type="curve"/>
      <point x="92" y="135" type="line" smooth="yes"/>
      <point x="76" y="99"/>
      <point x="37" y="89"/>
      <point x="-39" y="74" type="curve"/>
      <point x="-49" y="0" type="line"/>
      <point x="322" y="0" type="line"/>
      <point x="332" y="74" type="line"/>
      <point x="243" y="85"/>
      <point x="207" y="99"/>
      <point x="224" y="135" type="curve" smooth="yes"/>
      <point x="333" y="381" type="line"/>
    </contour>
  </outline>
</glyph>
<glyph name="B" format="2">
  <advance width="957"/>
  <unicode hex="0042"/>
  <outline>
    <contour>
      <point x="895" y="369" type="curve"/>
      <point x="895" y="512"/>
      <point x="803" y="628"/>
      <point x="672" y="650" type="curve"/>
      <point x="807" y="701"/>
      <point x="889" y="810"/>
      <point x="889" y="936" type="curve" smooth="yes"/>
      <point x="889" y="1076"/>
      <point x="767" y="1161"/>
      <point x="538" y="1161" type="curve" smooth="yes"/>
      <point x="372" y="1161"/>
      <point x="233" y="1135"/>
      <point x="122" y="1104" type="curve"/>
      <point x="122" y="1035" type="line"/>
      <point x="213" y="1055"/>
      <point x="311" y="1071"/>
      <point x="505" y="1071" type="curve" smooth="yes"/>
      <point x="588" y="1071"/>
      <point x="695" y="1026"/>
      <point x="695" y="888" type="curve" smooth="yes"/>
      <point x="695" y="716"/>
      <point x="553" y="661"/>
      <point x="412" y="661" type="curve" smooth="yes"/>
      <point x="330" y="661" type="line"/>
      <point x="328" y="555" type="line"/>
      <point x="371" y="567"/>
      <point x="412" y="575"/>
      <point x="484" y="575" type="curve" smooth="yes"/>
      <point x="644" y="575"/>
      <point x="700" y="457"/>
      <point x="700" y="337" type="curve" smooth="yes"/>
      <point x="700" y="191"/>
      <point x="613" y="65"/>
      <point x="465" y="65" type="curve" smooth="yes"/>
      <point x="407" y="65"/>
      <point x="340" y="74"/>
      <point x="297" y="106" type="curve"/>
      <point x="50" y="0" type="line"/>
      <point x="151" y="-9"/>
      <point x="350" y="-27"/>
      <point x="433" y="-27" type="curve"/>
      <point x="687" y="-27"/>
      <point x="895" y="135"/>
    </contour>
    <contour>
      <point x="447" y="1125" type="line"/>
      <point x="264" y="1125" type="line"/>
      <point x="123" y="111" type="line" smooth="yes"/>
      <point x="121" y="94"/>
      <point x="76" y="72"/>
      <point x="1" y="56" type="curve"/>
      <point x="-4" y="0" type="line"/>
      <point x="412" y="0" type="line"/>
      <point x="417" y="56" type="line"/>
      <point x="342" y="72"/>
      <point x="305" y="96"/>
      <point x="306" y="111" type="curve" smooth="yes"/>
    </contour>
  </outline>
</glyph>
<glyph name="C" format="2">
  <advance width="949"/>
  <unicode hex="0043"/>
  <outline>
    <contour>
      <point x="986" y="1071" type="curve" smooth="yes"/>
      <point x="935" y="1120"/>
      <point x="804" y="1161"/>
      <point x="686" y="1161" type="curve" smooth="yes"/>
      <point x="574" y="1161"/>
      <point x="435" y="1118"/>
      <point x="348" y="1050" type="curve" smooth="yes"/>
      <point x="145" y="890"/>
      <point x="50" y="639"/>
      <point x="50" y="413" type="curve" smooth="yes"/>
      <point x="50" y="135"/>
      <point x="221" y="-24"/>
      <point x="438" y="-24" type="curve" smooth="yes"/>
      <point x="550" y="-24"/>
      <point x="715" y="28"/>
      <point x="879" y="189" type="curve"/>
      <point x="878" y="206"/>
      <point x="854" y="248"/>
      <point x="844" y="257" type="curve"/>
      <point x="692" y="150"/>
      <point x="601" y="131"/>
      <point x="542" y="131" type="curve" smooth="yes"/>
      <point x="441" y="131"/>
      <point x="294" y="202"/>
      <point x="294" y="464" type="curve" smooth="yes"/>
      <point x="294" y="615"/>
      <point x="335" y="872"/>
      <point x="486" y="990" type="curve" smooth="yes"/>
      <point x="534" y="1026"/>
      <point x="569" y="1034"/>
      <point x="617" y="1034" type="curve" smooth="yes"/>
      <point x="715" y="1034"/>
      <point x="775" y="952"/>
      <point x="801" y="868" type="curve"/>
      <point x="864" y="852" type="line"/>
      <point x="896" y="879"/>
      <point x="996" y="1061"/>
    </contour>
  </outline>
</glyph>
<glyph name="D" format="2">
  <advance width="1114"/>
  <unicode hex="0044"/>
  <outline>
    <contour>
      <point x="1095" y="679" type="curve" smooth="yes"/>
      <point x="1095" y="976"/>
      <point x="935" y="1161"/>
      <point x="563" y="1161" type="curve" smooth="yes"/>
      <point x="440" y="1161"/>
      <point x="256" y="1139"/>
      <point x="119" y="1106" type="curve"/>
      <point x="119" y="1013" type="line"/>
      <point x="243" y="1033" type="line"/>
      <point x="117" y="129" type="line" smooth="yes"/>
      <point x="116" y="113"/>
      <point x="75" y="90"/>
      <point x="0" y="74" type="curve"/>
      <point x="-9" y="0" type="line"/>
      <point x="468" y="0" type="line" smooth="yes"/>
      <point x="849" y="0"/>
      <point x="1095" y="362"/>
    </contour>
    <contour>
      <point x="534" y="1058" type="curve" smooth="yes"/>
      <point x="760" y="1058"/>
      <point x="841" y="910"/>
      <point x="841" y="654" type="curve" smooth="yes"/>
      <point x="841" y="401"/>
      <point x="706" y="102"/>
      <point x="463" y="102" type="curve" smooth="yes"/>
      <point x="381" y="102"/>
      <point x="354" y="117"/>
      <point x="359" y="152" type="curve" smooth="yes"/>
      <point x="480" y="1053" type="line"/>
      <point x="498" y="1054"/>
      <point x="516" y="1058"/>
    </contour>
  </outline>
</glyph>
<glyph name="E" format="2">
  <advance width="889"/>
  <unicode hex="0045"/>
  <outline>
    <contour>
      <point x="889" y="1107" type="curve"/>
      <point x="862" y="1134" type="line"/>
      <point x="430" y="1134" type="line"/>
      <point x="392" y="1034" type="line"/>
      <point x="722" y="1034" type="line" smooth="yes"/>
      <point x="764" y="1034"/>
      <point x="779" y="983"/>
      <point x="768" y="873" type="curve"/>
      <point x="823" y="873" type="line"/>
      <point x="843" y="918"/>
      <point x="877" y="1045"/>
    </contour>
    <contour>
      <point x="739" y="631" type="curve"/>
      <point x="717" y="661" type="line"/>
      <point x="349" y="661" type="line"/>
      <point x="319" y="571" type="line"/>
      <point x="462" y="571" type="line" smooth="yes"/>
      <point x="576" y="571"/>
      <point x="614" y="559"/>
      <point x="648" y="522" type="curve"/>
      <point x="674" y="541"/>
      <point x="717" y="598"/>
    </contour>
    <contour>
      <point x="824" y="255" type="curve"/>
      <point x="774" y="276" type="line"/>
      <point x="707" y="135"/>
      <point x="670" y="99"/>
      <point x="568" y="99" type="curve" smooth="yes"/>
      <point x="477" y="99" type="line" smooth="yes"/>
      <point x="331" y="99"/>
      <point x="310" y="121"/>
      <point x="315" y="156" type="curve" smooth="yes"/>
      <point x="436" y="1040" type="line" smooth="yes"/>
      <point x="438" y="1057"/>
      <point x="485" y="1069"/>
      <point x="562" y="1077" type="curve"/>
      <point x="570" y="1134" type="line"/>
      <point x="151" y="1134" type="line"/>
      <point x="143" y="1077" type="line"/>
      <point x="220" y="1060"/>
      <point x="254" y="1035"/>
      <point x="252" y="1021" type="curve" smooth="yes"/>
      <point x="126" y="111" type="line" smooth="yes"/>
      <point x="125" y="95"/>
      <point x="79" y="72"/>
      <point x="3" y="56" type="curve"/>
      <point x="-4" y="0" type="line"/>
      <point x="755" y="0" type="line"/>
      <point x="769" y="35"/>
      <point x="801" y="152"/>
    </contour>
  </outline>
</glyph>
<glyph name="F" format="2">
  <advance width="876"/>
  <unicode hex="0046"/>
  <outline>
    <contour>
      <point x="942" y="1102" type="curve"/>
      <point x="912" y="1134" type="line"/>
      <point x="474" y="1134" type="line"/>
      <point x="433" y="1017" type="line"/>
      <point x="756" y="1017" type="line" smooth="yes"/>
      <point x="799" y="1017"/>
      <point x="812" y="947"/>
      <point x="801" y="837" type="curve"/>
      <point x="873" y="837" type="line"/>
      <point x="893" y="882"/>
      <point x="932" y="1041"/>
    </contour>
    <contour>
      <point x="761" y="627" type="curve"/>
      <point x="733" y="661" type="line"/>
      <point x="368" y="661" type="line"/>
      <point x="232" y="553" type="line"/>
      <point x="507" y="553" type="line" smooth="yes"/>
      <point x="601" y="553"/>
      <point x="638" y="539"/>
      <point x="666" y="504" type="curve"/>
      <point x="692" y="522"/>
      <point x="735" y="585"/>
    </contour>
    <contour>
      <point x="614" y="1134" type="line"/>
      <point x="145" y="1134" type="line"/>
      <point x="135" y="1059" type="line"/>
      <point x="213" y="1042"/>
      <point x="243" y="1017"/>
      <point x="241" y="1003" type="curve" smooth="yes"/>
      <point x="121" y="129" type="line" smooth="yes"/>
      <point x="119" y="113"/>
      <point x="78" y="90"/>
      <point x="0" y="74" type="curve"/>
      <point x="-9" y="0" type="line"/>
      <point x="477" y="0" type="line"/>
      <point x="486" y="74" type="line"/>
      <point x="379" y="97"/>
      <point x="353" y="115"/>
      <point x="355" y="129" type="curve" smooth="yes"/>
      <point x="477" y="1023" type="line" smooth="yes"/>
      <point x="479" y="1039"/>
      <point x="526" y="1051"/>
      <point x="604" y="1059" type="curve"/>
    </contour>
  </outline>
</glyph>
<glyph name="G" format="2">
  <advance width="994"/>
  <unicode hex="0047"/>
  <anchor x="481" y="0" name="H"/>
  <anchor x="657" y="1188" name="U"/>
  <outline>
    <contour>
      <point x="994" y="546" type="line"/>
      <point x="534" y="546" type="line"/>
      <point x="528" y="489" type="line"/>
      <point x="709" y="461"/>
      <point x="723" y="441"/>
      <point x="719" y="415" type="curve" smooth="yes"/>
      <point x="682" y="149" type="line"/>
      <point x="639" y="118"/>
      <point x="584" y="106"/>
      <point x="535" y="106" type="curve" smooth="yes"/>
      <point x="402" y="106"/>
      <point x="247" y="216"/>
      <point x="247" y="473" type="curve" smooth="yes"/>
      <point x="247" y="640"/>
      <point x="320" y="871"/>
      <point x="423" y="963" type="curve" smooth="yes"/>
      <point x="485" y="1018"/>
      <point x="549" y="1049"/>
      <point x="600" y="1049" type="curve" smooth="yes"/>
      <point x="716" y="1049"/>
      <point x="783" y="995"/>
      <point x="832" y="911" type="curve"/>
      <point x="875" y="901" type="line"/>
      <point x="909" y="928"/>
      <point x="999" y="1056"/>
      <point x="985" y="1069" type="curve"/>
      <point x="924" y="1127"/>
      <point x="798" y="1161"/>
      <point x="718" y="1161" type="curve" smooth="yes"/>
      <point x="555" y="1161"/>
      <point x="431" y="1108"/>
      <point x="329" y="1024" type="curve" smooth="yes"/>
      <point x="169" y="892"/>
      <point x="59" y="663"/>
      <point x="59" y="434" type="curve" smooth="yes"/>
      <point x="59" y="145"/>
      <point x="252" y="-27"/>
      <point x="465" y="-27" type="curve" smooth="yes"/>
      <point x="562" y="-27"/>
      <point x="676" y="1"/>
      <point x="858" y="147" type="curve"/>
      <point x="864" y="193"/>
      <point x="884" y="351"/>
      <point x="893" y="415" type="curve" smooth="yes"/>
      <point x="896" y="442"/>
      <point x="923" y="470"/>
      <point x="988" y="489" type="curve"/>
    </contour>
  </outline>
</glyph>
<glyph name="H" format="2">
  <advance width="1196"/>
  <unicode hex="0048"/>
  <outline>
    <contour>
      <point x="1250" y="1134" type="line"/>
      <point x="789" y="1134" type="line"/>
      <point x="779" y="1059" type="line"/>
      <point x="857" y="1042"/>
      <point x="886" y="1017"/>
      <point x="884" y="1003" type="curve" smooth="yes"/>
      <point x="765" y="129" type="line" smooth="yes"/>
      <point x="763" y="113"/>
      <point x="721" y="90"/>
      <point x="644" y="74" type="curve"/>
      <point x="634" y="0" type="line"/>
      <point x="1095" y="0" type="line"/>
      <point x="1105" y="74" type="line"/>
      <point x="1026" y="90"/>
      <point x="997" y="115"/>
      <point x="999" y="129" type="curve" smooth="yes"/>
      <point x="1118" y="1003" type="line" smooth="yes"/>
      <point x="1121" y="1020"/>
      <point x="1161" y="1042"/>
      <point x="1240" y="1059" type="curve"/>
    </contour>
    <contour>
      <point x="853" y="652" type="line"/>
      <point x="403" y="652" type="line"/>
      <point x="387" y="535" type="line"/>
      <point x="837" y="535" type="line"/>
    </contour>
    <contour>
      <point x="605" y="1134" type="line"/>
      <point x="144" y="1134" type="line"/>
      <point x="135" y="1059" type="line"/>
      <point x="212" y="1042"/>
      <point x="242" y="1017"/>
      <point x="240" y="1003" type="curve" smooth="yes"/>
      <point x="120" y="129" type="line" smooth="yes"/>
      <point x="118" y="113"/>
      <point x="77" y="90"/>
      <point x="0" y="74" type="curve"/>
      <point x="-9" y="0" type="line"/>
      <point x="450" y="0" type="line"/>
      <point x="460" y="74" type="line"/>
      <point x="380" y="90"/>
      <point x="352" y="115"/>
      <point x="354" y="129" type="curve" smooth="yes"/>
      <point x="474" y="1003" type="line" smooth="yes"/>
      <point x="477" y="1020"/>
      <point x="517" y="1042"/>
      <point x="595" y="1059" type="curve"/>
    </contour>
  </outline>
</glyph>
<glyph name="I" format="2">
  <advance width="586"/>
  <unicode hex="0049"/>
  <outline>
    <contour>
      <point x="623" y="1134" type="line"/>
      <point x="163" y="1134" type="line"/>
      <point x="153" y="1059" type="line"/>
      <point x="231" y="1042"/>
      <point x="260" y="1017"/>
      <point x="258" y="1003" type="curve" smooth="yes"/>
      <point x="138" y="129" type="line" smooth="yes"/>
      <point x="136" y="113"/>
      <point x="95" y="90"/>
      <point x="18" y="74" type="curve"/>
      <point x="9" y="0" type="line"/>
      <point x="468" y="0" type="line"/>
      <point x="478" y="74" type="line"/>
      <point x="400" y="90"/>
      <point x="371" y="115"/>
      <point x="373" y="129" type="curve" smooth="yes"/>
      <point x="493" y="1003" type="line" smooth="yes"/>
      <point x="495" y="1020"/>
      <point x="536" y="1042"/>
      <point x="613" y="1059" type="curve"/>
    </contour>
  </outline>
</glyph>
<glyph name="J" format="2">
  <advance width="592"/>
  <unicode hex="004A"/>
  <outline>
    <contour>
      <point x="647" y="1134" type="line"/>
      <point x="142" y="1134" type="line"/>
      <point x="132" y="1059" type="line"/>
      <point x="261" y="1038"/>
      <point x="281" y="1017"/>
      <point x="279" y="1003" type="curve" smooth="yes"/>
      <point x="159" y="119" type="line" smooth="yes"/>
      <point x="120" y="-162"/>
      <point x="56" y="-196"/>
      <point x="0" y="-196" type="curve" smooth="yes"/>
      <point x="-73" y="-196"/>
      <point x="-132" y="-108"/>
      <point x="-155" y="-108" type="curve" smooth="yes"/>
      <point x="-185" y="-108"/>
      <point x="-327" y="-244"/>
      <point x="-327" y="-270" type="curve" smooth="yes"/>
      <point x="-327" y="-300"/>
      <point x="-225" y="-360"/>
      <point x="-130" y="-360" type="curve" smooth="yes"/>
      <point x="-47" y="-360"/>
      <point x="70" y="-310"/>
      <point x="135" y="-260" type="curve" smooth="yes"/>
      <point x="233" y="-184"/>
      <point x="369" y="-78"/>
      <point x="405" y="184" type="curve" smooth="yes"/>
      <point x="513" y="1003" type="line" smooth="yes"/>
      <point x="516" y="1020"/>
      <point x="559" y="1042"/>
      <point x="635" y="1059" type="curve"/>
    </contour>
  </outline>
</glyph>
<glyph name="K" format="2">
  <advance width="1053"/>
  <unicode hex="004B"/>
  <outline>
    <contour>
      <point x="1093" y="1134" type="line"/>
      <point x="728" y="1134" type="line"/>
      <point x="720" y="1077" type="line"/>
      <point x="805" y="1069"/>
      <point x="818" y="1061"/>
      <point x="757" y="997" type="curve"/>
      <point x="364" y="578" type="line"/>
      <point x="493" y="578" type="line"/>
      <point x="945" y="1021" type="line" smooth="yes"/>
      <point x="984" y="1060"/>
      <point x="1012" y="1067"/>
      <point x="1085" y="1077" type="curve"/>
    </contour>
    <contour>
      <point x="1035" y="108" type="curve"/>
      <point x="1013" y="162" type="line"/>
      <point x="931" y="128"/>
      <point x="871" y="124"/>
      <point x="839" y="168" type="curve"/>
      <point x="491" y="648" type="line"/>
      <point x="364" y="578" type="line"/>
      <point x="695" y="36" type="line" smooth="yes"/>
      <point x="720" y="-2"/>
      <point x="741" y="-12"/>
      <point x="776" y="-12" type="curve" smooth="yes"/>
      <point x="826" y="-12"/>
      <point x="954" y="44"/>
    </contour>
    <contour>
      <point x="566" y="1134" type="line"/>
      <point x="151" y="1134" type="line"/>
      <point x="143" y="1077" type="line"/>
      <point x="220" y="1060"/>
      <point x="254" y="1035"/>
      <point x="252" y="1021" type="curve" smooth="yes"/>
      <point x="126" y="111" type="line" smooth="yes"/>
      <point x="125" y="95"/>
      <point x="79" y="72"/>
      <point x="3" y="56" type="curve"/>
      <point x="-4" y="0" type="line"/>
      <point x="410" y="0" type="line"/>
      <point x="418" y="56" type="line"/>
      <point x="340" y="72"/>
      <point x="306" y="97"/>
      <point x="309" y="111" type="curve"/>
      <point x="433" y="1021" type="line"/>
      <point x="436" y="1038"/>
      <point x="481" y="1060"/>
      <point x="558" y="1077" type="curve"/>
    </contour>
  </outline>
</glyph>
<glyph name="L" format="2">
  <advance width="871"/>
  <unicode hex="004C"/>
  <anchor x="402" y="0" name="H"/>
  <anchor x="521" y="1188" name="U"/>
  <outline>
    <contour>
      <point x="817" y="255" type="curve"/>
      <point x="766" y="276" type="line"/>
      <point x="699" y="135"/>
      <point x="664" y="99"/>
      <point x="562" y="99" type="curve" smooth="yes"/>
      <point x="462" y="99" type="line" smooth="yes"/>
      <point x="341" y="99"/>
      <point x="310" y="118"/>
      <point x="315" y="161" type="curve" smooth="yes"/>
      <point x="433" y="1021" type="line"/>
      <point x="436" y="1038"/>
      <point x="481" y="1060"/>
      <point x="558" y="1077" type="curve"/>
      <point x="566" y="1134" type="line"/>
      <point x="151" y="1134" type="line"/>
      <point x="143" y="1077" type="line"/>
      <point x="220" y="1060"/>
      <point x="254" y="1035"/>
      <point x="252" y="1021" type="curve" smooth="yes"/>
      <point x="126" y="111" type="line" smooth="yes"/>
      <point x="125" y="95"/>
      <point x="79" y="72"/>
      <point x="3" y="56" type="curve"/>
      <point x="-4" y="0" type="line"/>
      <point x="747" y="0" type="line"/>
      <point x="760" y="35"/>
      <point x="793" y="152"/>
    </contour>
  </outline>
</glyph>
<glyph name="M" format="2">
  <advance width="1417"/>
  <unicode hex="004D"/>
  <outline>
    <contour>
      <point x="1327" y="56" type="line"/>
      <point x="1249" y="72"/>
      <point x="1210" y="97"/>
      <point x="1212" y="111" type="curve" smooth="yes"/>
      <point x="1327" y="1074" type="line"/>
      <point x="1155" y="1023" type="line"/>
      <point x="1045" y="111" type="line" smooth="yes"/>
      <point x="1044" y="95"/>
      <point x="991" y="72"/>
      <point x="915" y="56" type="curve"/>
      <point x="908" y="0" type="line"/>
      <point x="1319" y="0" type="line"/>
    </contour>
    <contour>
      <point x="1445" y="1134" type="line"/>
      <point x="1179" y="1134" type="line" smooth="yes"/>
      <point x="1158" y="1134"/>
      <point x="1147" y="1125"/>
      <point x="1111" y="1058" type="curve" smooth="yes"/>
      <point x="669" y="235" type="line" smooth="yes"/>
      <point x="648" y="197"/>
      <point x="654" y="151"/>
      <point x="660" y="0" type="curve"/>
      <point x="663" y="0" type="line"/>
      <point x="1159" y="928" type="line" smooth="yes"/>
      <point x="1203" y="1010"/>
      <point x="1363" y="1077"/>
      <point x="1438" y="1077" type="curve"/>
    </contour>
    <contour>
      <point x="714" y="237" type="curve"/>
      <point x="487" y="1058" type="line"/>
      <point x="469" y="1122"/>
      <point x="462" y="1134"/>
      <point x="441" y="1134" type="curve" smooth="yes"/>
      <point x="169" y="1134" type="line"/>
      <point x="161" y="1077" type="line"/>
      <point x="221" y="1077"/>
      <point x="315" y="1049"/>
      <point x="344" y="941" type="curve" smooth="yes"/>
      <point x="598" y="0" type="line"/>
      <point x="660" y="0" type="line"/>
      <point x="707" y="151"/>
      <point x="724" y="200"/>
    </contour>
    <contour>
      <point x="388" y="1080" type="line"/>
      <point x="273" y="1058" type="line"/>
      <point x="135" y="111" type="line" smooth="yes"/>
      <point x="132" y="94"/>
      <point x="90" y="72"/>
      <point x="12" y="56" type="curve"/>
      <point x="4" y="0" type="line"/>
      <point x="347" y="0" type="line"/>
      <point x="355" y="56" type="line"/>
      <point x="277" y="72"/>
      <point x="244" y="97"/>
      <point x="246" y="111" type="curve" smooth="yes"/>
    </contour>
  </outline>
</glyph>
<glyph name="N" format="2">
  <advance width="1130"/>
  <unicode hex="004E"/>
  <anchor x="857" y="0" name="H"/>
  <anchor x="675" y="1188" name="U"/>
  <outline>
    <contour>
      <point x="1198" y="1134" type="line"/>
      <point x="854" y="1134" type="line"/>
      <point x="846" y="1077" type="line"/>
      <point x="933" y="1063"/>
      <point x="956" y="1035"/>
      <point x="954" y="1021" type="curve" smooth="yes"/>
      <point x="852" y="274" type="line"/>
      <point x="435" y="1063" type="line" smooth="yes"/>
      <point x="401" y="1128"/>
      <point x="398" y="1134"/>
      <point x="356" y="1134" type="curve" smooth="yes"/>
      <point x="149" y="1134" type="line"/>
      <point x="142" y="1077" type="line"/>
      <point x="186" y="1069"/>
      <point x="222" y="1051"/>
      <point x="252" y="1015" type="curve"/>
      <point x="128" y="111" type="line" smooth="yes"/>
      <point x="126" y="95"/>
      <point x="88" y="67"/>
      <point x="6" y="56" type="curve"/>
      <point x="-1" y="0" type="line"/>
      <point x="342" y="0" type="line"/>
      <point x="350" y="56" type="line"/>
      <point x="267" y="69"/>
      <point x="241" y="96"/>
      <point x="243" y="111" type="curve" smooth="yes"/>
      <point x="345" y="854" type="line"/>
      <point x="762" y="61" type="line" smooth="yes"/>
      <point x="790" y="8"/>
      <point x="838" y="-18"/>
      <point x="924" y="-27" type="curve"/>
      <point x="1069" y="1021" type="line" smooth="yes"/>
      <point x="1071" y="1040"/>
      <point x="1110" y="1065"/>
      <point x="1190" y="1077" type="curve"/>
    </contour>
  </outline>
</glyph>
<glyph name="O" format="2">
  <advance width="1071"/>
  <unicode hex="004F"/>
  <outline>
    <contour>
      <point x="1062" y="696" type="curve" smooth="yes"/>
      <point x="1062" y="949"/>
      <point x="933" y="1161"/>
      <point x="670" y="1161" type="curve" smooth="yes"/>
      <point x="473" y="1161"/>
      <point x="324" y="1050"/>
      <point x="223" y="916" type="curve" smooth="yes"/>
      <point x="126" y="786"/>
      <point x="63" y="623"/>
      <point x="63" y="436" type="curve" smooth="yes"/>
      <point x="63" y="184"/>
      <point x="211" y="-27"/>
      <point x="459" y="-27" type="curve" smooth="yes"/>
      <point x="620" y="-27"/>
      <point x="780" y="73"/>
      <point x="882" y="202" type="curve" smooth="yes"/>
      <point x="991" y="339"/>
      <point x="1062" y="527"/>
    </contour>
    <contour>
      <point x="819" y="680" type="curve" smooth="yes"/>
      <point x="819" y="451"/>
      <point x="731" y="99"/>
      <point x="518" y="99" type="curve" smooth="yes"/>
      <point x="379" y="99"/>
      <point x="307" y="254"/>
      <point x="307" y="478" type="curve" smooth="yes"/>
      <point x="307" y="705"/>
      <point x="403" y="1039"/>
      <point x="604" y="1039" type="curve" smooth="yes"/>
      <point x="745" y="1039"/>
      <point x="819" y="882"/>
    </contour>
  </outline>
</glyph>
<glyph name="P" format="2">
  <advance width="927"/>
  <unicode hex="0050"/>
  <outline>
    <contour>
      <point x="945" y="847" type="curve"/>
      <point x="945" y="1053"/>
      <point x="788" y="1161"/>
      <point x="525" y="1161" type="curve" smooth="yes"/>
      <point x="379" y="1161"/>
      <point x="234" y="1138"/>
      <point x="122" y="1102" type="curve"/>
      <point x="122" y="1030" type="line"/>
      <point x="259" y="1061"/>
      <point x="377" y="1071"/>
      <point x="477" y="1071" type="curve" smooth="yes"/>
      <point x="624" y="1071"/>
      <point x="756" y="1015"/>
      <point x="756" y="814" type="curve" smooth="yes"/>
      <point x="756" y="657"/>
      <point x="662" y="558"/>
      <point x="514" y="558" type="curve" smooth="yes"/>
      <point x="473" y="558"/>
      <point x="440" y="570"/>
      <point x="400" y="587" type="curve"/>
      <point x="414" y="503" type="line"/>
      <point x="446" y="485"/>
      <point x="496" y="472"/>
      <point x="542" y="472" type="curve" smooth="yes"/>
      <point x="762" y="472"/>
      <point x="945" y="643"/>
    </contour>
    <contour>
      <point x="449" y="1116" type="line"/>
      <point x="263" y="1116" type="line"/>
      <point x="125" y="111" type="line" smooth="yes"/>
      <point x="122" y="94"/>
      <point x="78" y="72"/>
      <point x="2" y="56" type="curve"/>
      <point x="-4" y="0" type="line"/>
      <point x="439" y="0" type="line"/>
      <point x="446" y="56" type="line"/>
      <point x="333" y="77"/>
      <point x="308" y="97"/>
      <point x="310" y="111" type="curve" smooth="yes"/>
    </contour>
  </outline>
</glyph>
<glyph name="Q" format="2">
  <advance width="1098"/>
  <unicode hex="0051"/>
  <outline>
    <contour>
      <point x="1062" y="696" type="curve" smooth="yes"/>
      <point x="1062" y="949"/>
      <point x="933" y="1161"/>
      <point x="670" y="1161" type="curve" smooth="yes"/>
      <point x="473" y="1161"/>
      <point x="323" y="1050"/>
      <point x="223" y="916" type="curve"/>
      <point x="127" y="784"/>
      <point x="63" y="623"/>
      <point x="63" y="436" type="curve" smooth="yes"/>
      <point x="63" y="184"/>
      <point x="211" y="-27"/>
      <point x="459" y="-27" type="curve" smooth="yes"/>
      <point x="620" y="-27"/>
      <point x="781" y="73"/>
      <point x="882" y="202" type="curve" smooth="yes"/>
      <point x="991" y="339"/>
      <point x="1062" y="527"/>
    </contour>
    <contour>
      <point x="1171" y="-114" type="curve"/>
      <point x="1133" y="-46" type="line"/>
      <point x="1059" y="-99"/>
      <point x="1037" y="-108"/>
      <point x="1009" y="-108" type="curve" smooth="yes"/>
      <point x="890" y="-108"/>
      <point x="783" y="7"/>
      <point x="625" y="44" type="curve" smooth="yes"/>
      <point x="597" y="50"/>
      <point x="409" y="18"/>
      <point x="409" y="18" type="curve"/>
      <point x="607" y="-14"/>
      <point x="780" y="-301"/>
      <point x="979" y="-301" type="curve" smooth="yes"/>
      <point x="1013" y="-301"/>
      <point x="1104" y="-218"/>
    </contour>
    <contour>
      <point x="819" y="680" type="curve" smooth="yes"/>
      <point x="819" y="451"/>
      <point x="731" y="99"/>
      <point x="518" y="99" type="curve" smooth="yes"/>
      <point x="379" y="99"/>
      <point x="307" y="254"/>
      <point x="307" y="478" type="curve" smooth="yes"/>
      <point x="307" y="705"/>
      <point x="403" y="1039"/>
      <point x="604" y="1039" type="curve" smooth="yes"/>
      <point x="745" y="1039"/>
      <point x="819" y="882"/>
    </contour>
  </outline>
</glyph>
<glyph name="R" format="2">
  <advance width="1009"/>
  <unicode hex="0052"/>
  <outline>
    <contour>
      <point x="916" y="873" type="curve" smooth="yes"/>
      <point x="916" y="1060"/>
      <point x="773" y="1161"/>
      <point x="534" y="1161" type="curve" smooth="yes"/>
      <point x="370" y="1161"/>
      <point x="231" y="1135"/>
      <point x="122" y="1104" type="curve"/>
      <point x="121" y="1031" type="line"/>
      <point x="230" y="1055"/>
      <point x="369" y="1071"/>
      <point x="491" y="1071" type="curve" smooth="yes"/>
      <point x="596" y="1071"/>
      <point x="729" y="1025"/>
      <point x="729" y="847" type="curve" smooth="yes"/>
      <point x="729" y="695"/>
      <point x="606" y="613"/>
      <point x="472" y="613" type="curve" smooth="yes"/>
      <point x="435" y="613"/>
      <point x="401" y="618"/>
      <point x="364" y="631" type="curve"/>
      <point x="352" y="542" type="line"/>
      <point x="391" y="529"/>
      <point x="452" y="524"/>
      <point x="495" y="524" type="curve" smooth="yes"/>
      <point x="778" y="524"/>
      <point x="916" y="742"/>
    </contour>
    <contour>
      <point x="1018" y="102" type="curve"/>
      <point x="998" y="154" type="line"/>
      <point x="892" y="118"/>
      <point x="862" y="117"/>
      <point x="824" y="183" type="curve" smooth="yes"/>
      <point x="601" y="578" type="line"/>
      <point x="463" y="550" type="line"/>
      <point x="649" y="105" type="line" smooth="yes"/>
      <point x="691" y="4"/>
      <point x="727" y="-12"/>
      <point x="768" y="-12" type="curve" smooth="yes"/>
      <point x="801" y="-12"/>
      <point x="925" y="39"/>
    </contour>
    <contour>
      <point x="448" y="1120" type="line"/>
      <point x="262" y="1120" type="line"/>
      <point x="125" y="111" type="line" smooth="yes"/>
      <point x="123" y="95"/>
      <point x="78" y="72"/>
      <point x="3" y="56" type="curve"/>
      <point x="-4" y="0" type="line"/>
      <point x="414" y="0" type="line"/>
      <point x="421" y="56" type="line"/>
      <point x="346" y="72"/>
      <point x="307" y="97"/>
      <point x="310" y="111" type="curve"/>
    </contour>
  </outline>
</glyph>
<glyph name="S" format="2">
  <advance width="854"/>
  <unicode hex="0053"/>
  <anchor x="374" y="0" name="H"/>
  <anchor x="531" y="1188" name="U"/>
  <outline>
    <contour>
      <point x="838" y="1078" type="curve" smooth="yes"/>
      <point x="782" y="1123"/>
      <point x="693" y="1161"/>
      <point x="588" y="1161" type="curve" smooth="yes"/>
      <point x="338" y="1161"/>
      <point x="175" y="993"/>
      <point x="175" y="835" type="curve" smooth="yes"/>
      <point x="175" y="734"/>
      <point x="216" y="643"/>
      <point x="374" y="567" type="curve" smooth="yes"/>
      <point x="557" y="481"/>
      <point x="617" y="413"/>
      <point x="617" y="310" type="curve" smooth="yes"/>
      <point x="617" y="182"/>
      <point x="517" y="95"/>
      <point x="391" y="95" type="curve" smooth="yes"/>
      <point x="241" y="95"/>
      <point x="182" y="264"/>
      <point x="147" y="264" type="curve" smooth="yes"/>
      <point x="111" y="264"/>
      <point x="28" y="141"/>
      <point x="28" y="108" type="curve" smooth="yes"/>
      <point x="28" y="40"/>
      <point x="214" y="-27"/>
      <point x="326" y="-27" type="curve" smooth="yes"/>
      <point x="582" y="-27"/>
      <point x="789" y="166"/>
      <point x="789" y="391" type="curve" smooth="yes"/>
      <point x="789" y="526"/>
      <point x="711" y="604"/>
      <point x="522" y="702" type="curve" smooth="yes"/>
      <point x="363" y="784"/>
      <point x="337" y="842"/>
      <point x="337" y="895" type="curve" smooth="yes"/>
      <point x="337" y="974"/>
      <point x="398" y="1058"/>
      <point x="523" y="1058" type="curve" smooth="yes"/>
      <point x="595" y="1058"/>
      <point x="665" y="1008"/>
      <point x="698" y="922" type="curve"/>
      <point x="742" y="917" type="line"/>
      <point x="768" y="931"/>
      <point x="853" y="1066"/>
    </contour>
  </outline>
</glyph>
<glyph name="T" format="2">
  <advance width="1010"/>
  <unicode hex="0054"/>
  <outline>
    <contour>
      <point x="1096" y="1102" type="curve"/>
      <point x="1067" y="1134" type="line"/>
      <point x="719" y="1134" type="line"/>
      <point x="678" y="1017" type="line"/>
      <point x="909" y="1017" type="line" smooth="yes"/>
      <point x="957" y="1017"/>
      <point x="947" y="939"/>
      <point x="954" y="828" type="curve"/>
      <point x="1026" y="828" type="line"/>
      <point x="1049" y="903"/>
      <point x="1086" y="1041"/>
    </contour>
    <contour>
      <point x="503" y="1017" type="line"/>
      <point x="512" y="1134" type="line"/>
      <point x="154" y="1134" type="line"/>
      <point x="135" y="1071"/>
      <point x="94" y="915"/>
      <point x="79" y="845" type="curve"/>
      <point x="144" y="819" type="line"/>
      <point x="215" y="959"/>
      <point x="245" y="1017"/>
      <point x="279" y="1017" type="curve" smooth="yes"/>
    </contour>
    <contour>
      <point x="714" y="74" type="line"/>
      <point x="614" y="97"/>
      <point x="593" y="123"/>
      <point x="594" y="139" type="curve" smooth="yes"/>
      <point x="715" y="1023" type="line" smooth="yes"/>
      <point x="718" y="1040"/>
      <point x="762" y="1051"/>
      <point x="840" y="1059" type="curve"/>
      <point x="850" y="1134" type="line"/>
      <point x="391" y="1134" type="line"/>
      <point x="381" y="1059" type="line"/>
      <point x="459" y="1051"/>
      <point x="482" y="1037"/>
      <point x="480" y="1023" type="curve" smooth="yes"/>
      <point x="360" y="139" type="line" smooth="yes"/>
      <point x="357" y="122"/>
      <point x="328" y="97"/>
      <point x="222" y="74" type="curve"/>
      <point x="212" y="0" type="line"/>
      <point x="704" y="0" type="line"/>
    </contour>
  </outline>
</glyph>
<glyph name="U" format="2">
  <advance width="1153"/>
  <unicode hex="0055"/>
  <outline>
    <contour>
      <point x="1215" y="1134" type="line"/>
      <point x="846" y="1134" type="line"/>
      <point x="836" y="1059" type="line"/>
      <point x="913" y="1042"/>
      <point x="936" y="1017"/>
      <point x="934" y="1003" type="curve" smooth="yes"/>
      <point x="852" y="422" type="line"/>
      <point x="828" y="243"/>
      <point x="762" y="113"/>
      <point x="605" y="113" type="curve" smooth="yes"/>
      <point x="458" y="113"/>
      <point x="388" y="189"/>
      <point x="388" y="357" type="curve" smooth="yes"/>
      <point x="388" y="388"/>
      <point x="393" y="423"/>
      <point x="398" y="459" type="curve" smooth="yes"/>
      <point x="477" y="1003" type="line" smooth="yes"/>
      <point x="480" y="1020"/>
      <point x="521" y="1042"/>
      <point x="596" y="1059" type="curve"/>
      <point x="606" y="1134" type="line"/>
      <point x="152" y="1134" type="line"/>
      <point x="142" y="1059" type="line"/>
      <point x="219" y="1042"/>
      <point x="247" y="1017"/>
      <point x="245" y="1003" type="curve" smooth="yes"/>
      <point x="162" y="416" type="line" smooth="yes"/>
      <point x="156" y="379"/>
      <point x="153" y="344"/>
      <point x="153" y="313" type="curve" smooth="yes"/>
      <point x="153" y="93"/>
      <point x="335" y="-27"/>
      <point x="532" y="-27" type="curve" smooth="yes"/>
      <point x="770" y="-27"/>
      <point x="972" y="145"/>
      <point x="1017" y="460" type="curve" smooth="yes"/>
      <point x="1093" y="1003" type="line" smooth="yes"/>
      <point x="1096" y="1020"/>
      <point x="1130" y="1042"/>
      <point x="1206" y="1059" type="curve"/>
    </contour>
  </outline>
</glyph>
<glyph name="V" format="2">
  <advance width="1130"/>
  <unicode hex="0056"/>
  <outline>
    <contour>
      <point x="1230" y="1134" type="line"/>
      <point x="865" y="1134" type="line"/>
      <point x="855" y="1059" type="line"/>
      <point x="945" y="1047"/>
      <point x="965" y="1035"/>
      <point x="949" y="999" type="curve" smooth="yes"/>
      <point x="612" y="281" type="line"/>
      <point x="448" y="1001" type="line" smooth="yes"/>
      <point x="440" y="1035"/>
      <point x="465" y="1052"/>
      <point x="555" y="1059" type="curve"/>
      <point x="565" y="1134" type="line"/>
      <point x="117" y="1134" type="line"/>
      <point x="107" y="1059" type="line"/>
      <point x="175" y="1049"/>
      <point x="201" y="1031"/>
      <point x="209" y="999" type="curve"/>
      <point x="453" y="-27" type="line"/>
      <point x="519" y="-10"/>
      <point x="620" y="27"/>
      <point x="644" y="80" type="curve"/>
      <point x="1082" y="999" type="line" smooth="yes"/>
      <point x="1098" y="1033"/>
      <point x="1142" y="1044"/>
      <point x="1220" y="1059" type="curve"/>
    </contour>
  </outline>
</glyph>
<glyph name="W" format="2">
  <advance width="1442"/>
  <unicode hex="0057"/>
  <outline>
    <contour>
      <point x="1548" y="1134" type="line"/>
      <point x="1169" y="1134" type="line"/>
      <point x="1159" y="1059" type="line"/>
      <point x="1233" y="1045"/>
      <point x="1288" y="1031"/>
      <point x="1279" y="1003" type="curve" smooth="yes"/>
      <point x="1068" y="387" type="line"/>
      <point x="895" y="1134" type="line"/>
      <point x="799" y="1134" type="line"/>
      <point x="460" y="387" type="line"/>
      <point x="409" y="996" type="line" smooth="yes"/>
      <point x="407" y="1022"/>
      <point x="413" y="1047"/>
      <point x="523" y="1059" type="curve"/>
      <point x="533" y="1134" type="line"/>
      <point x="108" y="1134" type="line"/>
      <point x="98" y="1059" type="line"/>
      <point x="174" y="1044"/>
      <point x="202" y="1026"/>
      <point x="204" y="996" type="curve" smooth="yes"/>
      <point x="281" y="-27" type="line"/>
      <point x="328" y="-16"/>
      <point x="405" y="1"/>
      <point x="427" y="53" type="curve"/>
      <point x="765" y="768" type="line"/>
      <point x="945" y="-27" type="line"/>
      <point x="981" y="-18"/>
      <point x="1065" y="1"/>
      <point x="1082" y="53" type="curve" smooth="yes"/>
      <point x="1404" y="1003" type="line"/>
      <point x="1409" y="1022"/>
      <point x="1436" y="1037"/>
      <point x="1539" y="1059" type="curve"/>
    </contour>
  </outline>
</glyph>
<glyph name="X" format="2">
  <advance width="1102"/>
  <unicode hex="0058"/>
  <outline>
    <contour>
      <point x="1130" y="1134" type="line"/>
      <point x="751" y="1134" type="line"/>
      <point x="741" y="1059" type="line"/>
      <point x="838" y="1051"/>
      <point x="846" y="1038"/>
      <point x="806" y="983" type="curve" smooth="yes"/>
      <point x="603" y="703" type="line"/>
      <point x="652" y="571" type="line"/>
      <point x="956" y="983" type="line" smooth="yes"/>
      <point x="993" y="1034"/>
      <point x="1037" y="1049"/>
      <point x="1120" y="1059" type="curve"/>
    </contour>
    <contour>
      <point x="1026" y="74" type="line"/>
      <point x="962" y="83"/>
      <point x="938" y="99"/>
      <point x="912" y="150" type="curve" smooth="yes"/>
      <point x="494" y="983" type="line" smooth="yes"/>
      <point x="468" y="1035"/>
      <point x="498" y="1049"/>
      <point x="594" y="1059" type="curve"/>
      <point x="604" y="1134" type="line"/>
      <point x="126" y="1134" type="line"/>
      <point x="117" y="1059" type="line"/>
      <point x="189" y="1047"/>
      <point x="209" y="1036"/>
      <point x="236" y="983" type="curve" smooth="yes"/>
      <point x="654" y="150" type="line"/>
      <point x="679" y="102"/>
      <point x="657" y="85"/>
      <point x="557" y="74" type="curve"/>
      <point x="547" y="0" type="line"/>
      <point x="1016" y="0" type="line"/>
    </contour>
    <contour>
      <point x="530" y="466" type="line"/>
      <point x="474" y="595" type="line"/>
      <point x="135" y="150" type="line" smooth="yes"/>
      <point x="99" y="102"/>
      <point x="46" y="80"/>
      <point x="-26" y="74" type="curve"/>
      <point x="-36" y="0" type="line"/>
      <point x="340" y="0" type="line"/>
      <point x="350" y="74" type="line"/>
      <point x="248" y="81"/>
      <point x="245" y="98"/>
      <point x="285" y="150" type="curve" smooth="yes"/>
    </contour>
  </outline>
</glyph>
<glyph name="Y" format="2">
  <advance width="1045"/>
  <unicode hex="0059"/>
  <anchor x="635" y="1188" name="U"/>
  <outline>
    <contour>
      <point x="1118" y="1134" type="line"/>
      <point x="778" y="1134" type="line"/>
      <point x="770" y="1077" type="line"/>
      <point x="853" y="1065"/>
      <point x="876" y="1050"/>
      <point x="856" y="1017" type="curve" smooth="yes"/>
      <point x="597" y="610" type="line"/>
      <point x="556" y="756"/>
      <point x="464" y="986"/>
      <point x="392" y="1106" type="curve" smooth="yes"/>
      <point x="377" y="1131"/>
      <point x="350" y="1145"/>
      <point x="326" y="1145" type="curve" smooth="yes"/>
      <point x="280" y="1145"/>
      <point x="170" y="1126"/>
      <point x="103" y="1113" type="curve"/>
      <point x="104" y="1056" type="line"/>
      <point x="193" y="1062"/>
      <point x="213" y="1050"/>
      <point x="233" y="1019" type="curve" smooth="yes"/>
      <point x="311" y="892"/>
      <point x="421" y="622"/>
      <point x="463" y="435" type="curve"/>
      <point x="607" y="435" type="line"/>
      <point x="977" y="1017" type="line" smooth="yes"/>
      <point x="997" y="1048"/>
      <point x="1033" y="1062"/>
      <point x="1110" y="1077" type="curve"/>
    </contour>
    <contour>
      <point x="708" y="56" type="line"/>
      <point x="608" y="79"/>
      <point x="582" y="106"/>
      <point x="584" y="121" type="curve" smooth="yes"/>
      <point x="646" y="573" type="line"/>
      <point x="463" y="573" type="line"/>
      <point x="401" y="121" type="line" smooth="yes"/>
      <point x="399" y="104"/>
      <point x="364" y="79"/>
      <point x="261" y="56" type="curve"/>
      <point x="253" y="0" type="line"/>
      <point x="701" y="0" type="line"/>
    </contour>
  </outline>
</glyph>
<glyph name="Z" format="2">
  <advance width="970"/>
  <unicode hex="005A"/>
  <outline>
    <contour>
      <point x="990" y="1086" type="line"/>
      <point x="967" y="1134" type="line"/>
      <point x="393" y="1134" type="line" smooth="yes"/>
      <point x="327" y="1134"/>
      <point x="295" y="1134"/>
      <point x="235" y="1148" type="curve"/>
      <point x="156" y="805" type="line"/>
      <point x="234" y="785" type="line"/>
      <point x="276" y="910"/>
      <point x="349" y="1008"/>
      <point x="385" y="1008" type="curve" smooth="yes"/>
      <point x="693" y="1008" type="line"/>
      <point x="9" y="49" type="line"/>
      <point x="36" y="0" type="line"/>
      <point x="840" y="0" type="line"/>
      <point x="850" y="70"/>
      <point x="882" y="258"/>
      <point x="896" y="335" type="curve"/>
      <point x="819" y="357" type="line"/>
      <point x="756" y="209"/>
      <point x="720" y="126"/>
      <point x="673" y="126" type="curve" smooth="yes"/>
      <point x="310" y="126" type="line"/>
    </contour>
  </outline>
</glyph>
<glyph name="bracketleft" format="2">
  <advance width="622"/>
  <unicode hex="005B"/>
  <outline>
    <contour>
      <point x="724" y="1411" type="curve"/>
      <point x="695" y="1439" type="line"/>
      <point x="299" y="1439" type="line"/>
      <point x="54" y="-302" type="line"/>
      <point x="458" y="-302" type="line"/>
      <point x="469" y="-281"/>
      <point x="492" y="-234"/>
      <point x="499" y="-211" type="curve"/>
      <point x="468" y="-180" type="line"/>
      <point x="238" y="-180" type="line"/>
      <point x="446" y="1320" type="line"/>
      <point x="682" y="1320" type="line"/>
      <point x="691" y="1334"/>
      <point x="717" y="1381"/>
    </contour>
  </outline>
</glyph>
<glyph name="backslash" format="2">
  <advance width="782"/>
  <unicode hex="005C"/>
  <outline>
    <contour>
      <point x="667" y="-270" type="line"/>
      <point x="322" y="1377" type="line"/>
      <point x="292" y="1397"/>
      <point x="197" y="1430"/>
      <point x="163" y="1439" type="curve"/>
      <point x="121" y="1410" type="line"/>
      <point x="468" y="-238" type="line"/>
      <point x="486" y="-254"/>
      <point x="601" y="-293"/>
      <point x="627" y="-302" type="curve"/>
    </contour>
  </outline>
</glyph>
<glyph name="bracketright" format="2">
  <advance width="573"/>
  <unicode hex="005D"/>
  <outline>
    <contour>
      <point x="569" y="1439" type="line"/>
      <point x="192" y="1439" type="line"/>
      <point x="181" y="1419"/>
      <point x="163" y="1381"/>
      <point x="156" y="1354" type="curve"/>
      <point x="184" y="1329" type="line"/>
      <point x="413" y="1329" type="line"/>
      <point x="199" y="-189" type="line"/>
      <point x="-36" y="-189" type="line"/>
      <point x="-45" y="-205"/>
      <point x="-64" y="-246"/>
      <point x="-73" y="-274" type="curve"/>
      <point x="-45" y="-302" type="line"/>
      <point x="326" y="-302" type="line"/>
    </contour>
  </outline>
</glyph>
<glyph name="underscore" format="2">
  <advance width="669"/>
  <unicode hex="005F"/>
  <outline>
    <contour>
      <point x="662" y="-144" type="curve"/>
      <point x="642" y="-117" type="line"/>
      <point x="-28" y="-117" type="line"/>
      <point x="-43" y="-142"/>
      <point x="-67" y="-187"/>
      <point x="-74" y="-210" type="curve"/>
      <point x="-55" y="-239" type="line"/>
      <point x="618" y="-239" type="line"/>
      <point x="630" y="-216"/>
      <point x="655" y="-170"/>
    </contour>
  </outline>
</glyph>
<glyph name="grave" format="2">
  <advance width="545"/>
  <unicode hex="0060"/>
  <outline>
    <contour>
      <point x="522" y="951" type="curve"/>
      <point x="415" y="1322" type="line"/>
      <point x="385" y="1322"/>
      <point x="236" y="1290"/>
      <point x="207" y="1285" type="curve"/>
      <point x="170" y="1234" type="line"/>
      <point x="440" y="914" type="line"/>
      <point x="461" y="919"/>
      <point x="498" y="936"/>
    </contour>
  </outline>
</glyph>
<glyph name="a" format="2">
  <advance width="906"/>
  <unicode hex="0061"/>
  <outline>
    <contour>
      <point x="905" y="106" type="curve"/>
      <point x="890" y="174" type="line"/>
      <point x="842" y="154"/>
      <point x="819" y="149"/>
      <point x="795" y="149" type="curve" smooth="yes"/>
      <point x="767" y="149"/>
      <point x="747" y="213"/>
      <point x="747" y="278" type="curve" smooth="yes"/>
      <point x="747" y="331"/>
      <point x="765" y="476"/>
      <point x="801" y="648" type="curve"/>
      <point x="818" y="729"/>
      <point x="829" y="741"/>
      <point x="870" y="774" type="curve"/>
      <point x="838" y="842" type="line"/>
      <point x="757" y="803"/>
      <point x="589" y="747"/>
      <point x="577" y="693" type="curve"/>
      <point x="565" y="622"/>
      <point x="509" y="295"/>
      <point x="509" y="225" type="curve" smooth="yes"/>
      <point x="509" y="21"/>
      <point x="602" y="-36"/>
      <point x="646" y="-36" type="curve" smooth="yes"/>
      <point x="690" y="-36"/>
      <point x="804" y="33"/>
    </contour>
    <contour>
      <point x="815" y="730" type="curve"/>
      <point x="773" y="736"/>
      <point x="667" y="842"/>
      <point x="568" y="842" type="curve" smooth="yes"/>
      <point x="459" y="842"/>
      <point x="363" y="801"/>
      <point x="298" y="757" type="curve" smooth="yes"/>
      <point x="129" y="641"/>
      <point x="29" y="464"/>
      <point x="29" y="274" type="curve" smooth="yes"/>
      <point x="29" y="49"/>
      <point x="151" y="-36"/>
      <point x="239" y="-36" type="curve" smooth="yes"/>
      <point x="341" y="-36"/>
      <point x="441" y="60"/>
      <point x="522" y="170" type="curve"/>
      <point x="536" y="348" type="line"/>
      <point x="432" y="204"/>
      <point x="368" y="158"/>
      <point x="334" y="158" type="curve" smooth="yes"/>
      <point x="298" y="158"/>
      <point x="261" y="213"/>
      <point x="261" y="341" type="curve" smooth="yes"/>
      <point x="261" y="483"/>
      <point x="321" y="699"/>
      <point x="468" y="702" type="curve" smooth="yes"/>
      <point x="541" y="704"/>
      <point x="639" y="549"/>
      <point x="670" y="549" type="curve" smooth="yes"/>
      <point x="702" y="549"/>
      <point x="764" y="695"/>
    </contour>
  </outline>
</glyph>
<glyph name="b" format="2">
  <advance width="936"/>
  <unicode hex="0062"/>
  <outline>
    <contour>
      <point x="891" y="549" type="curve" smooth="yes"/>
      <point x="892" y="738"/>
      <point x="793" y="844"/>
      <point x="672" y="842" type="curve" smooth="yes"/>
      <point x="594" y="841"/>
      <point x="477" y="807"/>
      <point x="323" y="574" type="curve"/>
      <point x="337" y="417" type="line"/>
      <point x="451" y="616"/>
      <point x="534" y="668"/>
      <point x="566" y="668" type="curve" smooth="yes"/>
      <point x="623" y="668"/>
      <point x="653" y="586"/>
      <point x="653" y="477" type="curve" smooth="yes"/>
      <point x="653" y="396"/>
      <point x="633" y="280"/>
      <point x="587" y="215" type="curve" smooth="yes"/>
      <point x="558" y="171"/>
      <point x="522" y="145"/>
      <point x="471" y="149" type="curve" smooth="yes"/>
      <point x="431" y="152"/>
      <point x="347" y="221"/>
      <point x="347" y="284" type="curve" smooth="yes"/>
      <point x="347" y="442"/>
      <point x="483" y="1124"/>
      <point x="483" y="1294" type="curve" smooth="yes"/>
      <point x="483" y="1349"/>
      <point x="472" y="1368"/>
      <point x="430" y="1368" type="curve" smooth="yes"/>
      <point x="382" y="1368"/>
      <point x="188" y="1300"/>
      <point x="77" y="1246" type="curve"/>
      <point x="93" y="1175" type="line"/>
      <point x="93" y="1175"/>
      <point x="153" y="1199"/>
      <point x="174" y="1199" type="curve" smooth="yes"/>
      <point x="195" y="1199"/>
      <point x="222" y="1194"/>
      <point x="222" y="1139" type="curve" smooth="yes"/>
      <point x="222" y="991"/>
      <point x="98" y="349"/>
      <point x="99" y="222" type="curve" smooth="yes"/>
      <point x="101" y="85"/>
      <point x="282" y="-36"/>
      <point x="366" y="-36" type="curve" smooth="yes"/>
      <point x="517" y="-36"/>
      <point x="651" y="61"/>
      <point x="735" y="169" type="curve" smooth="yes"/>
      <point x="826" y="286"/>
      <point x="889" y="422"/>
    </contour>
  </outline>
</glyph>
<glyph name="c" format="2">
  <advance width="762"/>
  <unicode hex="0063"/>
  <anchor x="351" y="0" name="H"/>
  <anchor x="510" y="900" name="U"/>
  <outline>
    <contour>
      <point x="787" y="738" type="curve"/>
      <point x="732" y="756"/>
      <point x="674" y="842"/>
      <point x="568" y="842" type="curve" smooth="yes"/>
      <point x="477" y="842"/>
      <point x="364" y="792"/>
      <point x="297" y="748" type="curve" smooth="yes"/>
      <point x="121" y="630"/>
      <point x="58" y="451"/>
      <point x="58" y="289" type="curve" smooth="yes"/>
      <point x="58" y="36"/>
      <point x="206" y="-36"/>
      <point x="300" y="-36" type="curve" smooth="yes"/>
      <point x="401" y="-36"/>
      <point x="514" y="9"/>
      <point x="702" y="180" type="curve"/>
      <point x="697" y="189"/>
      <point x="673" y="223"/>
      <point x="664" y="234" type="curve"/>
      <point x="535" y="129"/>
      <point x="446" y="90"/>
      <point x="388" y="90" type="curve" smooth="yes"/>
      <point x="304" y="90"/>
      <point x="243" y="185"/>
      <point x="243" y="340" type="curve" smooth="yes"/>
      <point x="243" y="508"/>
      <point x="321" y="725"/>
      <point x="462" y="725" type="curve" smooth="yes"/>
      <point x="535" y="725"/>
      <point x="578" y="617"/>
      <point x="612" y="617" type="curve" smooth="yes"/>
      <point x="648" y="617"/>
      <point x="737" y="692"/>
    </contour>
  </outline>
</glyph>
<glyph name="d" format="2">
  <advance width="930"/>
  <unicode hex="0064"/>
  <outline>
    <contour>
      <point x="908" y="104" type="curve"/>
      <point x="891" y="174" type="line"/>
      <point x="849" y="156"/>
      <point x="827" y="151"/>
      <point x="796" y="151" type="curve" smooth="yes"/>
      <point x="768" y="151"/>
      <point x="747" y="197"/>
      <point x="747" y="287" type="curve" smooth="yes"/>
      <point x="747" y="449"/>
      <point x="893" y="1107"/>
      <point x="893" y="1294" type="curve" smooth="yes"/>
      <point x="893" y="1349"/>
      <point x="868" y="1368"/>
      <point x="826" y="1368" type="curve" smooth="yes"/>
      <point x="778" y="1368"/>
      <point x="618" y="1309"/>
      <point x="490" y="1246" type="curve"/>
      <point x="505" y="1175" type="line"/>
      <point x="534" y="1186"/>
      <point x="577" y="1199"/>
      <point x="593" y="1199" type="curve" smooth="yes"/>
      <point x="614" y="1199"/>
      <point x="633" y="1194"/>
      <point x="633" y="1139" type="curve" smooth="yes"/>
      <point x="633" y="971"/>
      <point x="510" y="334"/>
      <point x="510" y="224" type="curve" smooth="yes"/>
      <point x="510" y="26"/>
      <point x="598" y="-36"/>
      <point x="644" y="-36" type="curve" smooth="yes"/>
      <point x="693" y="-36"/>
      <point x="806" y="36"/>
    </contour>
    <contour>
      <point x="794" y="711" type="line"/>
      <point x="725" y="711"/>
      <point x="628" y="842"/>
      <point x="559" y="842" type="curve" smooth="yes"/>
      <point x="468" y="842"/>
      <point x="364" y="801"/>
      <point x="298" y="757" type="curve" smooth="yes"/>
      <point x="127" y="645"/>
      <point x="29" y="473"/>
      <point x="29" y="283" type="curve" smooth="yes"/>
      <point x="29" y="59"/>
      <point x="140" y="-36"/>
      <point x="239" y="-36" type="curve" smooth="yes"/>
      <point x="317" y="-36"/>
      <point x="415" y="24"/>
      <point x="518" y="166" type="curve"/>
      <point x="537" y="353" type="line"/>
      <point x="427" y="189"/>
      <point x="363" y="158"/>
      <point x="338" y="158" type="curve" smooth="yes"/>
      <point x="295" y="158"/>
      <point x="261" y="213"/>
      <point x="261" y="341" type="curve" smooth="yes"/>
      <point x="261" y="483"/>
      <point x="321" y="702"/>
      <point x="467" y="702" type="curve" smooth="yes"/>
      <point x="554" y="702"/>
      <point x="626" y="548"/>
      <point x="670" y="548" type="curve"/>
    </contour>
  </outline>
</glyph>
<glyph name="e" format="2">
  <advance width="742"/>
  <unicode hex="0065"/>
  <anchor x="331" y="0" name="H"/>
  <anchor x="468" y="900" name="U"/>
  <outline>
    <contour>
      <point x="697" y="684" type="curve"/>
      <point x="697" y="761"/>
      <point x="644" y="842"/>
      <point x="530" y="842" type="curve" smooth="yes"/>
      <point x="450" y="842"/>
      <point x="356" y="798"/>
      <point x="301" y="754" type="curve" smooth="yes"/>
      <point x="145" y="631"/>
      <point x="52" y="460"/>
      <point x="52" y="272" type="curve" smooth="yes"/>
      <point x="52" y="45"/>
      <point x="197" y="-36"/>
      <point x="283" y="-36" type="curve" smooth="yes"/>
      <point x="376" y="-36"/>
      <point x="479" y="2"/>
      <point x="676" y="173" type="curve"/>
      <point x="673" y="182"/>
      <point x="657" y="211"/>
      <point x="644" y="219" type="curve"/>
      <point x="499" y="103"/>
      <point x="406" y="79"/>
      <point x="355" y="79" type="curve" smooth="yes"/>
      <point x="284" y="79"/>
      <point x="207" y="189"/>
      <point x="207" y="346" type="curve" smooth="yes"/>
      <point x="207" y="478"/>
      <point x="276" y="614"/>
      <point x="354" y="690" type="curve" smooth="yes"/>
      <point x="387" y="723"/>
      <point x="431" y="738"/>
      <point x="450" y="738" type="curve" smooth="yes"/>
      <point x="488" y="738"/>
      <point x="526" y="710"/>
      <point x="526" y="641" type="curve" smooth="yes"/>
      <point x="526" y="552"/>
      <point x="493" y="479"/>
      <point x="137" y="345" type="curve"/>
      <point x="144" y="269" type="line"/>
      <point x="639" y="439"/>
      <point x="697" y="578"/>
    </contour>
  </outline>
</glyph>
<glyph name="f" format="2">
  <advance width="620"/>
  <unicode hex="0066"/>
  <outline>
    <contour>
      <point x="695" y="780" type="curve"/>
      <point x="668" y="814" type="line"/>
      <point x="174" y="814" type="line"/>
      <point x="47" y="734" type="line"/>
      <point x="70" y="697" type="line"/>
      <point x="443" y="697" type="line" smooth="yes"/>
      <point x="515" y="697"/>
      <point x="550" y="690"/>
      <point x="563" y="657" type="curve"/>
      <point x="587" y="669"/>
      <point x="672" y="747"/>
    </contour>
    <contour>
      <point x="947" y="1253" type="curve"/>
      <point x="910" y="1266"/>
      <point x="783" y="1368"/>
      <point x="660" y="1368" type="curve" smooth="yes"/>
      <point x="586" y="1368"/>
      <point x="513" y="1331"/>
      <point x="449" y="1284" type="curve" smooth="yes"/>
      <point x="296" y="1170"/>
      <point x="230" y="1004"/>
      <point x="206" y="809" type="curve"/>
      <point x="126" y="125" type="line"/>
      <point x="105" y="-72"/>
      <point x="29" y="-286"/>
      <point x="-90" y="-352" type="curve"/>
      <point x="-48" y="-436" type="line"/>
      <point x="128" y="-328"/>
      <point x="342" y="-90"/>
      <point x="373" y="173" type="curve"/>
      <point x="452" y="856" type="line"/>
      <point x="468" y="1009"/>
      <point x="500" y="1203"/>
      <point x="590" y="1203" type="curve" smooth="yes"/>
      <point x="649" y="1203"/>
      <point x="685" y="1093"/>
      <point x="726" y="1093" type="curve" smooth="yes"/>
      <point x="756" y="1093"/>
      <point x="896" y="1216"/>
    </contour>
  </outline>
</glyph>
<glyph name="g" format="2">
  <advance width="879"/>
  <unicode hex="0067"/>
  <outline>
    <contour>
      <point x="810" y="730" type="curve"/>
      <point x="768" y="736"/>
      <point x="649" y="842"/>
      <point x="568" y="842" type="curve" smooth="yes"/>
      <point x="450" y="842"/>
      <point x="358" y="801"/>
      <point x="291" y="757" type="curve" smooth="yes"/>
      <point x="114" y="639"/>
      <point x="18" y="464"/>
      <point x="18" y="274" type="curve" smooth="yes"/>
      <point x="18" y="49"/>
      <point x="151" y="-36"/>
      <point x="230" y="-36" type="curve" smooth="yes"/>
      <point x="337" y="-36"/>
      <point x="436" y="55"/>
      <point x="540" y="205" type="curve"/>
      <point x="549" y="385" type="line"/>
      <point x="418" y="182"/>
      <point x="355" y="158"/>
      <point x="331" y="158" type="curve" smooth="yes"/>
      <point x="286" y="158"/>
      <point x="252" y="213"/>
      <point x="252" y="341" type="curve" smooth="yes"/>
      <point x="252" y="483"/>
      <point x="314" y="702"/>
      <point x="460" y="702" type="curve" smooth="yes"/>
      <point x="532" y="702"/>
      <point x="639" y="544"/>
      <point x="672" y="544" type="curve" smooth="yes"/>
      <point x="702" y="544"/>
      <point x="759" y="695"/>
    </contour>
    <contour>
      <point x="868" y="774" type="curve"/>
      <point x="833" y="842" type="line"/>
      <point x="727" y="794"/>
      <point x="578" y="716"/>
      <point x="560" y="604" type="curve" smooth="yes"/>
      <point x="514" y="323"/>
      <point x="549" y="195"/>
      <point x="505" y="-43" type="curve" smooth="yes"/>
      <point x="469" y="-242"/>
      <point x="410" y="-278"/>
      <point x="330" y="-278" type="curve" smooth="yes"/>
      <point x="197" y="-278"/>
      <point x="140" y="-185"/>
      <point x="112" y="-185" type="curve" smooth="yes"/>
      <point x="96" y="-185"/>
      <point x="-22" y="-309"/>
      <point x="-22" y="-350" type="curve" smooth="yes"/>
      <point x="-22" y="-392"/>
      <point x="116" y="-450"/>
      <point x="243" y="-450" type="curve" smooth="yes"/>
      <point x="432" y="-450"/>
      <point x="696" y="-248"/>
      <point x="741" y="0" type="curve" smooth="yes"/>
      <point x="774" y="185"/>
      <point x="762" y="326"/>
      <point x="794" y="611" type="curve" smooth="yes"/>
      <point x="804" y="697"/>
      <point x="828" y="741"/>
    </contour>
  </outline>
</glyph>
<glyph name="h" format="2">
  <advance width="949"/>
  <unicode hex="0068"/>
  <anchor x="145" y="0" name="H"/>
  <anchor x="610" y="1422" name="U"/>
  <outline>
    <contour>
      <point x="919" y="87" type="curve"/>
      <point x="899" y="138" type="line"/>
      <point x="857" y="119"/>
      <point x="828" y="108"/>
      <point x="795" y="108" type="curve" smooth="yes"/>
      <point x="776" y="108"/>
      <point x="763" y="121"/>
      <point x="763" y="162" type="curve" smooth="yes"/>
      <point x="763" y="261"/>
      <point x="838" y="567"/>
      <point x="838" y="693" type="curve" smooth="yes"/>
      <point x="838" y="809"/>
      <point x="801" y="842"/>
      <point x="726" y="842" type="curve" smooth="yes"/>
      <point x="619" y="842"/>
      <point x="491" y="787"/>
      <point x="351" y="637" type="curve"/>
      <point x="373" y="767"/>
      <point x="442" y="1208"/>
      <point x="442" y="1294" type="curve" smooth="yes"/>
      <point x="442" y="1349"/>
      <point x="418" y="1368"/>
      <point x="385" y="1368" type="curve" smooth="yes"/>
      <point x="344" y="1368"/>
      <point x="191" y="1309"/>
      <point x="90" y="1264" type="curve"/>
      <point x="103" y="1211" type="line"/>
      <point x="126" y="1218"/>
      <point x="183" y="1235"/>
      <point x="202" y="1235" type="curve" smooth="yes"/>
      <point x="222" y="1235"/>
      <point x="239" y="1230"/>
      <point x="239" y="1175" type="curve" smooth="yes"/>
      <point x="239" y="1022"/>
      <point x="112" y="252"/>
      <point x="68" y="-4" type="curve"/>
      <point x="102" y="-36" type="line"/>
      <point x="132" y="-20"/>
      <point x="249" y="31"/>
      <point x="280" y="45" type="curve"/>
      <point x="280" y="87"/>
      <point x="281" y="138"/>
      <point x="301" y="270" type="curve" smooth="yes"/>
      <point x="317" y="378"/>
      <point x="338" y="467"/>
      <point x="372" y="523" type="curve" smooth="yes"/>
      <point x="449" y="650"/>
      <point x="557" y="697"/>
      <point x="588" y="697" type="curve" smooth="yes"/>
      <point x="626" y="697"/>
      <point x="639" y="675"/>
      <point x="639" y="594" type="curve" smooth="yes"/>
      <point x="639" y="513"/>
      <point x="565" y="132"/>
      <point x="565" y="68" type="curve" smooth="yes"/>
      <point x="565" y="3"/>
      <point x="597" y="-36"/>
      <point x="632" y="-36" type="curve" smooth="yes"/>
      <point x="693" y="-36"/>
      <point x="808" y="22"/>
    </contour>
  </outline>
</glyph>
<glyph name="i" format="2">
  <advance width="530"/>
  <unicode hex="0069"/>
  <outline>
    <contour>
      <point x="528" y="1135" type="curve" smooth="yes"/>
      <point x="528" y="1176"/>
      <point x="497" y="1217"/>
      <point x="424" y="1217" type="curve" smooth="yes"/>
      <point x="313" y="1217"/>
      <point x="251" y="1122"/>
      <point x="251" y="1058" type="curve" smooth="yes"/>
      <point x="251" y="1017"/>
      <point x="281" y="977"/>
      <point x="354" y="977" type="curve" smooth="yes"/>
      <point x="468" y="977"/>
      <point x="528" y="1069"/>
    </contour>
    <contour>
      <point x="508" y="109" type="curve"/>
      <point x="490" y="179" type="line"/>
      <point x="442" y="158"/>
      <point x="420" y="149"/>
      <point x="383" y="149" type="curve" smooth="yes"/>
      <point x="363" y="149"/>
      <point x="356" y="165"/>
      <point x="356" y="202" type="curve" smooth="yes"/>
      <point x="356" y="307"/>
      <point x="441" y="661"/>
      <point x="441" y="766" type="curve" smooth="yes"/>
      <point x="441" y="821"/>
      <point x="419" y="842"/>
      <point x="386" y="842" type="curve" smooth="yes"/>
      <point x="336" y="842"/>
      <point x="145" y="765"/>
      <point x="45" y="720" type="curve"/>
      <point x="62" y="650" type="line"/>
      <point x="88" y="659"/>
      <point x="128" y="672"/>
      <point x="143" y="672" type="curve" smooth="yes"/>
      <point x="165" y="672"/>
      <point x="180" y="666"/>
      <point x="180" y="612" type="curve" smooth="yes"/>
      <point x="180" y="523"/>
      <point x="99" y="175"/>
      <point x="99" y="68" type="curve" smooth="yes"/>
      <point x="99" y="3"/>
      <point x="134" y="-36"/>
      <point x="174" y="-36" type="curve" smooth="yes"/>
      <point x="245" y="-36"/>
      <point x="396" y="43"/>
    </contour>
  </outline>
</glyph>
<glyph name="j" format="2">
  <advance width="489"/>
  <unicode hex="006A"/>
  <anchor x="313" y="900" name="U"/>
  <outline>
    <contour>
      <point x="458" y="1135" type="curve"/>
      <point x="458" y="1176"/>
      <point x="432" y="1208"/>
      <point x="377" y="1208" type="curve" smooth="yes"/>
      <point x="287" y="1208"/>
      <point x="234" y="1122"/>
      <point x="234" y="1058" type="curve" smooth="yes"/>
      <point x="234" y="1017"/>
      <point x="260" y="986"/>
      <point x="315" y="986" type="curve" smooth="yes"/>
      <point x="405" y="986"/>
      <point x="458" y="1069"/>
    </contour>
    <contour>
      <point x="384" y="783" type="curve" smooth="yes"/>
      <point x="384" y="833"/>
      <point x="363" y="842"/>
      <point x="329" y="842" type="curve" smooth="yes"/>
      <point x="292" y="842"/>
      <point x="142" y="783"/>
      <point x="40" y="738" type="curve"/>
      <point x="56" y="686" type="line"/>
      <point x="84" y="695"/>
      <point x="126" y="708"/>
      <point x="141" y="708" type="curve" smooth="yes"/>
      <point x="162" y="708"/>
      <point x="178" y="702"/>
      <point x="178" y="648" type="curve" smooth="yes"/>
      <point x="178" y="611"/>
      <point x="163" y="464"/>
      <point x="157" y="405" type="curve" smooth="yes"/>
      <point x="150" y="337"/>
      <point x="135" y="187"/>
      <point x="106" y="9" type="curve" smooth="yes"/>
      <point x="68" y="-215"/>
      <point x="29" y="-313"/>
      <point x="-68" y="-313" type="curve" smooth="yes"/>
      <point x="-160" y="-313"/>
      <point x="-211" y="-230"/>
      <point x="-236" y="-230" type="curve" smooth="yes"/>
      <point x="-260" y="-230"/>
      <point x="-352" y="-336"/>
      <point x="-352" y="-368" type="curve" smooth="yes"/>
      <point x="-352" y="-392"/>
      <point x="-256" y="-450"/>
      <point x="-166" y="-450" type="curve" smooth="yes"/>
      <point x="-106" y="-450"/>
      <point x="-16" y="-423"/>
      <point x="49" y="-372" type="curve" smooth="yes"/>
      <point x="150" y="-293"/>
      <point x="269" y="-167"/>
      <point x="305" y="72" type="curve" smooth="yes"/>
      <point x="325" y="213"/>
      <point x="341" y="351"/>
      <point x="348" y="425" type="curve" smooth="yes"/>
      <point x="356" y="503"/>
      <point x="384" y="744"/>
    </contour>
  </outline>
</glyph>
<glyph name="k" format="2">
  <advance width="872"/>
  <unicode hex="006B"/>
  <outline>
    <contour>
      <point x="881" y="776" type="curve"/>
      <point x="881" y="817"/>
      <point x="865" y="837"/>
      <point x="799" y="837" type="curve" smooth="yes"/>
      <point x="723" y="837"/>
      <point x="636" y="819"/>
      <point x="548" y="807" type="curve"/>
      <point x="554" y="754" type="line"/>
      <point x="615" y="756"/>
      <point x="644" y="750"/>
      <point x="644" y="733" type="curve" smooth="yes"/>
      <point x="644" y="710"/>
      <point x="589" y="666"/>
      <point x="493" y="594" type="curve" smooth="yes"/>
      <point x="305" y="453" type="line"/>
      <point x="407" y="422" type="line"/>
      <point x="594" y="535" type="line" smooth="yes"/>
      <point x="774" y="645"/>
      <point x="881" y="741"/>
    </contour>
    <contour>
      <point x="441" y="1275" type="curve" smooth="yes"/>
      <point x="441" y="1359"/>
      <point x="421" y="1368"/>
      <point x="387" y="1368" type="curve" smooth="yes"/>
      <point x="349" y="1368"/>
      <point x="189" y="1309"/>
      <point x="88" y="1264" type="curve"/>
      <point x="103" y="1211" type="line"/>
      <point x="125" y="1219"/>
      <point x="178" y="1235"/>
      <point x="196" y="1235" type="curve" smooth="yes"/>
      <point x="224" y="1235"/>
      <point x="239" y="1232"/>
      <point x="239" y="1172" type="curve" smooth="yes"/>
      <point x="239" y="990"/>
      <point x="86" y="135"/>
      <point x="68" y="-4" type="curve"/>
      <point x="104" y="-36" type="line"/>
      <point x="134" y="-21"/>
      <point x="255" y="31"/>
      <point x="288" y="46" type="curve"/>
      <point x="252" y="170"/>
      <point x="441" y="1043"/>
    </contour>
    <contour>
      <point x="867" y="88" type="curve"/>
      <point x="843" y="136" type="line"/>
      <point x="810" y="117"/>
      <point x="767" y="108"/>
      <point x="731" y="108" type="curve" smooth="yes"/>
      <point x="650" y="108"/>
      <point x="550" y="441"/>
      <point x="443" y="504" type="curve"/>
      <point x="305" y="453" type="line"/>
      <point x="403" y="383"/>
      <point x="513" y="-35"/>
      <point x="644" y="-35" type="curve" smooth="yes"/>
      <point x="694" y="-35"/>
      <point x="788" y="21"/>
    </contour>
  </outline>
</glyph>
<glyph name="l" format="2">
  <advance width="512"/>
  <unicode hex="006C"/>
  <outline>
    <contour>
      <point x="489" y="109" type="curve"/>
      <point x="474" y="179" type="line"/>
      <point x="421" y="158"/>
      <point x="395" y="149"/>
      <point x="367" y="149" type="curve" smooth="yes"/>
      <point x="348" y="149"/>
      <point x="335" y="162"/>
      <point x="335" y="202" type="curve" smooth="yes"/>
      <point x="335" y="366"/>
      <point x="483" y="1107"/>
      <point x="483" y="1294" type="curve" smooth="yes"/>
      <point x="483" y="1349"/>
      <point x="461" y="1368"/>
      <point x="428" y="1368" type="curve" smooth="yes"/>
      <point x="378" y="1368"/>
      <point x="175" y="1291"/>
      <point x="73" y="1246" type="curve"/>
      <point x="91" y="1175" type="line"/>
      <point x="119" y="1186"/>
      <point x="162" y="1199"/>
      <point x="176" y="1199" type="curve" smooth="yes"/>
      <point x="198" y="1199"/>
      <point x="222" y="1194"/>
      <point x="222" y="1139" type="curve" smooth="yes"/>
      <point x="222" y="971"/>
      <point x="76" y="189"/>
      <point x="76" y="70" type="curve" smooth="yes"/>
      <point x="76" y="0"/>
      <point x="108" y="-36"/>
      <point x="141" y="-36" type="curve" smooth="yes"/>
      <point x="220" y="-36"/>
      <point x="371" y="36"/>
    </contour>
  </outline>
</glyph>
<glyph name="m" format="2">
  <advance width="1355"/>
  <unicode hex="006D"/>
  <anchor x="1069" y="0" name="H"/>
  <anchor x="744" y="900" name="U"/>
  <outline>
    <contour>
      <point x="1302" y="76" type="curve"/>
      <point x="1291" y="118" type="line"/>
      <point x="1242" y="99"/>
      <point x="1215" y="90"/>
      <point x="1179" y="90" type="curve" smooth="yes"/>
      <point x="1159" y="90"/>
      <point x="1146" y="101"/>
      <point x="1146" y="141" type="curve" smooth="yes"/>
      <point x="1146" y="241"/>
      <point x="1223" y="547"/>
      <point x="1223" y="684" type="curve" smooth="yes"/>
      <point x="1223" y="800"/>
      <point x="1174" y="842"/>
      <point x="1104" y="842" type="curve" smooth="yes"/>
      <point x="1014" y="842"/>
      <point x="924" y="786"/>
      <point x="784" y="632" type="curve"/>
      <point x="786" y="654"/>
      <point x="787" y="668"/>
      <point x="787" y="686" type="curve" smooth="yes"/>
      <point x="787" y="765"/>
      <point x="760" y="842"/>
      <point x="670" y="842" type="curve" smooth="yes"/>
      <point x="572" y="842"/>
      <point x="471" y="786"/>
      <point x="328" y="623" type="curve"/>
      <point x="332" y="663"/>
      <point x="338" y="715"/>
      <point x="338" y="738" type="curve" smooth="yes"/>
      <point x="338" y="823"/>
      <point x="332" y="842"/>
      <point x="295" y="842" type="curve" smooth="yes"/>
      <point x="261" y="842"/>
      <point x="134" y="792"/>
      <point x="32" y="748" type="curve"/>
      <point x="44" y="704" type="line"/>
      <point x="44" y="704"/>
      <point x="115" y="728"/>
      <point x="138" y="728" type="curve" smooth="yes"/>
      <point x="158" y="728"/>
      <point x="173" y="720"/>
      <point x="173" y="666" type="curve" smooth="yes"/>
      <point x="173" y="562"/>
      <point x="123" y="247"/>
      <point x="74" y="-6" type="curve"/>
      <point x="105" y="-36" type="line"/>
      <point x="135" y="-20"/>
      <point x="227" y="16"/>
      <point x="259" y="33" type="curve"/>
      <point x="257" y="83"/>
      <point x="261" y="156"/>
      <point x="280" y="265" type="curve" smooth="yes"/>
      <point x="300" y="387"/>
      <point x="319" y="469"/>
      <point x="366" y="541" type="curve" smooth="yes"/>
      <point x="451" y="673"/>
      <point x="545" y="723"/>
      <point x="572" y="723" type="curve" smooth="yes"/>
      <point x="603" y="723"/>
      <point x="621" y="696"/>
      <point x="621" y="616" type="curve" smooth="yes"/>
      <point x="621" y="528"/>
      <point x="573" y="238"/>
      <point x="520" y="-6" type="curve"/>
      <point x="551" y="-36" type="line"/>
      <point x="583" y="-20"/>
      <point x="676" y="16"/>
      <point x="709" y="33" type="curve"/>
      <point x="706" y="84"/>
      <point x="710" y="156"/>
      <point x="726" y="265" type="curve" smooth="yes"/>
      <point x="745" y="387"/>
      <point x="759" y="463"/>
      <point x="808" y="540" type="curve" smooth="yes"/>
      <point x="894" y="672"/>
      <point x="984" y="723"/>
      <point x="1022" y="723" type="curve" smooth="yes"/>
      <point x="1044" y="723"/>
      <point x="1060" y="696"/>
      <point x="1060" y="629" type="curve" smooth="yes"/>
      <point x="1060" y="509"/>
      <point x="978" y="132"/>
      <point x="978" y="68" type="curve" smooth="yes"/>
      <point x="978" y="3"/>
      <point x="1008" y="-36"/>
      <point x="1044" y="-36" type="curve" smooth="yes"/>
      <point x="1099" y="-36"/>
      <point x="1191" y="11"/>
    </contour>
  </outline>
</glyph>
<glyph name="n" format="2">
  <advance width="931"/>
  <unicode hex="006E"/>
  <anchor x="657" y="0" name="H"/>
  <anchor x="535" y="900" name="U"/>
  <outline>
    <contour>
      <point x="900" y="76" type="curve"/>
      <point x="883" y="118" type="line"/>
      <point x="835" y="97"/>
      <point x="803" y="88"/>
      <point x="776" y="88" type="curve" smooth="yes"/>
      <point x="754" y="88"/>
      <point x="743" y="101"/>
      <point x="743" y="141" type="curve" smooth="yes"/>
      <point x="743" y="241"/>
      <point x="823" y="565"/>
      <point x="823" y="690" type="curve" smooth="yes"/>
      <point x="823" y="806"/>
      <point x="781" y="842"/>
      <point x="706" y="842" type="curve" smooth="yes"/>
      <point x="598" y="842"/>
      <point x="465" y="776"/>
      <point x="334" y="623" type="curve"/>
      <point x="338" y="653"/>
      <point x="342" y="715"/>
      <point x="342" y="740" type="curve" smooth="yes"/>
      <point x="342" y="826"/>
      <point x="338" y="842"/>
      <point x="305" y="842" type="curve" smooth="yes"/>
      <point x="273" y="842"/>
      <point x="139" y="792"/>
      <point x="37" y="748" type="curve"/>
      <point x="51" y="704" type="line"/>
      <point x="73" y="711"/>
      <point x="128" y="728"/>
      <point x="145" y="728" type="curve" smooth="yes"/>
      <point x="167" y="728"/>
      <point x="179" y="722"/>
      <point x="179" y="667" type="curve" smooth="yes"/>
      <point x="179" y="583"/>
      <point x="129" y="232"/>
      <point x="79" y="-6" type="curve"/>
      <point x="111" y="-36" type="line"/>
      <point x="141" y="-22"/>
      <point x="233" y="20"/>
      <point x="265" y="33" type="curve"/>
      <point x="263" y="100"/>
      <point x="266" y="163"/>
      <point x="285" y="270" type="curve" smooth="yes"/>
      <point x="306" y="387"/>
      <point x="323" y="464"/>
      <point x="357" y="522" type="curve" smooth="yes"/>
      <point x="441" y="661"/>
      <point x="561" y="725"/>
      <point x="592" y="725" type="curve" smooth="yes"/>
      <point x="640" y="725"/>
      <point x="654" y="696"/>
      <point x="654" y="612" type="curve" smooth="yes"/>
      <point x="654" y="531"/>
      <point x="575" y="132"/>
      <point x="575" y="68" type="curve" smooth="yes"/>
      <point x="575" y="3"/>
      <point x="602" y="-36"/>
      <point x="644" y="-36" type="curve" smooth="yes"/>
      <point x="695" y="-36"/>
      <point x="791" y="11"/>
    </contour>
  </outline>
</glyph>
<glyph name="o" format="2">
  <advance width="831"/>
  <unicode hex="006F"/>
  <outline>
    <contour>
      <point x="819" y="503" type="curve" smooth="yes"/>
      <point x="819" y="702"/>
      <point x="707" y="842"/>
      <point x="519" y="842" type="curve" smooth="yes"/>
      <point x="436" y="842"/>
      <point x="339" y="803"/>
      <point x="276" y="756" type="curve" smooth="yes"/>
      <point x="115" y="633"/>
      <point x="47" y="481"/>
      <point x="47" y="309" type="curve" smooth="yes"/>
      <point x="47" y="112"/>
      <point x="166" y="-36"/>
      <point x="360" y="-36" type="curve" smooth="yes"/>
      <point x="432" y="-36"/>
      <point x="532" y="5"/>
      <point x="595" y="56" type="curve" smooth="yes"/>
      <point x="729" y="167"/>
      <point x="819" y="342"/>
    </contour>
    <contour>
      <point x="583" y="425" type="curve" smooth="yes"/>
      <point x="583" y="278"/>
      <point x="542" y="91"/>
      <point x="422" y="91" type="curve" smooth="yes"/>
      <point x="356" y="91"/>
      <point x="285" y="225"/>
      <point x="285" y="385" type="curve" smooth="yes"/>
      <point x="285" y="538"/>
      <point x="328" y="710"/>
      <point x="457" y="710" type="curve" smooth="yes"/>
      <point x="517" y="710"/>
      <point x="583" y="608"/>
    </contour>
  </outline>
</glyph>
<glyph name="p" format="2">
  <advance width="940"/>
  <unicode hex="0070"/>
  <outline>
    <contour>
      <point x="886" y="564" type="curve" smooth="yes"/>
      <point x="886" y="744"/>
      <point x="791" y="842"/>
      <point x="680" y="842" type="curve" smooth="yes"/>
      <point x="586" y="842"/>
      <point x="496" y="801"/>
      <point x="343" y="624" type="curve"/>
      <point x="350" y="454" type="line"/>
      <point x="427" y="597"/>
      <point x="530" y="670"/>
      <point x="567" y="670" type="curve" smooth="yes"/>
      <point x="606" y="670"/>
      <point x="647" y="584"/>
      <point x="647" y="469" type="curve" smooth="yes"/>
      <point x="647" y="374"/>
      <point x="631" y="286"/>
      <point x="606" y="233" type="curve" smooth="yes"/>
      <point x="586" y="190"/>
      <point x="547" y="158"/>
      <point x="500" y="158" type="curve" smooth="yes"/>
      <point x="450" y="158"/>
      <point x="354" y="203"/>
      <point x="315" y="264" type="curve"/>
      <point x="292" y="129" type="line"/>
      <point x="371" y="16"/>
      <point x="467" y="-36"/>
      <point x="523" y="-36" type="curve" smooth="yes"/>
      <point x="621" y="-36"/>
      <point x="706" y="54"/>
      <point x="761" y="142" type="curve" smooth="yes"/>
      <point x="824" y="242"/>
      <point x="886" y="416"/>
    </contour>
    <contour>
      <point x="403" y="783" type="curve" smooth="yes"/>
      <point x="403" y="829"/>
      <point x="385" y="842"/>
      <point x="351" y="842" type="curve" smooth="yes"/>
      <point x="304" y="842"/>
      <point x="111" y="771"/>
      <point x="3" y="720" type="curve"/>
      <point x="20" y="650" type="line"/>
      <point x="38" y="657"/>
      <point x="87" y="672"/>
      <point x="101" y="672" type="curve" smooth="yes"/>
      <point x="122" y="672"/>
      <point x="144" y="666"/>
      <point x="144" y="612" type="curve" smooth="yes"/>
      <point x="144" y="459"/>
      <point x="-5" y="-277"/>
      <point x="-23" y="-414" type="curve"/>
      <point x="14" y="-450" type="line"/>
      <point x="45" y="-435"/>
      <point x="213" y="-366"/>
      <point x="248" y="-357" type="curve"/>
      <point x="235" y="-324"/>
      <point x="243" y="-242"/>
      <point x="283" y="5" type="curve" smooth="yes"/>
      <point x="363" y="504"/>
      <point x="403" y="705"/>
    </contour>
  </outline>
</glyph>
<glyph name="q" format="2">
  <advance width="875"/>
  <unicode hex="0071"/>
  <outline>
    <contour>
      <point x="813" y="727" type="curve"/>
      <point x="773" y="732"/>
      <point x="667" y="842"/>
      <point x="568" y="842" type="curve" smooth="yes"/>
      <point x="493" y="842"/>
      <point x="367" y="801"/>
      <point x="300" y="757" type="curve" smooth="yes"/>
      <point x="131" y="647"/>
      <point x="29" y="464"/>
      <point x="29" y="274" type="curve" smooth="yes"/>
      <point x="29" y="49"/>
      <point x="151" y="-36"/>
      <point x="239" y="-36" type="curve" smooth="yes"/>
      <point x="317" y="-36"/>
      <point x="387" y="5"/>
      <point x="507" y="145" type="curve"/>
      <point x="539" y="350" type="line"/>
      <point x="429" y="198"/>
      <point x="369" y="158"/>
      <point x="340" y="158" type="curve" smooth="yes"/>
      <point x="297" y="158"/>
      <point x="253" y="213"/>
      <point x="253" y="341" type="curve" smooth="yes"/>
      <point x="253" y="483"/>
      <point x="324" y="702"/>
      <point x="469" y="702" type="curve" smooth="yes"/>
      <point x="542" y="702"/>
      <point x="641" y="549"/>
      <point x="673" y="549" type="curve" smooth="yes"/>
      <point x="702" y="549"/>
      <point x="762" y="692"/>
    </contour>
    <contour>
      <point x="873" y="774" type="curve"/>
      <point x="838" y="842" type="line"/>
      <point x="757" y="809"/>
      <point x="590" y="738"/>
      <point x="581" y="684" type="curve" smooth="yes"/>
      <point x="511" y="263"/>
      <point x="422" y="-277"/>
      <point x="403" y="-414" type="curve"/>
      <point x="443" y="-450" type="line"/>
      <point x="473" y="-435"/>
      <point x="648" y="-368"/>
      <point x="680" y="-357" type="curve"/>
      <point x="641" y="-278"/>
      <point x="717" y="170"/>
      <point x="797" y="648" type="curve" smooth="yes"/>
      <point x="810" y="720"/>
      <point x="828" y="740"/>
    </contour>
  </outline>
</glyph>
<glyph name="r" format="2">
  <advance width="719"/>
  <unicode hex="0072"/>
  <outline>
    <contour>
      <point x="765" y="765" type="curve"/>
      <point x="712" y="786"/>
      <point x="661" y="842"/>
      <point x="618" y="842" type="curve" smooth="yes"/>
      <point x="541" y="842"/>
      <point x="458" y="797"/>
      <point x="342" y="592" type="curve"/>
      <point x="349" y="637"/>
      <point x="360" y="722"/>
      <point x="360" y="747" type="curve" smooth="yes"/>
      <point x="360" y="823"/>
      <point x="354" y="842"/>
      <point x="320" y="842" type="curve" smooth="yes"/>
      <point x="282" y="842"/>
      <point x="129" y="783"/>
      <point x="27" y="738" type="curve"/>
      <point x="42" y="686" type="line"/>
      <point x="61" y="693"/>
      <point x="112" y="708"/>
      <point x="130" y="708" type="curve" smooth="yes"/>
      <point x="150" y="708"/>
      <point x="167" y="702"/>
      <point x="167" y="648" type="curve" smooth="yes"/>
      <point x="167" y="539"/>
      <point x="123" y="251"/>
      <point x="70" y="-4" type="curve"/>
      <point x="104" y="-36" type="line"/>
      <point x="133" y="-22"/>
      <point x="248" y="30"/>
      <point x="283" y="45" type="curve"/>
      <point x="279" y="140"/>
      <point x="297" y="254"/>
      <point x="323" y="344" type="curve" smooth="yes"/>
      <point x="373" y="517"/>
      <point x="474" y="665"/>
      <point x="537" y="665" type="curve" smooth="yes"/>
      <point x="572" y="665"/>
      <point x="602" y="598"/>
      <point x="647" y="598" type="curve" smooth="yes"/>
      <point x="670" y="598"/>
      <point x="735" y="726"/>
    </contour>
  </outline>
</glyph>
<glyph name="s" format="2">
  <advance width="729"/>
  <unicode hex="0073"/>
  <outline>
    <contour>
      <point x="736" y="759" type="curve"/>
      <point x="654" y="773"/>
      <point x="583" y="842"/>
      <point x="452" y="842" type="curve" smooth="yes"/>
      <point x="301" y="842"/>
      <point x="92" y="738"/>
      <point x="92" y="587" type="curve" smooth="yes"/>
      <point x="92" y="510"/>
      <point x="126" y="440"/>
      <point x="252" y="374" type="curve" smooth="yes"/>
      <point x="342" y="327"/>
      <point x="435" y="270"/>
      <point x="435" y="191" type="curve" smooth="yes"/>
      <point x="435" y="126"/>
      <point x="392" y="85"/>
      <point x="316" y="85" type="curve" smooth="yes"/>
      <point x="167" y="85"/>
      <point x="121" y="290"/>
      <point x="88" y="290" type="curve" smooth="yes"/>
      <point x="63" y="290"/>
      <point x="-21" y="141"/>
      <point x="-21" y="106" type="curve" smooth="yes"/>
      <point x="-21" y="54"/>
      <point x="96" y="-36"/>
      <point x="262" y="-36" type="curve" smooth="yes"/>
      <point x="419" y="-36"/>
      <point x="661" y="93"/>
      <point x="661" y="260" type="curve" smooth="yes"/>
      <point x="661" y="387"/>
      <point x="562" y="451"/>
      <point x="464" y="503" type="curve" smooth="yes"/>
      <point x="368" y="553"/>
      <point x="313" y="586"/>
      <point x="313" y="647" type="curve" smooth="yes"/>
      <point x="313" y="697"/>
      <point x="338" y="730"/>
      <point x="405" y="730" type="curve" smooth="yes"/>
      <point x="493" y="730"/>
      <point x="555" y="603"/>
      <point x="594" y="603" type="curve" smooth="yes"/>
      <point x="621" y="603"/>
      <point x="697" y="705"/>
    </contour>
  </outline>
</glyph>
<glyph name="t" format="2">
  <advance width="642"/>
  <unicode hex="0074"/>
  <outline>
    <contour>
      <point x="675" y="780" type="curve"/>
      <point x="648" y="814" type="line"/>
      <point x="148" y="814" type="line"/>
      <point x="35" y="734" type="line"/>
      <point x="57" y="697" type="line"/>
      <point x="418" y="697" type="line" smooth="yes"/>
      <point x="490" y="697"/>
      <point x="532" y="690"/>
      <point x="547" y="657" type="curve"/>
      <point x="569" y="669"/>
      <point x="650" y="747"/>
    </contour>
    <contour>
      <point x="621" y="150" type="curve"/>
      <point x="594" y="228" type="line"/>
      <point x="504" y="188"/>
      <point x="454" y="171"/>
      <point x="412" y="171" type="curve" smooth="yes"/>
      <point x="378" y="171"/>
      <point x="356" y="197"/>
      <point x="356" y="270" type="curve" smooth="yes"/>
      <point x="356" y="295"/>
      <point x="360" y="355"/>
      <point x="367" y="401" type="curve" smooth="yes"/>
      <point x="441" y="866" type="line" smooth="yes"/>
      <point x="458" y="974"/>
      <point x="477" y="1026"/>
      <point x="486" y="1035" type="curve"/>
      <point x="461" y="1058" type="line"/>
      <point x="262" y="966" type="line" smooth="yes"/>
      <point x="231" y="952"/>
      <point x="215" y="937"/>
      <point x="200" y="846" type="curve" smooth="yes"/>
      <point x="113" y="298" type="line" smooth="yes"/>
      <point x="102" y="232"/>
      <point x="100" y="189"/>
      <point x="100" y="144" type="curve" smooth="yes"/>
      <point x="100" y="38"/>
      <point x="189" y="-36"/>
      <point x="267" y="-36" type="curve" smooth="yes"/>
      <point x="338" y="-36"/>
      <point x="485" y="41"/>
    </contour>
  </outline>
</glyph>
<glyph name="u" format="2">
  <advance width="1014"/>
  <unicode hex="0075"/>
  <outline>
    <contour>
      <point x="990" y="106" type="curve"/>
      <point x="972" y="174" type="line"/>
      <point x="929" y="156"/>
      <point x="909" y="149"/>
      <point x="878" y="149" type="curve" smooth="yes"/>
      <point x="848" y="149"/>
      <point x="830" y="182"/>
      <point x="830" y="291" type="curve" smooth="yes"/>
      <point x="830" y="409"/>
      <point x="892" y="661"/>
      <point x="892" y="766" type="curve" smooth="yes"/>
      <point x="892" y="821"/>
      <point x="884" y="842"/>
      <point x="851" y="842" type="curve" smooth="yes"/>
      <point x="802" y="842"/>
      <point x="608" y="765"/>
      <point x="506" y="720" type="curve"/>
      <point x="524" y="650" type="line"/>
      <point x="548" y="659"/>
      <point x="585" y="672"/>
      <point x="600" y="672" type="curve" smooth="yes"/>
      <point x="621" y="672"/>
      <point x="633" y="666"/>
      <point x="633" y="612" type="curve" smooth="yes"/>
      <point x="633" y="541"/>
      <point x="596" y="382"/>
      <point x="586" y="276" type="curve" smooth="yes"/>
      <point x="567" y="71"/>
      <point x="650" y="-36"/>
      <point x="718" y="-36" type="curve" smooth="yes"/>
      <point x="781" y="-36"/>
      <point x="895" y="41"/>
    </contour>
    <contour>
      <point x="598" y="354" type="line"/>
      <point x="497" y="219"/>
      <point x="421" y="162"/>
      <point x="381" y="162" type="curve" smooth="yes"/>
      <point x="364" y="162"/>
      <point x="341" y="193"/>
      <point x="341" y="244" type="curve" smooth="yes"/>
      <point x="341" y="350"/>
      <point x="413" y="661"/>
      <point x="413" y="766" type="curve" smooth="yes"/>
      <point x="413" y="821"/>
      <point x="404" y="842"/>
      <point x="369" y="842" type="curve" smooth="yes"/>
      <point x="321" y="842"/>
      <point x="118" y="765"/>
      <point x="17" y="720" type="curve"/>
      <point x="32" y="650" type="line"/>
      <point x="59" y="659"/>
      <point x="100" y="672"/>
      <point x="116" y="672" type="curve" smooth="yes"/>
      <point x="137" y="672"/>
      <point x="153" y="666"/>
      <point x="153" y="612" type="curve" smooth="yes"/>
      <point x="153" y="523"/>
      <point x="95" y="291"/>
      <point x="95" y="184" type="curve" smooth="yes"/>
      <point x="95" y="38"/>
      <point x="189" y="-36"/>
      <point x="263" y="-36" type="curve" smooth="yes"/>
      <point x="368" y="-36"/>
      <point x="501" y="52"/>
      <point x="591" y="170" type="curve"/>
    </contour>
  </outline>
</glyph>
<glyph name="v" format="2">
  <advance width="859"/>
  <unicode hex="0076"/>
  <anchor x="378" y="0" name="H"/>
  <anchor x="492" y="900" name="U"/>
  <outline>
    <contour>
      <point x="850" y="766" type="curve"/>
      <point x="850" y="823"/>
      <point x="821" y="842"/>
      <point x="779" y="842" type="curve" smooth="yes"/>
      <point x="730" y="842"/>
      <point x="598" y="789"/>
      <point x="525" y="749" type="curve"/>
      <point x="544" y="700" type="line"/>
      <point x="570" y="710"/>
      <point x="591" y="713"/>
      <point x="611" y="713" type="curve" smooth="yes"/>
      <point x="644" y="713"/>
      <point x="662" y="700"/>
      <point x="662" y="672" type="curve" smooth="yes"/>
      <point x="662" y="629"/>
      <point x="612" y="455"/>
      <point x="442" y="185" type="curve"/>
      <point x="440" y="231"/>
      <point x="369" y="636"/>
      <point x="342" y="728" type="curve" smooth="yes"/>
      <point x="316" y="812"/>
      <point x="300" y="842"/>
      <point x="265" y="842" type="curve" smooth="yes"/>
      <point x="231" y="842"/>
      <point x="106" y="782"/>
      <point x="5" y="733" type="curve"/>
      <point x="23" y="682" type="line"/>
      <point x="49" y="690"/>
      <point x="94" y="703"/>
      <point x="112" y="703" type="curve" smooth="yes"/>
      <point x="132" y="703"/>
      <point x="157" y="694"/>
      <point x="176" y="630" type="curve" smooth="yes"/>
      <point x="208" y="520"/>
      <point x="268" y="198"/>
      <point x="294" y="-4" type="curve"/>
      <point x="328" y="-36" type="line"/>
      <point x="352" y="-26"/>
      <point x="435" y="13"/>
      <point x="455" y="24" type="curve"/>
      <point x="750" y="497"/>
      <point x="850" y="689"/>
    </contour>
  </outline>
</glyph>
<glyph name="w" format="2">
  <advance width="1278"/>
  <unicode hex="0077"/>
  <outline>
    <contour>
      <point x="1285" y="774" type="curve" smooth="yes"/>
      <point x="1285" y="833"/>
      <point x="1250" y="842"/>
      <point x="1209" y="842" type="curve" smooth="yes"/>
      <point x="1148" y="842"/>
      <point x="1026" y="801"/>
      <point x="934" y="743" type="curve"/>
      <point x="959" y="674" type="line"/>
      <point x="985" y="682"/>
      <point x="1019" y="687"/>
      <point x="1036" y="687" type="curve" smooth="yes"/>
      <point x="1068" y="687"/>
      <point x="1086" y="672"/>
      <point x="1086" y="647" type="curve" smooth="yes"/>
      <point x="1086" y="581"/>
      <point x="1009" y="437"/>
      <point x="903" y="249" type="curve"/>
      <point x="896" y="323"/>
      <point x="875" y="427"/>
      <point x="857" y="540" type="curve"/>
      <point x="838" y="648"/>
      <point x="792" y="842"/>
      <point x="778" y="842" type="curve" smooth="yes"/>
      <point x="737" y="842"/>
      <point x="631" y="773"/>
      <point x="578" y="723" type="curve"/>
      <point x="575" y="635"/>
      <point x="510" y="445"/>
      <point x="414" y="259" type="curve"/>
      <point x="408" y="349"/>
      <point x="372" y="649"/>
      <point x="357" y="719" type="curve" smooth="yes"/>
      <point x="338" y="805"/>
      <point x="324" y="842"/>
      <point x="291" y="842" type="curve" smooth="yes"/>
      <point x="251" y="842"/>
      <point x="90" y="767"/>
      <point x="-14" y="711" type="curve"/>
      <point x="7" y="641" type="line"/>
      <point x="7" y="641"/>
      <point x="75" y="663"/>
      <point x="96" y="663" type="curve" smooth="yes"/>
      <point x="117" y="663"/>
      <point x="145" y="654"/>
      <point x="160" y="589" type="curve" smooth="yes"/>
      <point x="173" y="531"/>
      <point x="207" y="205"/>
      <point x="227" y="0" type="curve"/>
      <point x="265" y="-36" type="line"/>
      <point x="289" y="-26"/>
      <point x="432" y="52"/>
      <point x="453" y="63" type="curve"/>
      <point x="560" y="255"/>
      <point x="617" y="388"/>
      <point x="644" y="477" type="curve"/>
      <point x="675" y="366"/>
      <point x="700" y="202"/>
      <point x="726" y="0" type="curve"/>
      <point x="765" y="-36" type="line"/>
      <point x="788" y="-26"/>
      <point x="914" y="41"/>
      <point x="935" y="52" type="curve"/>
      <point x="1211" y="551"/>
      <point x="1285" y="678"/>
    </contour>
  </outline>
</glyph>
<glyph name="x" format="2">
  <advance width="837"/>
  <unicode hex="0078"/>
  <anchor x="607" y="0" name="H"/>
  <anchor x="508" y="900" name="U"/>
  <outline>
    <contour>
      <point x="839" y="794" type="curve" smooth="yes"/>
      <point x="839" y="819"/>
      <point x="814" y="842"/>
      <point x="748" y="842" type="curve" smooth="yes"/>
      <point x="705" y="842"/>
      <point x="607" y="832"/>
      <point x="528" y="815" type="curve"/>
      <point x="531" y="760" type="line"/>
      <point x="548" y="762"/>
      <point x="562" y="763"/>
      <point x="573" y="763" type="curve" smooth="yes"/>
      <point x="616" y="763"/>
      <point x="628" y="751"/>
      <point x="628" y="731" type="curve" smooth="yes"/>
      <point x="628" y="712"/>
      <point x="530" y="569"/>
      <point x="423" y="446" type="curve"/>
      <point x="479" y="369" type="line"/>
      <point x="714" y="614"/>
      <point x="839" y="747"/>
    </contour>
    <contour>
      <point x="820" y="82" type="curve"/>
      <point x="801" y="134" type="line"/>
      <point x="756" y="111"/>
      <point x="715" y="104"/>
      <point x="687" y="104" type="curve" smooth="yes"/>
      <point x="570" y="104"/>
      <point x="404" y="842"/>
      <point x="270" y="842" type="curve" smooth="yes"/>
      <point x="236" y="842"/>
      <point x="102" y="779"/>
      <point x="19" y="738" type="curve"/>
      <point x="36" y="684" type="line"/>
      <point x="70" y="693"/>
      <point x="133" y="708"/>
      <point x="151" y="708" type="curve" smooth="yes"/>
      <point x="272" y="708"/>
      <point x="422" y="-36"/>
      <point x="580" y="-36" type="curve" smooth="yes"/>
      <point x="636" y="-36"/>
      <point x="717" y="10"/>
    </contour>
    <contour>
      <point x="425" y="332" type="curve"/>
      <point x="369" y="413" type="line"/>
      <point x="262" y="281"/>
      <point x="82" y="102"/>
      <point x="-35" y="0" type="curve"/>
      <point x="-9" y="-36" type="line"/>
      <point x="34" y="-24"/>
      <point x="144" y="-5"/>
      <point x="189" y="0" type="curve"/>
      <point x="284" y="144"/>
      <point x="376" y="260"/>
    </contour>
  </outline>
</glyph>
<glyph name="y" format="2">
  <advance width="896"/>
  <unicode hex="0079"/>
  <outline>
    <contour>
      <point x="532" y="51" type="line"/>
      <point x="490" y="292"/>
      <point x="414" y="576"/>
      <point x="361" y="728" type="curve" smooth="yes"/>
      <point x="333" y="810"/>
      <point x="308" y="842"/>
      <point x="275" y="842" type="curve" smooth="yes"/>
      <point x="228" y="842"/>
      <point x="81" y="774"/>
      <point x="-27" y="720" type="curve"/>
      <point x="-8" y="650" type="line"/>
      <point x="20" y="659"/>
      <point x="63" y="672"/>
      <point x="80" y="672" type="curve" smooth="yes"/>
      <point x="100" y="672"/>
      <point x="117" y="659"/>
      <point x="144" y="598" type="curve" smooth="yes"/>
      <point x="198" y="484"/>
      <point x="301" y="93"/>
      <point x="336" y="-114" type="curve"/>
      <point x="366" y="-140" type="line"/>
    </contour>
    <contour>
      <point x="884" y="774" type="curve" smooth="yes"/>
      <point x="884" y="833"/>
      <point x="842" y="842"/>
      <point x="801" y="842" type="curve" smooth="yes"/>
      <point x="734" y="842"/>
      <point x="600" y="785"/>
      <point x="513" y="736" type="curve"/>
      <point x="539" y="666" type="line"/>
      <point x="574" y="682"/>
      <point x="591" y="687"/>
      <point x="612" y="687" type="curve" smooth="yes"/>
      <point x="642" y="687"/>
      <point x="659" y="668"/>
      <point x="659" y="639" type="curve" smooth="yes"/>
      <point x="659" y="567"/>
      <point x="541" y="301"/>
      <point x="415" y="66" type="curve" smooth="yes"/>
      <point x="303" y="-143"/>
      <point x="211" y="-264"/>
      <point x="131" y="-264" type="curve" smooth="yes"/>
      <point x="87" y="-264"/>
      <point x="14" y="-230"/>
      <point x="-42" y="-171" type="curve"/>
      <point x="-75" y="-189"/>
      <point x="-180" y="-322"/>
      <point x="-180" y="-359" type="curve" smooth="yes"/>
      <point x="-180" y="-387"/>
      <point x="-68" y="-450"/>
      <point x="30" y="-450" type="curve" smooth="yes"/>
      <point x="244" y="-450"/>
      <point x="394" y="-234"/>
      <point x="562" y="73" type="curve" smooth="yes"/>
      <point x="734" y="388"/>
      <point x="884" y="693"/>
    </contour>
  </outline>
</glyph>
<glyph name="z" format="2">
  <advance width="698"/>
  <unicode hex="007A"/>
  <anchor x="325" y="0" name="H"/>
  <anchor x="441" y="900" name="U"/>
  <outline>
    <contour>
      <point x="703" y="789" type="curve"/>
      <point x="680" y="823" type="line"/>
      <point x="241" y="823" type="line" smooth="yes"/>
      <point x="204" y="823"/>
      <point x="162" y="835"/>
      <point x="139" y="842" type="curve"/>
      <point x="130" y="791"/>
      <point x="97" y="673"/>
      <point x="75" y="566" type="curve"/>
      <point x="125" y="554" type="line"/>
      <point x="160" y="655"/>
      <point x="184" y="675"/>
      <point x="241" y="675" type="curve" smooth="yes"/>
      <point x="469" y="675" type="line"/>
      <point x="365" y="550"/>
      <point x="167" y="228"/>
      <point x="-11" y="12" type="curve"/>
      <point x="16" y="-27" type="line"/>
      <point x="106" y="21"/>
      <point x="159" y="42"/>
      <point x="193" y="42" type="curve" smooth="yes"/>
      <point x="260" y="42"/>
      <point x="360" y="-18"/>
      <point x="469" y="-18" type="curve" smooth="yes"/>
      <point x="587" y="-18"/>
      <point x="625" y="55"/>
      <point x="692" y="205" type="curve"/>
      <point x="646" y="232" type="line"/>
      <point x="599" y="143"/>
      <point x="564" y="134"/>
      <point x="542" y="134" type="curve" smooth="yes"/>
      <point x="472" y="134"/>
      <point x="361" y="185"/>
      <point x="313" y="185" type="curve" smooth="yes"/>
      <point x="288" y="185"/>
      <point x="256" y="177"/>
      <point x="239" y="171" type="curve"/>
      <point x="429" y="414"/>
      <point x="506" y="577"/>
    </contour>
  </outline>
</glyph>
<glyph name="braceleft" format="2">
  <advance width="605"/>
  <unicode hex="007B"/>
  <outline>
    <contour>
      <point x="695" y="1379" type="curve"/>
      <point x="673" y="1439" type="line"/>
      <point x="481" y="1358"/>
      <point x="337" y="1246"/>
      <point x="315" y="1084" type="curve" smooth="yes"/>
      <point x="295" y="945"/>
      <point x="325" y="913"/>
      <point x="306" y="776" type="curve" smooth="yes"/>
      <point x="293" y="686"/>
      <point x="224" y="615"/>
      <point x="91" y="578" type="curve"/>
      <point x="97" y="513" type="line"/>
      <point x="130" y="518"/>
      <point x="121" y="518"/>
      <point x="152" y="518" type="curve" smooth="yes"/>
      <point x="226" y="518"/>
      <point x="264" y="477"/>
      <point x="251" y="379" type="curve" smooth="yes"/>
      <point x="231" y="239"/>
      <point x="190" y="188"/>
      <point x="172" y="55" type="curve" smooth="yes"/>
      <point x="148" y="-117"/>
      <point x="240" y="-202"/>
      <point x="428" y="-283" type="curve"/>
      <point x="465" y="-210" type="line"/>
      <point x="357" y="-140"/>
      <point x="342" y="-80"/>
      <point x="357" y="29" type="curve" smooth="yes"/>
      <point x="372" y="140"/>
      <point x="416" y="211"/>
      <point x="435" y="346" type="curve" smooth="yes"/>
      <point x="453" y="478"/>
      <point x="418" y="566"/>
      <point x="310" y="587" type="curve"/>
      <point x="410" y="631"/>
      <point x="488" y="730"/>
      <point x="502" y="830" type="curve" smooth="yes"/>
      <point x="521" y="960"/>
      <point x="493" y="1004"/>
      <point x="510" y="1135" type="curve"/>
      <point x="525" y="1237"/>
      <point x="599" y="1320"/>
    </contour>
  </outline>
</glyph>
<glyph name="bar" format="2">
  <advance width="438"/>
  <unicode hex="007C"/>
  <outline>
    <contour>
      <point x="428" y="1415" type="line"/>
      <point x="397" y="1439" type="line"/>
      <point x="362" y="1430"/>
      <point x="319" y="1409"/>
      <point x="285" y="1388" type="curve"/>
      <point x="41" y="-349" type="line"/>
      <point x="72" y="-376" type="line"/>
      <point x="101" y="-367"/>
      <point x="161" y="-339"/>
      <point x="184" y="-323" type="curve"/>
    </contour>
  </outline>
</glyph>
<glyph name="braceright" format="2">
  <advance width="631"/>
  <unicode hex="007D"/>
  <outline>
    <contour>
      <point x="556" y="567" type="curve"/>
      <point x="553" y="651" type="line"/>
      <point x="520" y="646"/>
      <point x="529" y="646"/>
      <point x="497" y="646" type="curve" smooth="yes"/>
      <point x="432" y="646"/>
      <point x="396" y="678"/>
      <point x="410" y="775" type="curve" smooth="yes"/>
      <point x="428" y="907"/>
      <point x="472" y="985"/>
      <point x="489" y="1108" type="curve" smooth="yes"/>
      <point x="513" y="1282"/>
      <point x="395" y="1358"/>
      <point x="195" y="1439" type="curve"/>
      <point x="146" y="1348" type="line"/>
      <point x="254" y="1278"/>
      <point x="266" y="1222"/>
      <point x="253" y="1134" type="curve"/>
      <point x="240" y="1033"/>
      <point x="192" y="935"/>
      <point x="175" y="809" type="curve" smooth="yes"/>
      <point x="157" y="676"/>
      <point x="201" y="589"/>
      <point x="309" y="567" type="curve"/>
      <point x="209" y="523"/>
      <point x="122" y="424"/>
      <point x="108" y="324" type="curve" smooth="yes"/>
      <point x="91" y="203"/>
      <point x="117" y="132"/>
      <point x="99" y="10" type="curve" smooth="yes"/>
      <point x="89" y="-68"/>
      <point x="19" y="-147"/>
      <point x="-73" y="-206" type="curve"/>
      <point x="-47" y="-284" type="line"/>
      <point x="155" y="-203"/>
      <point x="324" y="-99"/>
      <point x="346" y="62" type="curve" smooth="yes"/>
      <point x="364" y="191"/>
      <point x="338" y="251"/>
      <point x="355" y="378" type="curve" smooth="yes"/>
      <point x="368" y="468"/>
      <point x="428" y="531"/>
    </contour>
  </outline>
</glyph>
<glyph name="asciitilde" format="2">
  <advance width="894"/>
  <unicode hex="007E"/>
  <outline>
    <contour>
      <point x="883" y="699" type="curve"/>
      <point x="831" y="728" type="line"/>
      <point x="766" y="625"/>
      <point x="716" y="584"/>
      <point x="663" y="584" type="curve" smooth="yes"/>
      <point x="578" y="584"/>
      <point x="481" y="728"/>
      <point x="373" y="728" type="curve" smooth="yes"/>
      <point x="269" y="728"/>
      <point x="140" y="577"/>
      <point x="74" y="450" type="curve"/>
      <point x="125" y="418" type="line"/>
      <point x="188" y="518"/>
      <point x="236" y="564"/>
      <point x="291" y="564" type="curve" smooth="yes"/>
      <point x="382" y="564"/>
      <point x="481" y="420"/>
      <point x="582" y="420" type="curve" smooth="yes"/>
      <point x="688" y="420"/>
      <point x="815" y="572"/>
    </contour>
  </outline>
</glyph>
<glyph name="exclamdown" format="2">
  <advance width="450"/>
  <unicode hex="00A1"/>
  <outline>
    <contour>
      <point x="261" y="457" type="line"/>
      <point x="239" y="476" type="line"/>
      <point x="211" y="467"/>
      <point x="161" y="448"/>
      <point x="136" y="432" type="curve"/>
      <point x="-55" y="-451" type="line"/>
      <point x="-16" y="-483" type="line"/>
      <point x="31" y="-466"/>
      <point x="166" y="-403"/>
      <point x="221" y="-373" type="curve"/>
    </contour>
    <contour>
      <point x="84" y="658" type="curve" smooth="yes"/>
      <point x="84" y="595"/>
      <point x="121" y="551"/>
      <point x="205" y="551" type="curve" smooth="yes"/>
      <point x="322" y="551"/>
      <point x="383" y="651"/>
      <point x="383" y="734" type="curve" smooth="yes"/>
      <point x="383" y="792"/>
      <point x="344" y="837"/>
      <point x="264" y="837" type="curve" smooth="yes"/>
      <point x="153" y="837"/>
      <point x="84" y="737"/>
    </contour>
  </outline>
</glyph>
<glyph name="cent" format="2">
  <advance width="773"/>
  <unicode hex="00A2"/>
  <outline>
    <contour>
      <point x="804" y="842" type="curve"/>
      <point x="763" y="855"/>
      <point x="693" y="949"/>
      <point x="585" y="949" type="curve" smooth="yes"/>
      <point x="500" y="949"/>
      <point x="404" y="918"/>
      <point x="338" y="875" type="curve" smooth="yes"/>
      <point x="161" y="757"/>
      <point x="89" y="585"/>
      <point x="89" y="423" type="curve" smooth="yes"/>
      <point x="89" y="171"/>
      <point x="250" y="99"/>
      <point x="339" y="99" type="curve" smooth="yes"/>
      <point x="441" y="99"/>
      <point x="525" y="135"/>
      <point x="713" y="307" type="curve"/>
      <point x="708" y="317"/>
      <point x="690" y="339"/>
      <point x="680" y="354" type="curve"/>
      <point x="551" y="247"/>
      <point x="482" y="213"/>
      <point x="427" y="213" type="curve" smooth="yes"/>
      <point x="333" y="213"/>
      <point x="245" y="302"/>
      <point x="245" y="459" type="curve" smooth="yes"/>
      <point x="245" y="624"/>
      <point x="338" y="847"/>
      <point x="494" y="847" type="curve" smooth="yes"/>
      <point x="599" y="847"/>
      <point x="629" y="725"/>
      <point x="657" y="725" type="curve" smooth="yes"/>
      <point x="689" y="725"/>
      <point x="755" y="805"/>
    </contour>
    <contour>
      <point x="560" y="1074" type="line"/>
      <point x="542" y="1095" type="line"/>
      <point x="508" y="1085"/>
      <point x="508" y="1082"/>
      <point x="477" y="1060" type="curve"/>
      <point x="328" y="-24" type="line"/>
      <point x="345" y="-44" type="line"/>
      <point x="373" y="-35"/>
      <point x="389" y="-28"/>
      <point x="411" y="-9" type="curve"/>
    </contour>
  </outline>
</glyph>
<glyph name="sterling" format="2">
  <advance width="871"/>
  <unicode hex="00A3"/>
  <outline>
    <contour>
      <point x="864" y="1048" type="curve"/>
      <point x="769" y="1105"/>
      <point x="667" y="1111"/>
      <point x="609" y="1111" type="curve" smooth="yes"/>
      <point x="343" y="1111"/>
      <point x="141" y="859"/>
      <point x="120" y="520" type="curve"/>
      <point x="99" y="189"/>
      <point x="63" y="138"/>
      <point x="-56" y="44" type="curve"/>
      <point x="-30" y="-27" type="line"/>
      <point x="149" y="85"/>
      <point x="548" y="-89"/>
      <point x="710" y="0" type="curve"/>
      <point x="723" y="35"/>
      <point x="769" y="188"/>
      <point x="792" y="291" type="curve"/>
      <point x="727" y="316" type="line"/>
      <point x="659" y="176"/>
      <point x="616" y="138"/>
      <point x="512" y="135" type="curve" smooth="yes"/>
      <point x="388" y="132"/>
      <point x="389" y="149"/>
      <point x="235" y="135" type="curve"/>
      <point x="324" y="247"/>
      <point x="367" y="367"/>
      <point x="374" y="535" type="curve"/>
      <point x="391" y="974"/>
      <point x="518" y="995"/>
      <point x="580" y="995" type="curve" smooth="yes"/>
      <point x="677" y="995"/>
      <point x="722" y="895"/>
      <point x="718" y="747" type="curve"/>
      <point x="791" y="747" type="line"/>
      <point x="810" y="792"/>
      <point x="855" y="987"/>
    </contour>
    <contour>
      <point x="646" y="552" type="line"/>
      <point x="620" y="582" type="line"/>
      <point x="44" y="582" type="line"/>
      <point x="34" y="563"/>
      <point x="4" y="513"/>
      <point x="-2" y="495" type="curve"/>
      <point x="18" y="464" type="line"/>
      <point x="595" y="464" type="line"/>
    </contour>
  </outline>
</glyph>
<glyph name="currency" format="2">
  <advance width="805"/>
  <unicode hex="00A4"/>
  <outline>
    <contour>
      <point x="438" y="723" type="curve" smooth="yes"/>
      <point x="534" y="720"/>
      <point x="587" y="630"/>
      <point x="575" y="541" type="curve" smooth="yes"/>
      <point x="562" y="446"/>
      <point x="485" y="360"/>
      <point x="388" y="360" type="curve" smooth="yes"/>
      <point x="291" y="360"/>
      <point x="238" y="453"/>
      <point x="249" y="540" type="curve" smooth="yes"/>
      <point x="261" y="638"/>
      <point x="341" y="723"/>
    </contour>
    <contour>
      <point x="157" y="539" type="curve"/>
      <point x="139" y="395"/>
      <point x="222" y="257"/>
      <point x="374" y="257" type="curve" smooth="yes"/>
      <point x="526" y="257"/>
      <point x="648" y="393"/>
      <point x="667" y="539" type="curve" smooth="yes"/>
      <point x="686" y="679"/>
      <point x="600" y="827"/>
      <point x="452" y="827" type="curve" smooth="yes"/>
      <point x="319" y="827"/>
      <point x="177" y="706"/>
    </contour>
    <contour>
      <point x="259" y="424" type="line"/>
      <point x="225" y="422" type="line"/>
      <point x="60" y="263" type="line"/>
      <point x="66" y="240"/>
      <point x="74" y="215"/>
      <point x="81" y="196" type="curve"/>
      <point x="113" y="193" type="line"/>
      <point x="279" y="352" type="line"/>
    </contour>
    <contour>
      <point x="322" y="700" type="line"/>
      <point x="325" y="737" type="line"/>
      <point x="210" y="889" type="line"/>
      <point x="188" y="879"/>
      <point x="160" y="870"/>
      <point x="141" y="859" type="curve"/>
      <point x="134" y="823" type="line"/>
      <point x="253" y="667" type="line"/>
    </contour>
    <contour>
      <point x="685" y="222" type="line"/>
      <point x="689" y="259" type="line"/>
      <point x="569" y="416" type="line"/>
      <point x="548" y="406"/>
      <point x="522" y="393"/>
      <point x="504" y="382" type="curve"/>
      <point x="496" y="346" type="line"/>
      <point x="612" y="193" type="line"/>
    </contour>
    <contour>
      <point x="741" y="888" type="line"/>
      <point x="708" y="887" type="line"/>
      <point x="541" y="727" type="line"/>
      <point x="547" y="706"/>
      <point x="555" y="679"/>
      <point x="563" y="660" type="curve"/>
      <point x="595" y="658" type="line"/>
      <point x="760" y="817" type="line"/>
    </contour>
  </outline>
</glyph>
<glyph name="yen" format="2">
  <advance width="805"/>
  <unicode hex="00A5"/>
  <outline>
    <contour>
      <point x="942" y="1091" type="line"/>
      <point x="624" y="1091" type="line"/>
      <point x="616" y="1035" type="line"/>
      <point x="693" y="1023"/>
      <point x="716" y="1008"/>
      <point x="696" y="976" type="curve" smooth="yes"/>
      <point x="476" y="607" type="line"/>
      <point x="437" y="751"/>
      <point x="362" y="946"/>
      <point x="294" y="1063" type="curve" smooth="yes"/>
      <point x="280" y="1088"/>
      <point x="255" y="1102"/>
      <point x="233" y="1102" type="curve" smooth="yes"/>
      <point x="190" y="1102"/>
      <point x="81" y="1083"/>
      <point x="19" y="1071" type="curve"/>
      <point x="19" y="1014" type="line"/>
      <point x="102" y="1020"/>
      <point x="121" y="1008"/>
      <point x="139" y="978" type="curve" smooth="yes"/>
      <point x="205" y="863"/>
      <point x="288" y="649"/>
      <point x="333" y="470" type="curve"/>
      <point x="331" y="455" type="line"/>
      <point x="119" y="455" type="line"/>
      <point x="110" y="436"/>
      <point x="93" y="397"/>
      <point x="85" y="379" type="curve"/>
      <point x="99" y="357" type="line"/>
      <point x="318" y="357" type="line"/>
      <point x="288" y="119" type="line" smooth="yes"/>
      <point x="285" y="103"/>
      <point x="253" y="78"/>
      <point x="157" y="56" type="curve"/>
      <point x="149" y="0" type="line"/>
      <point x="570" y="0" type="line"/>
      <point x="577" y="56" type="line"/>
      <point x="484" y="78"/>
      <point x="459" y="104"/>
      <point x="462" y="119" type="curve" smooth="yes"/>
      <point x="492" y="357" type="line"/>
      <point x="691" y="357" type="line"/>
      <point x="727" y="435" type="line"/>
      <point x="710" y="455" type="line"/>
      <point x="505" y="455" type="line"/>
      <point x="506" y="464" type="line"/>
      <point x="811" y="976" type="line" smooth="yes"/>
      <point x="830" y="1007"/>
      <point x="863" y="1020"/>
      <point x="935" y="1035" type="curve"/>
    </contour>
  </outline>
</glyph>
<glyph name="brokenbar" format="2">
  <advance width="472"/>
  <unicode hex="00A6"/>
  <outline>
    <contour>
      <point x="441" y="1417" type="line"/>
      <point x="411" y="1439" type="line"/>
      <point x="376" y="1430"/>
      <point x="338" y="1414"/>
      <point x="303" y="1393" type="curve"/>
      <point x="195" y="632" type="line"/>
      <point x="226" y="610" type="line"/>
      <point x="255" y="619"/>
      <point x="312" y="639"/>
      <point x="336" y="658" type="curve"/>
    </contour>
    <contour>
      <point x="298" y="385" type="line"/>
      <point x="266" y="409" type="line"/>
      <point x="231" y="398"/>
      <point x="192" y="381"/>
      <point x="159" y="360" type="curve"/>
      <point x="54" y="-388" type="line"/>
      <point x="83" y="-413" type="line"/>
      <point x="110" y="-404"/>
      <point x="169" y="-381"/>
      <point x="191" y="-364" type="curve"/>
    </contour>
  </outline>
</glyph>
<glyph name="section" format="2">
  <advance width="795"/>
  <unicode hex="00A7"/>
  <outline>
    <contour>
      <point x="321" y="-27" type="curve" smooth="yes"/>
      <point x="394" y="-27"/>
      <point x="617" y="-13"/>
      <point x="652" y="241" type="curve"/>
      <point x="670" y="375"/>
      <point x="566" y="432"/>
      <point x="479" y="485" type="curve"/>
      <point x="335" y="584"/>
      <point x="272" y="633"/>
      <point x="287" y="741" type="curve" smooth="yes"/>
      <point x="294" y="795"/>
      <point x="346" y="884"/>
      <point x="406" y="864" type="curve"/>
      <point x="401" y="871"/>
      <point x="417" y="941"/>
      <point x="414" y="947" type="curve"/>
      <point x="321" y="959"/>
      <point x="172" y="837"/>
      <point x="152" y="698" type="curve" smooth="yes"/>
      <point x="131" y="541"/>
      <point x="217" y="457"/>
      <point x="336" y="379" type="curve" smooth="yes"/>
      <point x="426" y="320"/>
      <point x="527" y="280"/>
      <point x="514" y="184" type="curve" smooth="yes"/>
      <point x="503" y="103"/>
      <point x="449" y="67"/>
      <point x="371" y="67" type="curve" smooth="yes"/>
      <point x="266" y="67"/>
      <point x="194" y="157"/>
      <point x="198" y="267" type="curve"/>
      <point x="154" y="277" type="line"/>
      <point x="128" y="211"/>
      <point x="103" y="52"/>
      <point x="117" y="45" type="curve"/>
      <point x="183" y="1"/>
      <point x="264" y="-27"/>
    </contour>
    <contour>
      <point x="537" y="324" type="curve"/>
      <point x="608" y="333"/>
      <point x="726" y="432"/>
      <point x="749" y="594" type="curve"/>
      <point x="772" y="764"/>
      <point x="673" y="832"/>
      <point x="553" y="914" type="curve" smooth="yes"/>
      <point x="443" y="988"/>
      <point x="382" y="1033"/>
      <point x="393" y="1116" type="curve" smooth="yes"/>
      <point x="402" y="1175"/>
      <point x="447" y="1210"/>
      <point x="516" y="1210" type="curve" smooth="yes"/>
      <point x="575" y="1210"/>
      <point x="625" y="1164"/>
      <point x="655" y="1071" type="curve"/>
      <point x="694" y="1064" type="line"/>
      <point x="716" y="1090"/>
      <point x="770" y="1206"/>
      <point x="758" y="1219" type="curve" smooth="yes"/>
      <point x="718" y="1262"/>
      <point x="622" y="1296"/>
      <point x="546" y="1296" type="curve" smooth="yes"/>
      <point x="415" y="1296"/>
      <point x="279" y="1222"/>
      <point x="258" y="1073" type="curve" smooth="yes"/>
      <point x="241" y="953"/>
      <point x="316" y="869"/>
      <point x="410" y="809" type="curve" smooth="yes"/>
      <point x="561" y="711"/>
      <point x="628" y="651"/>
      <point x="612" y="537" type="curve"/>
      <point x="602" y="464"/>
      <point x="540" y="402"/>
      <point x="468" y="401" type="curve"/>
      <point x="473" y="393"/>
      <point x="526" y="333"/>
    </contour>
  </outline>
</glyph>
<glyph name="dieresis" format="2">
  <advance width="937"/>
  <unicode hex="00A8"/>
  <outline>
    <contour>
      <point x="820" y="1140" type="curve"/>
      <point x="820" y="1185"/>
      <point x="793" y="1222"/>
      <point x="743" y="1222" type="curve" smooth="yes"/>
      <point x="661" y="1222"/>
      <point x="611" y="1131"/>
      <point x="611" y="1062" type="curve" smooth="yes"/>
      <point x="611" y="1017"/>
      <point x="636" y="981"/>
      <point x="686" y="981" type="curve" smooth="yes"/>
      <point x="769" y="981"/>
      <point x="820" y="1069"/>
    </contour>
    <contour>
      <point x="476" y="1140" type="curve"/>
      <point x="476" y="1185"/>
      <point x="450" y="1222"/>
      <point x="400" y="1222" type="curve" smooth="yes"/>
      <point x="318" y="1222"/>
      <point x="266" y="1131"/>
      <point x="266" y="1062" type="curve" smooth="yes"/>
      <point x="266" y="1017"/>
      <point x="292" y="981"/>
      <point x="343" y="981" type="curve" smooth="yes"/>
      <point x="425" y="981"/>
      <point x="476" y="1069"/>
    </contour>
  </outline>
</glyph>
<glyph name="copyright" format="2">
  <advance width="1224"/>
  <unicode hex="00A9"/>
  <outline>
    <contour>
      <point x="1170" y="676" type="curve" smooth="yes"/>
      <point x="1170" y="953"/>
      <point x="994" y="1179"/>
      <point x="702" y="1179" type="curve" smooth="yes"/>
      <point x="326" y="1179"/>
      <point x="66" y="809"/>
      <point x="66" y="473" type="curve" smooth="yes"/>
      <point x="66" y="191"/>
      <point x="240" y="-45"/>
      <point x="532" y="-45" type="curve" smooth="yes"/>
      <point x="921" y="-45"/>
      <point x="1170" y="333"/>
    </contour>
    <contour>
      <point x="1062" y="647" type="curve" smooth="yes"/>
      <point x="1062" y="355"/>
      <point x="838" y="67"/>
      <point x="547" y="67" type="curve" smooth="yes"/>
      <point x="324" y="67"/>
      <point x="172" y="246"/>
      <point x="172" y="490" type="curve" smooth="yes"/>
      <point x="172" y="779"/>
      <point x="399" y="1065"/>
      <point x="689" y="1065" type="curve" smooth="yes"/>
      <point x="910" y="1065"/>
      <point x="1062" y="890"/>
    </contour>
    <contour>
      <point x="948" y="847" type="curve"/>
      <point x="906" y="858"/>
      <point x="844" y="939"/>
      <point x="728" y="939" type="curve" smooth="yes"/>
      <point x="619" y="939"/>
      <point x="525" y="893"/>
      <point x="468" y="850" type="curve" smooth="yes"/>
      <point x="315" y="731"/>
      <point x="275" y="585"/>
      <point x="275" y="473" type="curve" smooth="yes"/>
      <point x="275" y="261"/>
      <point x="430" y="200"/>
      <point x="540" y="200" type="curve" smooth="yes"/>
      <point x="648" y="200"/>
      <point x="743" y="249"/>
      <point x="896" y="394" type="curve"/>
      <point x="891" y="404"/>
      <point x="863" y="441"/>
      <point x="853" y="453" type="curve"/>
      <point x="754" y="361"/>
      <point x="682" y="328"/>
      <point x="622" y="328" type="curve" smooth="yes"/>
      <point x="539" y="328"/>
      <point x="459" y="367"/>
      <point x="459" y="503" type="curve" smooth="yes"/>
      <point x="459" y="643"/>
      <point x="528" y="848"/>
      <point x="652" y="848" type="curve" smooth="yes"/>
      <point x="715" y="848"/>
      <point x="754" y="739"/>
      <point x="787" y="739" type="curve" smooth="yes"/>
      <point x="814" y="739"/>
      <point x="912" y="818"/>
    </contour>
  </outline>
</glyph>
<glyph name="ordfeminine" format="2">
  <advance width="545"/>
  <unicode hex="00AA"/>
  <outline>
    <contour>
      <point x="533" y="709" type="curve"/>
      <point x="522" y="736" type="line"/>
      <point x="495" y="725"/>
      <point x="484" y="723"/>
      <point x="471" y="723" type="curve" smooth="yes"/>
      <point x="456" y="723"/>
      <point x="449" y="751"/>
      <point x="449" y="803" type="curve" smooth="yes"/>
      <point x="449" y="832"/>
      <point x="458" y="936"/>
      <point x="479" y="1028" type="curve" smooth="yes"/>
      <point x="488" y="1071"/>
      <point x="497" y="1078"/>
      <point x="519" y="1095" type="curve"/>
      <point x="505" y="1122" type="line"/>
      <point x="460" y="1101"/>
      <point x="391" y="1062"/>
      <point x="384" y="1033" type="curve" smooth="yes"/>
      <point x="377" y="994"/>
      <point x="347" y="819"/>
      <point x="347" y="783" type="curve" smooth="yes"/>
      <point x="347" y="680"/>
      <point x="383" y="650"/>
      <point x="406" y="650" type="curve" smooth="yes"/>
      <point x="430" y="650"/>
      <point x="478" y="674"/>
    </contour>
    <contour>
      <point x="490" y="1067" type="curve"/>
      <point x="468" y="1071"/>
      <point x="419" y="1122"/>
      <point x="369" y="1122" type="curve" smooth="yes"/>
      <point x="317" y="1122"/>
      <point x="270" y="1099"/>
      <point x="235" y="1076" type="curve" smooth="yes"/>
      <point x="144" y="1013"/>
      <point x="88" y="919"/>
      <point x="88" y="816" type="curve" smooth="yes"/>
      <point x="88" y="696"/>
      <point x="156" y="650"/>
      <point x="207" y="650" type="curve" smooth="yes"/>
      <point x="254" y="650"/>
      <point x="309" y="711"/>
      <point x="349" y="772" type="curve"/>
      <point x="363" y="872" type="line"/>
      <point x="315" y="793"/>
      <point x="268" y="732"/>
      <point x="239" y="732" type="curve" smooth="yes"/>
      <point x="209" y="732"/>
      <point x="186" y="777"/>
      <point x="186" y="853" type="curve" smooth="yes"/>
      <point x="186" y="928"/>
      <point x="232" y="1062"/>
      <point x="320" y="1062" type="curve" smooth="yes"/>
      <point x="374" y="1062"/>
      <point x="426" y="985"/>
      <point x="444" y="985" type="curve" smooth="yes"/>
      <point x="459" y="985"/>
      <point x="462" y="1048"/>
    </contour>
    <contour>
      <point x="521" y="576" type="curve"/>
      <point x="499" y="602" type="line"/>
      <point x="69" y="602" type="line"/>
      <point x="62" y="584"/>
      <point x="50" y="568"/>
      <point x="44" y="549" type="curve"/>
      <point x="63" y="527" type="line"/>
      <point x="495" y="527" type="line"/>
      <point x="501" y="543"/>
      <point x="515" y="557"/>
    </contour>
  </outline>
</glyph>
<glyph name="guillemotleft" format="2">
  <advance width="846"/>
  <unicode hex="00AB"/>
  <outline>
    <contour>
      <point x="635" y="1" type="line"/>
      <point x="684" y="37" type="line"/>
      <point x="563" y="412" type="line"/>
      <point x="597" y="474"/>
      <point x="750" y="721"/>
      <point x="784" y="784" type="curve"/>
      <point x="747" y="819" type="line"/>
      <point x="381" y="444" type="line"/>
      <point x="378" y="432"/>
      <point x="372" y="390"/>
      <point x="370" y="379" type="curve"/>
    </contour>
    <contour>
      <point x="312" y="1" type="line"/>
      <point x="360" y="37" type="line"/>
      <point x="239" y="412" type="line"/>
      <point x="273" y="474"/>
      <point x="427" y="721"/>
      <point x="461" y="784" type="curve"/>
      <point x="423" y="819" type="line"/>
      <point x="58" y="444" type="line"/>
      <point x="55" y="432"/>
      <point x="49" y="390"/>
      <point x="47" y="379" type="curve"/>
    </contour>
  </outline>
</glyph>
<glyph name="logicalnot" format="2">
  <advance width="871"/>
  <unicode hex="00AC"/>
  <outline>
    <contour>
      <point x="785" y="545" type="line"/>
      <point x="757" y="574" type="line"/>
      <point x="757" y="574"/>
      <point x="727" y="574"/>
      <point x="90" y="574" type="curve"/>
      <point x="76" y="550"/>
      <point x="42" y="492"/>
      <point x="34" y="468" type="curve"/>
      <point x="57" y="437" type="line"/>
      <point x="648" y="437" type="line"/>
      <point x="612" y="177" type="line"/>
      <point x="636" y="145" type="line"/>
      <point x="664" y="155"/>
      <point x="715" y="191"/>
      <point x="738" y="209" type="curve"/>
    </contour>
  </outline>
</glyph>
<glyph name="registered" format="2">
  <advance width="633"/>
  <unicode hex="00AE"/>
  <outline>
    <contour>
      <point x="673" y="975" type="curve"/>
      <point x="698" y="1156"/>
      <point x="602" y="1296"/>
      <point x="438" y="1296" type="curve" smooth="yes"/>
      <point x="274" y="1296"/>
      <point x="140" y="1154"/>
      <point x="115" y="975" type="curve" smooth="yes"/>
      <point x="90" y="794"/>
      <point x="186" y="655"/>
      <point x="351" y="655" type="curve" smooth="yes"/>
      <point x="514" y="655"/>
      <point x="649" y="794"/>
    </contour>
    <contour>
      <point x="614" y="975" type="curve"/>
      <point x="594" y="832"/>
      <point x="498" y="713"/>
      <point x="360" y="713" type="curve" smooth="yes"/>
      <point x="224" y="713"/>
      <point x="154" y="832"/>
      <point x="174" y="975" type="curve" smooth="yes"/>
      <point x="194" y="1117"/>
      <point x="289" y="1237"/>
      <point x="426" y="1237" type="curve" smooth="yes"/>
      <point x="564" y="1237"/>
      <point x="634" y="1117"/>
    </contour>
    <contour>
      <point x="524" y="1067" type="curve"/>
      <point x="530" y="1116"/>
      <point x="495" y="1164"/>
      <point x="405" y="1164" type="curve" smooth="yes"/>
      <point x="361" y="1164"/>
      <point x="323" y="1156"/>
      <point x="290" y="1147" type="curve"/>
      <point x="288" y="1117" type="line"/>
      <point x="323" y="1122"/>
      <point x="362" y="1128"/>
      <point x="392" y="1128" type="curve" smooth="yes"/>
      <point x="450" y="1128"/>
      <point x="467" y="1094"/>
      <point x="462" y="1059" type="curve" smooth="yes"/>
      <point x="456" y="1012"/>
      <point x="427" y="998"/>
      <point x="378" y="998" type="curve" smooth="yes"/>
      <point x="368" y="998"/>
      <point x="360" y="999"/>
      <point x="349" y="1002" type="curve"/>
      <point x="346" y="965" type="line"/>
      <point x="357" y="962"/>
      <point x="367" y="960"/>
      <point x="376" y="960" type="curve" smooth="yes"/>
      <point x="449" y="960"/>
      <point x="514" y="995"/>
    </contour>
    <contour>
      <point x="539" y="823" type="line"/>
      <point x="536" y="839" type="line"/>
      <point x="513" y="830"/>
      <point x="502" y="832"/>
      <point x="495" y="845" type="curve" smooth="yes"/>
      <point x="416" y="988" type="line"/>
      <point x="375" y="971" type="line"/>
      <point x="441" y="806" type="line" smooth="yes"/>
      <point x="444" y="799"/>
      <point x="454" y="790"/>
      <point x="464" y="790" type="curve" smooth="yes"/>
      <point x="476" y="790"/>
      <point x="516" y="810"/>
      <point x="536" y="821" type="curve"/>
    </contour>
    <contour>
      <point x="367" y="796" type="line"/>
      <point x="369" y="816" type="line"/>
      <point x="346" y="822"/>
      <point x="337" y="829"/>
      <point x="337" y="833" type="curve" smooth="yes"/>
      <point x="380" y="1144" type="line"/>
      <point x="324" y="1144" type="line"/>
      <point x="281" y="833" type="line" smooth="yes"/>
      <point x="280" y="828"/>
      <point x="269" y="822"/>
      <point x="246" y="816" type="curve"/>
      <point x="243" y="796" type="line"/>
    </contour>
  </outline>
</glyph>
<glyph name="macron" format="2">
  <advance width="783"/>
  <unicode hex="00AF"/>
  <outline>
    <contour>
      <point x="827" y="1145" type="curve"/>
      <point x="805" y="1172" type="line"/>
      <point x="218" y="1172" type="line"/>
      <point x="205" y="1148"/>
      <point x="174" y="1091"/>
      <point x="165" y="1067" type="curve"/>
      <point x="184" y="1041" type="line"/>
      <point x="773" y="1041" type="line"/>
      <point x="784" y="1061"/>
      <point x="819" y="1119"/>
    </contour>
  </outline>
</glyph>
<glyph name="degree" format="2">
  <advance width="613"/>
  <unicode hex="00B0"/>
  <outline>
    <contour>
      <point x="615" y="965" type="curve" smooth="yes"/>
      <point x="615" y="1055"/>
      <point x="561" y="1138"/>
      <point x="458" y="1138" type="curve" smooth="yes"/>
      <point x="326" y="1138"/>
      <point x="169" y="992"/>
      <point x="169" y="826" type="curve" smooth="yes"/>
      <point x="169" y="746"/>
      <point x="210" y="656"/>
      <point x="326" y="656" type="curve" smooth="yes"/>
      <point x="452" y="656"/>
      <point x="615" y="787"/>
    </contour>
    <contour>
      <point x="379" y="792" type="curve" smooth="yes"/>
      <point x="342" y="792"/>
      <point x="309" y="822"/>
      <point x="309" y="878" type="curve" smooth="yes"/>
      <point x="309" y="946"/>
      <point x="361" y="1000"/>
      <point x="407" y="1000" type="curve" smooth="yes"/>
      <point x="453" y="1000"/>
      <point x="476" y="955"/>
      <point x="476" y="916" type="curve" smooth="yes"/>
      <point x="476" y="857"/>
      <point x="436" y="792"/>
    </contour>
  </outline>
</glyph>
<glyph name="plusminus" format="2">
  <advance width="722"/>
  <unicode hex="00B1"/>
  <outline>
    <contour>
      <point x="484" y="901" type="line"/>
      <point x="462" y="927" type="line"/>
      <point x="436" y="920"/>
      <point x="382" y="903"/>
      <point x="360" y="896" type="curve"/>
      <point x="280" y="321" type="line"/>
      <point x="302" y="297" type="line"/>
      <point x="328" y="302"/>
      <point x="381" y="317"/>
      <point x="404" y="329" type="curve"/>
    </contour>
    <contour>
      <point x="628" y="216" type="curve"/>
      <point x="607" y="243" type="line"/>
      <point x="58" y="243" type="line"/>
      <point x="45" y="219"/>
      <point x="21" y="172"/>
      <point x="12" y="147" type="curve"/>
      <point x="32" y="121" type="line"/>
      <point x="582" y="121" type="line"/>
      <point x="593" y="141"/>
      <point x="619" y="191"/>
    </contour>
    <contour>
      <point x="688" y="646" type="curve"/>
      <point x="667" y="672" type="line"/>
      <point x="116" y="672" type="line"/>
      <point x="103" y="649"/>
      <point x="79" y="602"/>
      <point x="70" y="577" type="curve"/>
      <point x="90" y="551" type="line"/>
      <point x="642" y="551" type="line"/>
      <point x="652" y="571"/>
      <point x="679" y="621"/>
    </contour>
  </outline>
</glyph>
<glyph name="SupTwo" format="2">
  <advance width="622"/>
  <unicode hex="00B2"/>
  <outline>
    <contour>
      <point x="648" y="1114" type="curve" smooth="yes"/>
      <point x="648" y="1172"/>
      <point x="585" y="1224"/>
      <point x="455" y="1224" type="curve" smooth="yes"/>
      <point x="301" y="1224"/>
      <point x="162" y="1132"/>
      <point x="151" y="1057" type="curve"/>
      <point x="167" y="1014" type="line"/>
      <point x="203" y="1017"/>
      <point x="306" y="1037"/>
      <point x="334" y="1051" type="curve"/>
      <point x="330" y="1106"/>
      <point x="350" y="1149"/>
      <point x="405" y="1149" type="curve" smooth="yes"/>
      <point x="453" y="1149"/>
      <point x="460" y="1119"/>
      <point x="460" y="1086" type="curve" smooth="yes"/>
      <point x="460" y="985"/>
      <point x="387" y="893"/>
      <point x="72" y="597" type="curve"/>
      <point x="84" y="558" type="line"/>
      <point x="573" y="558" type="line"/>
      <point x="611" y="770" type="line"/>
      <point x="560" y="782" type="line"/>
      <point x="560" y="782"/>
      <point x="538" y="670"/>
      <point x="486" y="670" type="curve" smooth="yes"/>
      <point x="280" y="670" type="line"/>
      <point x="567" y="924"/>
      <point x="648" y="1003"/>
    </contour>
  </outline>
</glyph>
<glyph name="twosuperior" format="2">
  <advance width="609"/>
  <unicode hex="00B2"/>
  <outline>
    <contour>
      <point x="621" y="1101" type="curve" smooth="yes"/>
      <point x="621" y="1187"/>
      <point x="529" y="1214"/>
      <point x="432" y="1214" type="curve" smooth="yes"/>
      <point x="279" y="1214"/>
      <point x="146" y="1121"/>
      <point x="134" y="1046" type="curve"/>
      <point x="151" y="1003" type="line"/>
      <point x="185" y="1007"/>
      <point x="273" y="1026"/>
      <point x="300" y="1040" type="curve"/>
      <point x="297" y="1091"/>
      <point x="318" y="1147"/>
      <point x="379" y="1147" type="curve" smooth="yes"/>
      <point x="424" y="1147"/>
      <point x="449" y="1126"/>
      <point x="449" y="1074" type="curve" smooth="yes"/>
      <point x="449" y="983"/>
      <point x="333" y="847"/>
      <point x="34" y="586" type="curve"/>
      <point x="44" y="547" type="line"/>
      <point x="532" y="547" type="line"/>
      <point x="575" y="750" type="line"/>
      <point x="522" y="762" type="line"/>
      <point x="522" y="762"/>
      <point x="500" y="649"/>
      <point x="444" y="649" type="curve" smooth="yes"/>
      <point x="220" y="649" type="line"/>
      <point x="549" y="923"/>
      <point x="621" y="1011"/>
    </contour>
  </outline>
</glyph>
<glyph name="threesuperior" format="2">
  <advance width="609"/>
  <unicode hex="00B3"/>
  <outline>
    <contour>
      <point x="590" y="1088" type="curve" smooth="yes"/>
      <point x="590" y="1152"/>
      <point x="549" y="1214"/>
      <point x="403" y="1214" type="curve" smooth="yes"/>
      <point x="258" y="1214"/>
      <point x="142" y="1117"/>
      <point x="131" y="1057" type="curve"/>
      <point x="148" y="1018" type="line"/>
      <point x="188" y="1020"/>
      <point x="265" y="1044"/>
      <point x="299" y="1062" type="curve"/>
      <point x="295" y="1116"/>
      <point x="327" y="1147"/>
      <point x="368" y="1147" type="curve" smooth="yes"/>
      <point x="404" y="1147"/>
      <point x="421" y="1126"/>
      <point x="421" y="1081" type="curve" smooth="yes"/>
      <point x="421" y="997"/>
      <point x="362" y="942"/>
      <point x="246" y="918" type="curve"/>
      <point x="250" y="864" type="line"/>
      <point x="273" y="867"/>
      <point x="279" y="867"/>
      <point x="299" y="867" type="curve" smooth="yes"/>
      <point x="360" y="867"/>
      <point x="403" y="836"/>
      <point x="403" y="764" type="curve" smooth="yes"/>
      <point x="403" y="670"/>
      <point x="338" y="612"/>
      <point x="263" y="612" type="curve" smooth="yes"/>
      <point x="205" y="612"/>
      <point x="144" y="630"/>
      <point x="82" y="680" type="curve"/>
      <point x="45" y="621" type="line"/>
      <point x="102" y="565"/>
      <point x="201" y="530"/>
      <point x="261" y="530" type="curve" smooth="yes"/>
      <point x="430" y="530"/>
      <point x="575" y="643"/>
      <point x="575" y="778" type="curve" smooth="yes"/>
      <point x="575" y="850"/>
      <point x="534" y="915"/>
      <point x="446" y="924" type="curve"/>
      <point x="527" y="953"/>
      <point x="590" y="1009"/>
    </contour>
  </outline>
</glyph>
<glyph name="acute" format="2">
  <advance width="545"/>
  <unicode hex="00B4"/>
  <anchor x="275" y="1233" name="U"/>
  <outline>
    <contour>
      <point x="509" y="1279" type="line"/>
      <point x="488" y="1289"/>
      <point x="409" y="1309"/>
      <point x="385" y="1315" type="curve"/>
      <point x="151" y="957" type="line"/>
      <point x="168" y="936"/>
      <point x="180" y="925"/>
      <point x="198" y="921" type="curve"/>
      <point x="525" y="1234" type="line"/>
    </contour>
  </outline>
</glyph>
<glyph name="mu" format="2">
  <advance width="1017"/>
  <unicode hex="00B5"/>
  <outline>
    <contour>
      <point x="1009" y="193" type="curve"/>
      <point x="978" y="255" type="line"/>
      <point x="932" y="196"/>
      <point x="890" y="170"/>
      <point x="867" y="170" type="curve" smooth="yes"/>
      <point x="849" y="170"/>
      <point x="834" y="200"/>
      <point x="834" y="264" type="curve" smooth="yes"/>
      <point x="834" y="382"/>
      <point x="904" y="693"/>
      <point x="927" y="798" type="curve"/>
      <point x="923" y="809"/>
      <point x="909" y="829"/>
      <point x="899" y="842" type="curve"/>
      <point x="849" y="829"/>
      <point x="677" y="769"/>
      <point x="635" y="753" type="curve"/>
      <point x="647" y="730"/>
      <point x="650" y="686"/>
      <point x="650" y="648" type="curve" smooth="yes"/>
      <point x="650" y="559"/>
      <point x="592" y="325"/>
      <point x="592" y="200" type="curve" smooth="yes"/>
      <point x="592" y="86"/>
      <point x="643" y="-36"/>
      <point x="718" y="-36" type="curve" smooth="yes"/>
      <point x="784" y="-36"/>
      <point x="899" y="12"/>
    </contour>
    <contour>
      <point x="677" y="507" type="line"/>
      <point x="537" y="236"/>
      <point x="460" y="179"/>
      <point x="417" y="179" type="curve" smooth="yes"/>
      <point x="382" y="179"/>
      <point x="354" y="216"/>
      <point x="354" y="305" type="curve" smooth="yes"/>
      <point x="354" y="402"/>
      <point x="412" y="661"/>
      <point x="412" y="766" type="curve" smooth="yes"/>
      <point x="412" y="821"/>
      <point x="403" y="842"/>
      <point x="369" y="842" type="curve" smooth="yes"/>
      <point x="340" y="842"/>
      <point x="120" y="765"/>
      <point x="18" y="720" type="curve"/>
      <point x="31" y="650" type="line"/>
      <point x="31" y="650"/>
      <point x="91" y="672"/>
      <point x="114" y="672" type="curve" smooth="yes"/>
      <point x="134" y="672"/>
      <point x="149" y="666"/>
      <point x="149" y="612" type="curve" smooth="yes"/>
      <point x="149" y="523"/>
      <point x="122" y="438"/>
      <point x="122" y="332" type="curve" smooth="yes"/>
      <point x="122" y="126"/>
      <point x="223" y="-36"/>
      <point x="342" y="-36" type="curve" smooth="yes"/>
      <point x="455" y="-36"/>
      <point x="567" y="90"/>
      <point x="670" y="322" type="curve"/>
    </contour>
    <contour>
      <point x="242" y="397" type="curve"/>
      <point x="242" y="444"/>
      <point x="144" y="536"/>
      <point x="144" y="536" type="curve"/>
      <point x="119" y="332"/>
      <point x="19" y="-171"/>
      <point x="-11" y="-414" type="curve"/>
      <point x="27" y="-450" type="line"/>
      <point x="56" y="-434"/>
      <point x="252" y="-355"/>
      <point x="287" y="-342" type="curve"/>
      <point x="274" y="-309"/>
      <point x="161" y="-153"/>
      <point x="194" y="93" type="curve"/>
      <point x="215" y="232"/>
      <point x="220" y="289"/>
    </contour>
  </outline>
</glyph>
<glyph name="paragraph" format="2">
  <advance width="1025"/>
  <unicode hex="00B6"/>
  <outline>
    <contour>
      <point x="1061" y="1134" type="line"/>
      <point x="1011" y="1134" type="line"/>
      <point x="1011" y="1134"/>
      <point x="627" y="1161"/>
      <point x="532" y="1161" type="curve" smooth="yes"/>
      <point x="273" y="1161"/>
      <point x="92" y="1017"/>
      <point x="64" y="812" type="curve" smooth="yes"/>
      <point x="34" y="587"/>
      <point x="192" y="464"/>
      <point x="433" y="464" type="curve" smooth="yes"/>
      <point x="463" y="464"/>
      <point x="486" y="466"/>
      <point x="505" y="469" type="curve"/>
      <point x="427" y="-94" type="line"/>
      <point x="425" y="-111"/>
      <point x="385" y="-133"/>
      <point x="309" y="-150" type="curve"/>
      <point x="298" y="-225" type="line"/>
      <point x="874" y="-225" type="line"/>
      <point x="885" y="-150" type="line"/>
      <point x="809" y="-133"/>
      <point x="781" y="-109"/>
      <point x="783" y="-94" type="curve" smooth="yes"/>
      <point x="933" y="1003" type="line" smooth="yes"/>
      <point x="936" y="1020"/>
      <point x="975" y="1042"/>
      <point x="1051" y="1059" type="curve"/>
    </contour>
    <contour>
      <point x="484" y="576" type="line" smooth="yes"/>
      <point x="335" y="576"/>
      <point x="290" y="713"/>
      <point x="308" y="844" type="curve" smooth="yes"/>
      <point x="326" y="978"/>
      <point x="446" y="1049"/>
      <point x="542" y="1049" type="curve" smooth="yes"/>
      <point x="553" y="1049"/>
      <point x="567" y="1049"/>
      <point x="585" y="1048" type="curve"/>
      <point x="520" y="576" type="line"/>
    </contour>
    <contour>
      <point x="792" y="1022" type="curve"/>
      <point x="639" y="-94" type="line" smooth="yes"/>
      <point x="637" y="-108"/>
      <point x="614" y="-118"/>
      <point x="602" y="-122" type="curve"/>
      <point x="591" y="-118"/>
      <point x="572" y="-108"/>
      <point x="574" y="-94" type="curve" smooth="yes"/>
      <point x="729" y="1034" type="line"/>
      <point x="750" y="1031"/>
      <point x="771" y="1026"/>
    </contour>
  </outline>
</glyph>
<glyph name="periodcentered" format="2">
  <advance width="389"/>
  <unicode hex="00B7"/>
  <outline>
    <contour>
      <point x="320" y="610" type="curve"/>
      <point x="320" y="661"/>
      <point x="289" y="699"/>
      <point x="235" y="699" type="curve" smooth="yes"/>
      <point x="150" y="699"/>
      <point x="90" y="606"/>
      <point x="90" y="535" type="curve" smooth="yes"/>
      <point x="90" y="480"/>
      <point x="120" y="443"/>
      <point x="176" y="443" type="curve" smooth="yes"/>
      <point x="266" y="443"/>
      <point x="320" y="535"/>
    </contour>
  </outline>
</glyph>
<glyph name="cedilla" format="2">
  <advance width="291"/>
  <unicode hex="00B8"/>
  <outline>
    <contour>
      <point x="206" y="-198" type="curve"/>
      <point x="206" y="-140"/>
      <point x="166" y="-94"/>
      <point x="96" y="-92" type="curve"/>
      <point x="103" y="-71"/>
      <point x="120" y="6"/>
      <point x="126" y="45" type="curve"/>
      <point x="47" y="46" type="line"/>
      <point x="36" y="-20"/>
      <point x="9" y="-112"/>
      <point x="-27" y="-193" type="curve"/>
      <point x="14" y="-191"/>
      <point x="42" y="-209"/>
      <point x="42" y="-236" type="curve" smooth="yes"/>
      <point x="42" y="-287"/>
      <point x="-28" y="-331"/>
      <point x="-136" y="-284" type="curve"/>
      <point x="-135" y="-337" type="line"/>
      <point x="32" y="-423"/>
      <point x="206" y="-325"/>
    </contour>
  </outline>
</glyph>
<glyph name="onesuperior" format="2">
  <advance width="563"/>
  <unicode hex="00B9"/>
  <anchor x="385" y="1260" name="U"/>
  <outline>
    <contour>
      <point x="511" y="591" type="line"/>
      <point x="397" y="604"/>
      <point x="377" y="625"/>
      <point x="379" y="639" type="curve" smooth="yes"/>
      <point x="468" y="1197" type="line"/>
      <point x="447" y="1219" type="line"/>
      <point x="389" y="1195"/>
      <point x="224" y="1142"/>
      <point x="157" y="1127" type="curve"/>
      <point x="165" y="1084" type="line"/>
      <point x="270" y="1105"/>
      <point x="303" y="1101"/>
      <point x="310" y="1092" type="curve" smooth="yes"/>
      <point x="319" y="1082"/>
      <point x="317" y="1068"/>
      <point x="312" y="1039" type="curve" smooth="yes"/>
      <point x="249" y="639" type="line" smooth="yes"/>
      <point x="246" y="624"/>
      <point x="212" y="604"/>
      <point x="89" y="591" type="curve"/>
      <point x="82" y="547" type="line"/>
      <point x="504" y="547" type="line"/>
    </contour>
  </outline>
</glyph>
<glyph name="ordmasculine" format="2">
  <advance width="457"/>
  <unicode hex="00BA"/>
  <outline>
    <contour>
      <point x="484" y="939" type="curve"/>
      <point x="484" y="1046"/>
      <point x="438" y="1122"/>
      <point x="325" y="1122" type="curve" smooth="yes"/>
      <point x="282" y="1122"/>
      <point x="236" y="1101"/>
      <point x="198" y="1071" type="curve" smooth="yes"/>
      <point x="113" y="1004"/>
      <point x="81" y="928"/>
      <point x="81" y="837" type="curve" smooth="yes"/>
      <point x="81" y="729"/>
      <point x="142" y="650"/>
      <point x="241" y="650" type="curve" smooth="yes"/>
      <point x="288" y="650"/>
      <point x="331" y="674"/>
      <point x="369" y="704" type="curve" smooth="yes"/>
      <point x="441" y="763"/>
      <point x="484" y="853"/>
    </contour>
    <contour>
      <point x="446" y="576" type="curve"/>
      <point x="426" y="602" type="line"/>
      <point x="53" y="602" type="line"/>
      <point x="46" y="584"/>
      <point x="36" y="568"/>
      <point x="30" y="549" type="curve"/>
      <point x="50" y="527" type="line"/>
      <point x="423" y="527" type="line"/>
      <point x="430" y="543"/>
      <point x="441" y="557"/>
    </contour>
    <contour>
      <point x="378" y="909" type="curve"/>
      <point x="378" y="830"/>
      <point x="353" y="717"/>
      <point x="277" y="717" type="curve" smooth="yes"/>
      <point x="227" y="717"/>
      <point x="185" y="786"/>
      <point x="185" y="866" type="curve" smooth="yes"/>
      <point x="185" y="949"/>
      <point x="207" y="1053"/>
      <point x="288" y="1053" type="curve" smooth="yes"/>
      <point x="339" y="1053"/>
      <point x="378" y="1002"/>
    </contour>
  </outline>
</glyph>
<glyph name="guillemotright" format="2">
  <advance width="898"/>
  <unicode hex="00BB"/>
  <outline>
    <contour>
      <point x="487" y="450" type="curve"/>
      <point x="197" y="839" type="line"/>
      <point x="138" y="794" type="line"/>
      <point x="174" y="668"/>
      <point x="210" y="542"/>
      <point x="246" y="416" type="curve"/>
      <point x="36" y="42" type="line"/>
      <point x="81" y="-2" type="line"/>
      <point x="477" y="384" type="line"/>
      <point x="481" y="405"/>
      <point x="484" y="428"/>
    </contour>
    <contour>
      <point x="839" y="450" type="curve"/>
      <point x="549" y="839" type="line"/>
      <point x="489" y="794" type="line"/>
      <point x="525" y="668"/>
      <point x="562" y="542"/>
      <point x="598" y="416" type="curve"/>
      <point x="387" y="42" type="line"/>
      <point x="433" y="-2" type="line"/>
      <point x="828" y="384" type="line"/>
      <point x="832" y="405"/>
      <point x="836" y="428"/>
    </contour>
  </outline>
</glyph>
<glyph name="onequarter" format="2">
  <advance width="1088"/>
  <unicode hex="00BC"/>
  <outline>
    <contour>
      <point x="1109" y="1086" type="line"/>
      <point x="1091" y="1111" type="line"/>
      <point x="1066" y="1106"/>
      <point x="994" y="1092"/>
      <point x="971" y="1082" type="curve"/>
      <point x="43" y="0" type="line"/>
      <point x="60" y="-27" type="line"/>
      <point x="91" y="-18"/>
      <point x="156" y="-10"/>
      <point x="184" y="2" type="curve"/>
    </contour>
    <contour>
      <point x="999" y="194" type="curve"/>
      <point x="990" y="207" type="line"/>
      <point x="920" y="207" type="line"/>
      <point x="972" y="518" type="line"/>
      <point x="953" y="538" type="line"/>
      <point x="920" y="528"/>
      <point x="862" y="512"/>
      <point x="828" y="503" type="curve"/>
      <point x="546" y="161" type="line"/>
      <point x="564" y="142" type="line"/>
      <point x="787" y="142" type="line"/>
      <point x="774" y="66" type="line" smooth="yes"/>
      <point x="773" y="56"/>
      <point x="754" y="48"/>
      <point x="669" y="36" type="curve"/>
      <point x="663" y="0" type="line"/>
      <point x="954" y="0" type="line"/>
      <point x="960" y="36" type="line"/>
      <point x="909" y="46"/>
      <point x="896" y="54"/>
      <point x="897" y="62" type="curve" smooth="yes"/>
      <point x="910" y="142" type="line"/>
      <point x="940" y="142" type="line"/>
      <point x="955" y="152"/>
      <point x="983" y="175"/>
    </contour>
    <contour>
      <point x="797" y="207" type="line"/>
      <point x="663" y="207" type="line"/>
      <point x="831" y="414" type="line"/>
    </contour>
    <contour>
      <point x="489" y="573" type="line"/>
      <point x="495" y="613" type="line"/>
      <point x="402" y="624"/>
      <point x="381" y="640"/>
      <point x="383" y="652" type="curve" smooth="yes"/>
      <point x="455" y="1091" type="line"/>
      <point x="435" y="1111" type="line"/>
      <point x="385" y="1093"/>
      <point x="230" y="1047"/>
      <point x="173" y="1037" type="curve"/>
      <point x="181" y="998" type="line"/>
      <point x="268" y="1014"/>
      <point x="297" y="1011"/>
      <point x="303" y="1004" type="curve" smooth="yes"/>
      <point x="309" y="996"/>
      <point x="308" y="984"/>
      <point x="305" y="962" type="curve" smooth="yes"/>
      <point x="254" y="652" type="line" smooth="yes"/>
      <point x="252" y="639"/>
      <point x="221" y="624"/>
      <point x="118" y="613" type="curve"/>
      <point x="112" y="573" type="line"/>
    </contour>
  </outline>
</glyph>
<glyph name="onehalf" format="2">
  <advance width="1043"/>
  <unicode hex="00BD"/>
  <outline>
    <contour>
      <point x="1045" y="1086" type="line"/>
      <point x="1027" y="1111" type="line"/>
      <point x="1003" y="1106"/>
      <point x="952" y="1092"/>
      <point x="929" y="1082" type="curve"/>
      <point x="79" y="0" type="line"/>
      <point x="95" y="-27" type="line"/>
      <point x="126" y="-18"/>
      <point x="170" y="-10"/>
      <point x="198" y="2" type="curve"/>
    </contour>
    <contour>
      <point x="457" y="573" type="line"/>
      <point x="462" y="608" type="line"/>
      <point x="370" y="619"/>
      <point x="353" y="635"/>
      <point x="355" y="647" type="curve" smooth="yes"/>
      <point x="423" y="1093" type="line"/>
      <point x="406" y="1111" type="line"/>
      <point x="359" y="1091"/>
      <point x="227" y="1049"/>
      <point x="172" y="1037" type="curve"/>
      <point x="179" y="1003" type="line"/>
      <point x="263" y="1019"/>
      <point x="290" y="1016"/>
      <point x="296" y="1009" type="curve" smooth="yes"/>
      <point x="303" y="1001"/>
      <point x="301" y="990"/>
      <point x="298" y="967" type="curve" smooth="yes"/>
      <point x="250" y="647" type="line" smooth="yes"/>
      <point x="248" y="634"/>
      <point x="220" y="619"/>
      <point x="121" y="608" type="curve"/>
      <point x="116" y="573" type="line"/>
    </contour>
    <contour>
      <point x="957" y="143" type="line"/>
      <point x="921" y="150" type="line"/>
      <point x="921" y="150"/>
      <point x="905" y="70"/>
      <point x="861" y="70" type="curve" smooth="yes"/>
      <point x="682" y="70" type="line"/>
      <point x="923" y="284"/>
      <point x="987" y="352"/>
      <point x="993" y="427" type="curve" smooth="yes"/>
      <point x="999" y="503"/>
      <point x="936" y="533"/>
      <point x="856" y="533" type="curve" smooth="yes"/>
      <point x="743" y="533"/>
      <point x="638" y="457"/>
      <point x="628" y="397" type="curve"/>
      <point x="640" y="373" type="line"/>
      <point x="668" y="376"/>
      <point x="717" y="387"/>
      <point x="738" y="399" type="curve"/>
      <point x="740" y="440"/>
      <point x="767" y="482"/>
      <point x="816" y="482" type="curve" smooth="yes"/>
      <point x="865" y="482"/>
      <point x="884" y="457"/>
      <point x="880" y="410" type="curve" smooth="yes"/>
      <point x="876" y="341"/>
      <point x="803" y="255"/>
      <point x="555" y="31" type="curve"/>
      <point x="564" y="0" type="line"/>
      <point x="928" y="0" type="line"/>
    </contour>
  </outline>
</glyph>
